<svg xmlns="http://www.w3.org/2000/svg" width="32" height="32" viewBox="0 0 32 32">
    <path d="M11.8762887,0.956701031 C6.43298969,2.02886598 2.16082474,5.92164948 0.692783505,11.2824742 C-0.67628866,16.3134021 0.577319588,21.8556701 3.89278351,25.8474227 C7.90103093,30.6804124 15.142268,32.4123711 20.9319588,30.0865979 C27.8268041,27.3319588 33.4185567,19.1670103 31.571134,11.5793814 C30.4659794,7.02680412 26.4412371,3.48041237 22.3010309,1.63298969 C18.2268041,-0.181443299 13.0309278,-0.758762887 9.25360825,2.06185567 C8.70927835,2.45773196 8.44536082,3.11752577 8.80824742,3.76082474 C9.12164948,4.28865979 9.9628866,4.60206186 10.5072165,4.20618557 C15.5216495,0.46185567 22.8783505,3.64536082 26.6556701,7.71958763 C28.8,10.028866 29.756701,12.9154639 29.3113402,16.0329897 C28.7505155,19.8597938 26.6061856,23.257732 23.6371134,25.6824742 C20.8659794,27.9587629 17.2371134,29.0474227 13.7072165,28.5030928 C11.0845361,28.1072165 8.61030928,27.0020619 6.68041237,25.1876289 C3.18350515,21.9051546 1.91340206,16.7257732 3.00206186,12.2061856 C4.12371134,7.53814433 7.75257732,4.27216495 12.5195876,3.33195876 C14.1030928,3.03505155 13.443299,0.643298969 11.8762887,0.956701031 L11.8762887,0.956701031 Z"/>
    <path d="M13.2618557,11.3814433 C15.1257732,13.228866 17.2206186,14.8618557 19.0845361,16.7092784 C20.2226804,17.8309278 21.971134,16.0824742 20.8329897,14.9608247 C18.9690722,13.1134021 16.8742268,11.4804124 15.0103093,9.63298969 C13.8721649,8.51134021 12.1237113,10.2597938 13.2618557,11.3814433 Z"/>
    <path d="M18.4412371,15.8350515 C18.4742268,15.6371134 18.7876289,15.3237113 18.4907216,15.6371134 C18.3092784,15.8350515 18.0948454,16.0329897 17.8969072,16.2309278 C17.3690722,16.742268 16.8082474,17.2371134 16.2639175,17.7154639 C15.6701031,18.243299 15.0762887,18.7546392 14.4659794,19.2659794 C14.2350515,19.4639175 14.0041237,19.6618557 13.756701,19.8597938 L13.4597938,20.1072165 C13.1958763,20.3216495 13.443299,20.1237113 13.3278351,20.2061856 C12.7835052,20.6185567 12.5195876,21.2618557 12.8824742,21.9051546 C13.1958763,22.4329897 14.0371134,22.7628866 14.5814433,22.3505155 C15.8185567,21.4103093 16.9896907,20.3876289 18.1443299,19.3484536 C18.7216495,18.8371134 19.2824742,18.3257732 19.843299,17.7979381 C20.2061856,17.4515464 20.7175258,17.0061856 20.8164948,16.4948454 C21.1463918,14.9443299 18.7546392,14.2680412 18.4412371,15.8350515 L18.4412371,15.8350515 Z"/>
</svg>
