<svg xmlns="http://www.w3.org/2000/svg" width="58" height="53" viewBox="0 0 58 53">
  <g fill="none">
    <path fill="#DDDDDD" d="M44.3 16.7C38.9 14.9 31.6 16.6 25.9 16.8 20.8 16.9 14 16 9.6 18.9 9.1 19.2 8.9 20 9.4 20.4 13.6 23.8 20.8 23.4 25.9 23.4 31.8 23.4 39.6 24.4 45 21.6 47.1 20.5 46.3 17.4 44.3 16.7zM18 37.7C18 37.6 17.9 37.4 17.8 37.3 17.8 37.1 17.9 36.5 17.9 36.3 17.8 34.7 17.7 33.1 17.5 31.6 17.3 29.1 17 26.6 15.9 24.3 15.6 23.6 14.5 23.7 14.2 24.3 11.9 28.5 12.4 33.9 12.5 38.5 12.6 42.5 19 41.7 18 37.7z"/>
    <path fill="#DDDDDD" d="M29 31.6C28.7 29.2 28.7 26.4 27.4 24.3 26.8 23.4 25.6 23.5 25 24.3 23.5 26.4 23.5 29.6 23.5 32.1 23.5 34.9 23.1 37.7 25 39.9 26 41.1 28.2 40.7 28.9 39.4 30.3 37 29.3 34.2 29 31.6zM37.5 31.2C37.2 29.3 37.2 27.4 36.3 25.6 35.7 24.4 34.1 24.6 33.5 25.6 32.4 27.3 32.3 29.6 32.2 31.5 32 33.8 31.8 35.9 33.3 37.8 34.4 39.1 36.8 38.7 37.5 37.3 38.6 35.2 37.9 33.4 37.5 31.2z"/>
    <path fill="#DDDDDD" d="M53.7,36.9 C52.9,36.3 51.9,35.6 50.8,35.4 C50.8,35.2 50.8,35 50.7,34.8 C51.4,32.7 50.8,29.3 50.8,27.1 C50.8,24.7 50.8,22.7 50.2,20.5 C49.5,17.4 44.7,17.4 43.9,20.5 C43.1,24 43.4,27.5 43.4,31 C43.4,33.3 43,36.4 43.8,38.6 C44.5,40.7 45.7,41 47.4,41.9 C48.4,42.4 50.1,42.5 49.9,44.2 C49.7,45.7 48.2,45.2 46.7,45.3 C39.9,45.3 33,45.3 26.2,45.5 C19.6,45.8 12.7,45.6 6.2,47.4 C4.8,47.8 4.8,49.8 6.2,50.2 C14.6,52.6 24.1,52.3 32.7,52.5 C37.1,52.6 41.4,52.7 45.8,52.7 C48.6,52.7 51.8,52.8 54.2,51.1 C59,47.7 57.7,40.3 53.7,36.9 Z"/>
    <path fill="#494949" d="M49.8,20.1 C49.8,20.1 2.8,19 2.8,19 C2,19 1.3,18.3 1.3,17.5 C1.3,16.1 1.2,14.7 1.2,13.3 L1.2,12.4 C1.2,11.8 1.5,11.3 2,11 C5.7,9 9.5,7.2 13.2,5.4 C15.9,4.1 18.6,2.8 21.4,1.4 C22.2,1 22.9,0.6 23.7,0.2 C24.1,-1.13603571e-13 24.6,-1.13603571e-13 25,0.1 L50.2,10.2 C50.8,10.4 51.1,11 51.1,11.6 C51.1,12.7 51.2,13.9 51.2,15 C51.2,16.1 51.3,17.2 51.3,18.4 C51.3,18.8 51.1,19.2 50.9,19.5 C50.6,20 50.2,20.1 49.8,20.1 Z M4.4,16.1 L48.3,17.1 C48.3,16.5 48.3,16 48.2,15.4 C48.2,14.6 48.1,13.7 48.1,12.9 L24.4,3.4 C23.8,3.7 23.3,4 22.7,4.3 C19.9,5.7 17.2,7 14.5,8.3 C11.1,9.9 7.6,11.6 4.2,13.3 C4.3,14.2 4.3,15.1 4.4,16.1 Z"/>
    <path fill="#494949" d="M25.2 15C23.1 15 20.8 13.6 20.6 11.2 20.4 8.9 21.8 6.8 23.9 6.1 24.3 5.9 24.8 5.9 25.3 5.9 26.5 5.9 27.6 6.4 28.4 7.4 29.3 8.4 29.9 9.8 29.8 11.1 29.8 11.1 29.8 11.2 29.8 11.2 29.6 13.3 27.6 15 25.2 15zM25.3 8.8C25.2 8.8 25.1 8.8 25 8.9 24.1 9.2 23.6 10 23.7 10.9 23.8 11.7 24.7 12 25.3 12 26 12 26.9 11.6 26.9 10.9 26.9 10.3 26.7 9.8 26.3 9.3 26.1 9.1 25.7 8.8 25.3 8.8zM2.2 48.7C1.8 48.7 1.4 48.5 1.1 48.3.8 48 .7 47.6.7 47.2.7 46.1.7 45 .7 43.9.7 43.3.7 42.7.7 42.2.7 41.4 1.3 40.8 2.1 40.7 3.3 40.6 4.6 40.5 5.8 40.4 5.8 40.1 5.8 39.7 5.8 39.4 5.8 36.7 5.7 33.9 5.6 31.2 5.5 28.5 5.4 25.7 5.4 22.9 5.4 21.3 5.4 19.9 5.5 18.5 5.5 17.7 6.3 17 7.1 17.1 7.9 17.1 8.6 17.9 8.5 18.7 8.4 20 8.4 21.4 8.4 23 8.4 25.7 8.5 28.5 8.6 31.2 8.7 33.9 8.8 36.7 8.8 39.5 8.8 40.3 8.8 41.2 8.8 42 8.8 42.8 8.2 43.4 7.4 43.5L6.4 43.6C5.5 43.7 4.6 43.7 3.8 43.8 3.8 43.9 3.8 44.1 3.8 44.2 3.8 44.8 3.8 45.4 3.8 46L49.2 45.9C49.2 45.4 49.2 44.8 49.2 44.3 49.2 44 49.2 43.7 49.2 43.4L44 43.6C43.6 43.6 43.2 43.5 42.9 43.2 42.6 42.9 42.4 42.5 42.4 42.1 42.4 40.7 42.4 39.4 42.4 38 42.4 36.2 42.4 34.3 42.4 32.5 42.4 28.9 42.4 24.2 42.8 19.4 42.9 18.6 43.6 18 44.4 18 45.2 18.1 45.8 18.8 45.8 19.6 45.4 24.3 45.4 28.9 45.4 32.5 45.4 34.3 45.4 36.2 45.4 38 45.4 38.8 45.4 39.7 45.4 40.5L50.7 40.3C51.1 40.3 51.5 40.4 51.8 40.7 52.1 41 52.3 41.4 52.2 41.8 52.2 42.6 52.2 43.4 52.2 44.2 52.2 45 52.2 45.9 52.2 46.7L52.2 47.3C52.2 47.7 52 48.1 51.8 48.4 51.5 48.7 51.1 48.8 50.7 48.8 50.7 48.6 2.2 48.7 2.2 48.7z"/>
    <path fill="#494949" d="M17.7 41.6C17.6 41.6 17.6 41.6 17.5 41.6 16.7 41.5 16.1 40.8 16.2 39.9 16.5 37.1 16.5 34.3 16.6 31.5 16.6 29.2 16.6 26.9 16.8 24.6 16.9 23.8 17.6 23.2 18.4 23.2 19.2 23.3 19.8 24 19.8 24.8 19.6 27 19.6 29.3 19.6 31.5 19.6 34.3 19.6 37.3 19.2 40.2 19.1 41 18.4 41.6 17.7 41.6zM28.3 41.9C27.5 41.9 26.8 41.2 26.8 40.4L26.8 25.2C26.8 24.4 27.5 23.7 28.3 23.7 29.1 23.7 29.8 24.4 29.8 25.2L29.8 40.4C29.8 41.3 29.2 41.9 28.3 41.9zM37.1 40.4C36.3 40.4 35.6 39.8 35.6 39 35.6 37.9 35.5 36.8 35.5 35.6 35.5 33.9 35.5 32.2 35.6 30.5 35.6 28.8 35.7 27.1 35.7 25.4 35.7 24.6 36.4 23.9 37.2 23.9 38 23.9 38.7 24.6 38.7 25.4 38.7 27.1 38.7 28.8 38.6 30.5 38.6 32.2 38.5 33.8 38.5 35.5 38.5 36.7 38.5 37.8 38.6 38.8 38.6 39.7 38 40.4 37.1 40.4 37.2 40.4 37.1 40.4 37.1 40.4z"/>
  </g>
</svg>
