<svg xmlns="http://www.w3.org/2000/svg" width="64" height="46" viewBox="0 0 64 46">
  <g fill="none">
    <path fill="#DDDDDD" d="M57.1,12.5 C56.4,12.3 55.6,12.4 54.8,12.8 C51.3,14.5 47.2,14.6 43.4,15 C39.2,15.5 35,15.9 30.8,16.3 C24.3,17 15.9,16.8 9.9,19.7 C8.9,20.2 9.3,21.5 10.2,21.8 C10.6,21.9 11,22.1 11.4,22.2 C9.7,22.4 8,22.6 6.3,22.9 C3.5,23.4 3.5,28.1 6.3,28.5 C17.4,30.4 29,30 40.3,30 C44.4,30 48.5,30 52.1,27.8 C55.9,25.5 59.5,21.2 62,17.6 C64,14.6 60,10.7 57.1,12.5 Z"/>
    <path fill="#494949" d="M20.8,23.5 C13.8,23.5 7.6,23.3 1.9,22.9 C1.4,22.9 0.9,22.6 0.7,22.1 C0.5,21.6 0.5,21.1 0.7,20.6 C2.9,16.7 5.9,13.5 8.9,10.3 C6.5,8.4 4,6.1 1.3,3.5 C0.8,3.1 0.7,2.4 1,1.8 C1.2,1.2 1.8,0.9 2.4,0.9 C12.5,1.3 21.8,1.5 30.8,1.5 C39,1.5 47.1,1.3 54.7,1 C55.2,1 55.7,1.2 56,1.7 C58.3,5.1 60.9,8.2 63.6,11.4 C63.9,11.7 64,12.2 63.9,12.6 C63.8,13 63.6,13.4 63.2,13.6 C61.9,14.5 60.5,15.3 59.2,16.2 C55.9,18.3 52.5,20.4 49.3,22.6 C49.1,22.8 48.8,22.9 48.5,22.9 C46.2,23 44,23 41.7,23.1 C34.8,23.4 27.7,23.5 20.8,23.5 Z M4.6,20.1 C9.6,20.4 14.9,20.5 20.8,20.5 C27.7,20.5 34.8,20.3 41.6,20.1 C43.7,20 45.9,20 48,19.9 C51.2,17.8 54.4,15.7 57.6,13.7 C58.5,13.2 59.3,12.6 60.2,12.1 C58,9.5 55.9,6.9 53.9,4.1 C46.5,4.4 38.7,4.6 30.7,4.6 C22.9,4.6 14.8,4.4 6.2,4.1 C8.2,6 10.1,7.6 12,9 C12.3,9.3 12.5,9.6 12.6,10.1 C12.6,10.5 12.5,10.9 12.2,11.2 L11.3,12.2 C8.8,14.9 6.5,17.3 4.6,20.1 Z"/>
    <path fill="#494949" d="M20.7 14.1C19.9 14.1 19.2 13.4 19.2 12.6 19.2 11.8 19.9 11.1 20.7 11.1 27.9 11.1 35.2 10.8 42.3 10.6 43.1 10.6 43.8 11.2 43.9 12 43.9 12.8 43.3 13.5 42.5 13.6 35.3 13.8 27.9 14.1 20.7 14.1zM28.7 35.5C28 35.5 27.4 35 27.2 34.3 27 33.2 26.9 32 26.9 30.6 26.9 29.9 26.9 29.2 26.9 28.4 26.9 27.7 26.9 27 26.9 26.3 26.9 25 26.8 24.1 26.6 23.2 26.4 22.4 26.9 21.6 27.8 21.4 28.6 21.2 29.4 21.7 29.6 22.6 29.8 23.7 29.9 24.9 29.9 26.3 29.9 27 29.9 27.7 29.9 28.5 29.9 29.2 29.9 29.9 29.9 30.6 29.9 31.8 30 32.8 30.2 33.7 30.4 34.5 29.9 35.3 29 35.5 28.9 35.4 28.8 35.5 28.7 35.5z"/>
    <path fill="#494949" d="M52.1,45.7 C52,45.7 51.8,45.7 51.7,45.6 C50.1,45.1 49.1,44.2 48.2,43.3 C47.1,42.2 46.3,41.5 44.6,41.5 C43.7,41.5 42.7,41.7 41.8,42.2 C41.4,42.4 41,42.4 40.6,42.3 C40.2,42.2 39.9,41.9 39.7,41.5 C38.2,38.1 35.3,36.3 31.2,36.3 C25.5,36.3 21.2,40.6 20.1,42.3 C20.2,42.5 20.2,42.7 20.2,42.9 C20.2,43.7 19.5,44.4 18.7,44.4 L18.4,44.4 C17.8,44.4 17.3,44.1 17.1,43.6 C16.9,43.3 16.9,43 16.9,42.6 C16.9,40.3 22.8,33.3 31.2,33.3 C36,33.3 39.6,35.3 41.8,39 C42.7,38.7 43.6,38.6 44.5,38.6 C47.4,38.6 48.9,40.1 50.2,41.3 C50.9,42 51.6,42.6 52.4,42.9 C53.2,43.1 53.6,44 53.4,44.8 C53.3,45.3 52.7,45.7 52.1,45.7 Z"/>
  </g>
</svg>
