<svg xmlns="http://www.w3.org/2000/svg" width="55" height="69" viewBox="0 0 55 69">
  <g fill="none">
    <path fill="#DDDDDD" d="M54.3,43.5 C54,39.3 53.6,35.1 53.2,30.9 C52.4,23.2 52.2,15 49.1,7.9 C48.6,6.8 46.8,7.1 46.6,8.2 C45,16.2 46.4,24.7 46.8,32.8 C47,37 47.2,41.2 47.4,45.4 C47.5,48.2 47.3,51 47.9,53.6 C46.6,54.3 45.5,55.2 44.4,56.2 C44.4,56.1 44.4,56 44.4,56 C44.3,55.1 43.7,54.5 42.8,54.4 C42.4,54.4 41.9,54.5 41.5,54.6 C41.2,54.7 40.9,54.8 40.6,55 C40.6,55 40.6,55 40.5,55 C40.3,54.4 39.8,54 39.1,54.2 C38.9,54.3 38.6,54.4 38.4,54.5 C37.8,54.8 37.7,55.3 37.3,55.9 C36.9,56.5 36.9,57.6 37.3,58.2 C38,59.2 39.1,59.9 40.3,59.9 C36.8,62.2 33,62.1 28.6,62.2 C24.3,62.3 19.9,62.2 15.6,62 C11.7,61.9 7.9,61.3 4.1,62.3 C3.1,62.6 2.8,64.1 3.8,64.6 C7.6,66.8 12.2,66.9 16.5,67.4 C22.1,68 27.7,68.2 33.3,68.3 C37.5,68.4 40.8,68.3 44.2,65.6 C47.1,63.4 50.5,61 52.3,57.8 C53.2,57.5 53.9,56.8 54.3,55.9 C55.7,52.1 54.6,47.5 54.3,43.5 Z"/>
    <path fill="#494949" d="M28.6,63.7 C22.8,63.7 17,63.4 11.3,63 C8.4,62.8 5.4,62.7 2.5,62.5 C1.7,62.5 1.1,61.8 1.1,61 C0.9,50.8 0.8,42.4 0.8,34.6 C0.8,22.7 1,12.1 1.4,2.1 C1.4,1.3 2.1,0.6 2.9,0.7 C7,0.8 11.2,0.9 15.3,1 C22.4,1.2 29.8,1.4 37.1,1.4 C40.2,1.4 43,1.4 45.8,1.3 C46.2,1.3 46.6,1.4 46.9,1.7 C47.2,2 47.4,2.4 47.4,2.8 C47.5,9.2 47.6,14.6 47.8,20.4 C48.1,28.9 48.4,38.5 48.5,53.6 C48.5,54 48.3,54.4 48,54.7 C45.6,56.9 43,59.5 39.9,62.7 C39.7,63 39.3,63.1 39,63.2 C35.7,63.6 32.3,63.7 28.6,63.7 Z M4,59.6 C6.5,59.7 9,59.9 11.4,60 C17,60.3 22.8,60.7 28.5,60.7 C31.9,60.7 35,60.6 38,60.3 C40.8,57.4 43.1,55.1 45.4,53 C45.3,38.3 45,28.9 44.7,20.5 C44.5,15.2 44.4,10.1 44.3,4.3 C42,4.3 39.6,4.4 37,4.4 C29.7,4.4 22.3,4.2 15.2,4 C11.6,3.9 7.9,3.8 4.3,3.7 C3.9,13.2 3.7,23.3 3.7,34.6 C3.8,42.1 3.9,50 4,59.6 Z"/>
    <path fill="#494949" d="M38.2 63.3C37.4 63.3 36.8 62.7 36.7 61.9 36.5 58.7 36.1 55.9 35.6 53.3 35.5 52.9 35.6 52.4 35.9 52.1 36.2 51.8 36.6 51.5 37 51.5 38.3 51.4 39.7 51.4 41 51.3 42.9 51.2 44.9 51.2 46.9 51 47.7 50.9 48.4 51.6 48.5 52.4 48.6 53.2 47.9 53.9 47.1 54 45.1 54.1 43.1 54.2 41.1 54.3 40.3 54.3 39.6 54.4 38.8 54.4 39.2 56.6 39.4 59 39.6 61.7 39.7 62.5 39 63.2 38.2 63.3 38.2 63.3 38.2 63.3 38.2 63.3zM20.5 42.8C19.4 42.8 18.4 42.8 17.3 42.7 15.6 42.6 13.9 42.6 12.2 42.7 11.4 42.7 10.7 42.1 10.6 41.3 10.6 40.5 11.2 39.8 12 39.7 13.8 39.6 15.6 39.7 17.3 39.7 18.3 39.7 19.4 39.8 20.4 39.8 22.1 39.8 36.1 39.7 37.4 39.5 38.2 39.4 39 39.9 39.1 40.7 39.2 41.5 38.7 42.3 37.9 42.4 36.5 42.8 22.4 42.8 20.5 42.8zM27.2 34.1C26.1 34.1 22.4 34.3 21.3 34.2 19.6 34.1 13.9 34.1 12.2 34.2 11.4 34.2 10.7 33.6 10.6 32.8 10.6 32 11.2 31.3 12 31.2 13.8 31.1 19.6 31.2 21.3 31.2 22.3 31.2 26.1 31.1 27.1 31.1 28.8 31.1 36.7 31.2 38 31 38.8 30.9 39.6 31.4 39.7 32.2 39.8 33 39.3 33.8 38.5 33.9 37.2 34.2 29.1 34.1 27.2 34.1zM29.8 25.6C28.7 25.6 18.5 25.7 17.4 25.7 15.7 25.6 14 25.6 12.3 25.7 11.5 25.7 10.8 25.1 10.7 24.3 10.7 23.5 11.3 22.8 12.1 22.7 13.9 22.6 15.7 22.7 17.4 22.7 18.4 22.7 28.7 22.6 29.7 22.6 31.4 22.6 36.2 22.7 37.5 22.5 38.3 22.4 39.1 22.9 39.2 23.7 39.3 24.5 38.8 25.3 38 25.4 36.5 25.7 31.6 25.6 29.8 25.6zM20.5 17.3C19.4 17.3 18.4 17.3 17.3 17.2 15.6 17.1 13.4 17 11.7 17.1 10.9 17.1 10.2 16.5 10.1 15.7 10.1 14.9 10.7 14.2 11.5 14.1 13.3 14 15.6 14.1 17.4 14.2 18.4 14.2 19.5 14.3 20.5 14.3 22.2 14.3 36.2 14.2 37.5 14 38.3 13.9 39.1 14.4 39.2 15.2 39.3 16 38.8 16.8 38 16.9 36.5 17.2 22.4 17.3 20.5 17.3zM11.9 51.3C11.1 51.3 10.4 50.7 10.4 49.9 10.4 49.1 11 48.4 11.8 48.3 12.8 48.3 13.8 48.2 15 48.2 15.9 48.2 16.9 48.2 17.8 48.2 18.7 48.2 19.6 48.2 20.5 48.2 22.5 48.2 24 48.1 25.4 48 26.2 47.9 27 48.5 27 49.3 27.1 50.1 26.5 50.9 25.7 50.9 24.2 51.1 22.5 51.1 20.5 51.1 19.6 51.1 18.7 51.1 17.7 51.1 16.8 51.1 15.9 51.1 15 51.1 13.9 51.3 12.9 51.3 11.9 51.3 12 51.3 12 51.3 11.9 51.3z"/>
  </g>
</svg>
