<svg xmlns="http://www.w3.org/2000/svg" width="84" height="37" viewBox="0 0 84 37">
    <path d="M82.3 2.6C81.7.6 79.3.7 78.4 1.9 77.7 1.5 76.6 1.4 76 1.9 74.8 1.5 73.6 1.4 72.4 1.2 69.3.8 66.1.8 63 .9 55.5 1 48 1.7 40.5 2.2 37.4 2.4 34.3 2.7 31.2 2.7 30.6 2.7 30.1 2.9 29.7 3.3 28.9 3.4 28.1 4.2 27.9 4.9 27.9 5 27.9 5.1 27.8 5.1 27.4 5.5 27.2 6 27.2 6.6 27.2 13.1 25.7 19.8 26.9 26.2 27.4 28.8 28.6 31.4 30.7 33.1 33.4 35.3 36.8 35.8 40.2 36.1 48 36.8 55.9 36.7 63.7 35.7 67.6 35.2 71.4 34.5 75.1 33.4 76.6 32.9 78.7 32.4 79.9 31.4 81.1 30.5 81.5 28 81.9 26.5 83 22.3 83.4 17.9 83.5 13.5 83.4 10.1 83.3 6.2 82.3 2.6zM70 5.5C71.1 5.6 71.9 5.6 72.7 5.8 69.3 9.7 65.4 13.4 61 15.9 58.4 17.4 55.7 18.3 52.7 17.3 48.8 16.1 45.4 13.4 42.2 10.9 40.5 9.6 38.7 8.2 36.9 7 47.9 6.5 58.9 4.8 70 5.5zM78.8 16.1C78.6 20.2 78 24.4 76.6 28.2 72.4 30 67.7 30.9 63.2 31.5 57.8 32.2 52.3 32.4 46.8 32.3 44.4 32.2 42.1 32.1 39.7 31.9 37.7 31.7 35.7 31.5 33.9 30.4 31.1 28.7 30.7 25.2 30.6 22.1 30.5 17.7 31.1 13.2 31.3 8.8 34.4 10.4 37.1 12.8 39.8 14.8 43.3 17.4 46.9 20.1 51 21.5 58.5 24 65.6 18.7 70.8 13.9 73.1 11.8 75.2 9.6 77.2 7.2 77.7 7.1 78.1 6.9 78.4 6.7 79.1 9.7 79 13 78.8 16.1zM18 6.4C13 7.6 7.7 7 2.6 7.5 1.4 7.6.4 8.4.4 9.7.4 10.8 1.4 12 2.6 11.9 8.1 11.3 13.7 11.9 19.2 10.6 21.9 10 20.8 5.7 18 6.4zM16.8 16.5C14.7 17 12.5 17 10.3 17 7.4 17 7.4 21.4 10.3 21.4 12.9 21.4 15.5 21.3 18 20.7 20.8 20.1 19.6 15.8 16.8 16.5zM17.5 27.3C17.7 27.2 17.6 27.2 17.4 27.3 17.2 27.3 17.1 27.4 16.9 27.4 16.6 27.5 16.7 27.5 16.3 27.5 15.7 27.5 15.1 27.6 14.5 27.6 11.6 27.6 11.6 32 14.5 32 16.3 32 18.1 31.9 19.8 31.1 20.9 30.6 21.2 29 20.6 28.1 19.8 27 18.6 26.8 17.5 27.3z"/>
</svg>
