<svg xmlns="http://www.w3.org/2000/svg" width="95" height="99" viewBox="0 0 95 99">
    <path d="M40.4,85.3 C36.8,84.8 33.3,84.5 29.6,84.6 C25.5,84.8 21.4,85.1 17.4,85.1 C15.9,85.1 14.5,85 13,84.9 C10.8,84.7 8.5,84.8 6.2,84.9 C7,64.3 7,43.7 6,23.1 C5.7,17.4 5.4,11.7 5,6 C8.7,4.7 12.7,4.8 16.6,5.2 C21.3,5.6 26,6 30.7,6.3 C38.8,6.8 46.9,7 54.9,7 C54.6,11.3 54.5,15.7 54.7,20.1 C54.7,21.2 55.7,22.5 56.9,22.3 C60.9,21.8 64.7,22.1 68.6,22.8 C68.4,29.6 68.5,36.4 68.3,43.2 C68.2,46.1 72.7,46.1 72.7,43.2 C72.9,34.7 72.7,26.2 73.2,17.7 C73.2,17.2 73.1,16.7 72.9,16.4 C73,16 72.9,15.5 72.6,15 C69.7,10.4 65.9,6.6 61.4,3.6 C61.1,3 60.4,2.5 59.5,2.5 C49.7,2.6 39.9,2.4 30.1,1.8 C25.3,1.5 20.6,1 15.8,0.7 C11.4,0.4 6.9,0.4 2.8,2.1 C2.3,2.3 1.8,2.7 1.5,3.1 C1,3.3 0.5,4 0.6,5 C2.1,26.4 2.7,47.9 2.3,69.4 C2.2,75.5 2,81.5 1.7,87.5 C1.6,89.4 3.6,90 4.9,89.4 C7.6,89.3 10.4,89.1 13.1,89.3 C14.6,89.4 16,89.5 17.5,89.5 C21.6,89.5 25.7,89.2 29.7,89 C33.3,88.8 36.9,89.2 40.5,89.7 C41.7,89.9 42.7,88.6 42.7,87.5 C42.6,86.2 41.6,85.4 40.4,85.3 Z M68.8,17.2 C68.8,17.3 68.9,17.3 68.9,17.3 C68.9,17.4 68.9,17.5 68.9,17.6 C68.9,17.8 68.9,18 68.9,18.2 C65.7,17.6 62.5,17.4 59.2,17.5 C59.2,14.2 59.2,10.8 59.4,7.5 C63.2,10.1 66.3,13.4 68.8,17.2 Z"/>
    <path d="M15.8 27.9C26.1 27.7 36.3 27.6 46.6 27.4 49.5 27.3 49.5 22.9 46.6 23 36.3 23.2 26.1 23.3 15.8 23.5 13 23.5 13 27.9 15.8 27.9zM58.7 43C61.6 43.1 61.6 38.7 58.7 38.6 51.2 38.3 43.8 39.1 36.3 39.2 29.1 39.3 22 38 14.9 39.3 12.1 39.8 13.3 44.1 16.1 43.6 22.9 42.3 30 43.7 36.9 43.6 44.2 43.4 51.5 42.7 58.7 43zM39.2 53.6C36.5 53.6 33.8 53.3 31.1 53.3 28.3 53.2 25.6 53.4 22.8 53.6 20.4 53.7 18 53.5 15.6 53.6 12.8 53.7 12.7 58.2 15.6 58 18 57.9 20.4 58.1 22.8 58 25.5 57.8 28.2 57.6 30.9 57.7 33.7 57.8 36.4 58 39.2 58.1 42.1 58.1 42.1 53.6 39.2 53.6zM23.2 67.3C20.6 67.4 18.1 67.3 15.5 67.5 12.7 67.8 12.7 72.2 15.5 71.9 18.1 71.7 20.6 71.8 23.2 71.7 27.2 71.6 31.1 71.3 35.1 71.6 37.9 71.9 37.9 67.4 35.1 67.2 31.1 66.8 27.2 67.2 23.2 67.3zM94.4 93.5C93.6 91.8 91.9 90.6 90.6 89.4 87.7 86.7 84.8 84.1 81.8 81.4 83.9 79.2 85.5 76.7 86.4 73.8 87.5 69.9 87.1 65.6 85.6 61.9 82.2 53.7 74.1 48.9 65.3 49.5 56.2 50 45.8 56.1 43.9 65.5 43 69.3 42.7 73.4 43.7 77.2 44.8 81.6 47.8 85.2 51.7 87.5 59.5 92 69 90.7 76.3 86 76.5 86.3 76.8 86.5 77 86.8 78.5 88.1 79.9 89.5 81.4 90.8 84.3 93.3 87.3 95.8 90.3 98.2 91.3 99 92.4 99 93.4 98.2 94.9 97 95.1 95 94.4 93.5zM56.4 84.8C52.7 83.5 49.3 80.7 48.1 76.8 47.3 74.3 47.3 71.6 47.6 68.9 47.8 68.6 47.9 68.3 47.9 67.9 47.9 67.5 48 67.2 48 66.8 48.1 66.3 48.3 65.7 48.4 65.2 48.4 65.1 48.5 64.9 48.5 64.8 50.5 59 57.4 55.1 63.1 54.1 69.8 52.9 76.8 55.4 80.3 61.4 81.9 64.1 82.7 67.3 82.4 70.5 82 74.1 79.9 77 77.3 79.4 71.8 84.7 63.8 87.5 56.4 84.8z"/>
</svg>
