<svg xmlns="http://www.w3.org/2000/svg" width="75" height="69" viewBox="0 0 75 69">
  <g fill="none">
    <path fill="#DDDDDD" d="M39.9,63.7 C40,63.8 40,64.2 40.1,64.7 C40.3,65.3 40.6,65.9 41,66.3 C42.2,67.8 43.9,68.5 45.9,68.6 C47.4,68.2 51.6,63.9 53.7,60.9 C56.9,56.5 58.6,51.2 58.2,45.7 C57.8,39.8 55,35.8 51.8,31.1 C51,29.9 48.8,30.6 49.4,32.1 C52,39 51.5,48.6 47.1,54.7 C45.3,57.3 43.7,59.3 41.2,61.2 C40.7,61.9 40.1,62.9 39.9,63.7 Z"/>
    <path fill="#DDDDDD" d="M50.2 35C46.6 33.6 42.8 36.9 39.8 38.6 38.5 39.4 36.8 40.2 35.2 41.2 33.7 40.4 31.8 40.5 30.2 41.8 29.4 42.4 29 43.4 28.5 44.2 28.5 44.3 28.5 44.3 28.4 44.3 28.3 44.4 28.2 44.5 28.1 44.6 27.9 44.7 27.7 44.8 27.5 44.9 27.4 44.9 26.8 45 26.8 45 25.6 45.4 24.5 46.1 24.1 47.4 23.8 48.6 24.1 49.9 25 50.7 27.2 52.8 30.5 52.9 33.1 51.5 35 50.4 37 48.2 37.4 45.9 39.3 45 41 44 42.6 43.2 45.7 41.7 50.4 40.6 51.3 36.8 51.6 36.1 51 35.3 50.2 35zM67.2 13.3C66.1 15.6 65.4 18.5 63 19.7 60.3 21.1 57.7 19.2 55 19.5 51.1 19.9 47.3 24.8 46.6 28.4 46.4 29.2 47 30.3 48 30.2 51.1 30 52.9 27.5 55.6 27.1 58.4 26.7 61.2 28.5 64.3 27.8 69.8 26.6 73 21.4 74.5 16.3 75.6 12.2 69.2 9.3 67.2 13.3z"/>
    <path fill="#DDDDDD" d="M58.7,3.7 C57.3,5.8 56.1,8.7 55.7,11.2 C55.2,14 56.1,16 56.8,18.7 C57,19.5 58.2,19.2 58.1,18.3 C57.6,15 62.2,10.1 64.6,8.2 C68.5,5.1 61.9,-1.2 58.7,3.7 Z"/>
    <path fill="#494949" d="M27.3,51 C25.6,51 24,50.3 22.8,49.1 C21.6,47.9 20.9,46.3 20.9,44.5 C20.9,41.4 23,38.8 26,38.2 C26.3,38.1 26.5,38.1 26.8,38.1 C28.6,38 30.4,38.7 31.8,40 C33.2,41.3 33.9,43.2 33.8,45 C33.6,48.7 30.3,51 27.3,51 Z M26.6,41.2 C25.1,41.5 24,42.9 24,44.6 C24,45.8 24.5,46.6 25,47 C25.6,47.6 26.5,48 27.4,48 C28.8,48 30.7,46.9 30.8,44.9 C30.8,43.9 30.4,42.9 29.7,42.2 C29,41.5 28,41.1 27,41.1 C26.8,41.1 26.7,41.1 26.6,41.2 Z"/>
    <path fill="#494949" d="M19.1,58 C18.8,58 18.5,57.9 18.3,57.7 C14,54.8 11.4,49.9 11.4,44.5 C11.4,36.9 16.5,30.5 23.5,29.2 C24.3,29 25.2,29 26,28.9 C30.4,28.8 34.5,30.3 37.5,33.1 C40.4,35.8 42,39.7 42.1,43.9 C42.2,48.2 40.5,52.5 37.5,55.5 C36.9,56.1 36,56.1 35.4,55.5 C34.8,54.9 34.8,54 35.4,53.4 C37.9,50.9 39.2,47.5 39.2,43.9 C39.1,40.5 37.8,37.4 35.5,35.2 C33.1,32.9 29.8,31.7 26.2,31.8 C25.5,31.8 24.8,31.9 24.2,32 C18.6,33 14.6,38.2 14.6,44.3 C14.6,48.7 16.7,52.7 20.1,55 C20.8,55.5 21,56.4 20.5,57.1 C20,57.8 19.5,58 19.1,58 Z"/>
    <path fill="#494949" d="M13,68.4 C12.7,68.4 12.4,68.3 12.2,68.1 C4.8,63.1 0.3,54.6 0.4,45.3 C0.4,32.3 9.2,21.2 21.1,19.1 C22.5,18.8 24,18.7 25.4,18.7 C33.1,18.5 40.1,21.1 45.2,26 C50.1,30.7 52.9,37.3 53.1,44.5 C53.3,52 50.4,59.3 45.1,64.5 C44.5,65.1 43.6,65.1 43,64.5 C42.4,63.9 42.4,63 43,62.4 C47.7,57.6 50.2,51.3 50.1,44.5 C50,38.1 47.5,32.2 43.2,28.1 C38.7,23.8 32.4,21.5 25.6,21.7 C24.3,21.7 23,21.9 21.8,22.1 C11.3,24 3.6,33.8 3.5,45.4 C3.5,53.7 7.4,61.2 14,65.7 C14.7,66.2 14.9,67.1 14.4,67.8 C14,68.2 13.5,68.4 13,68.4 Z"/>
    <path fill="#494949" d="M27.5,46.1 C27.1,46.1 26.7,45.9 26.4,45.6 C25.8,45 25.9,44 26.5,43.5 L65.8,6.6 C66.4,6 67.4,6.1 67.9,6.7 C68.5,7.3 68.4,8.3 67.8,8.8 L28.5,45.7 C28.2,46 27.9,46.1 27.5,46.1 Z"/>
    <path fill="#494949" d="M62.1,22.4 C62,22.4 61.9,22.4 61.9,22.4 C59.9,22.1 58,21.9 55.9,21.7 C55.1,21.6 54.3,21.5 53.4,21.4 C53,21.4 52.6,21.2 52.4,20.8 C52.2,20.5 52,20.1 52.1,19.7 C52.3,18.4 52.4,17 52.6,15.7 C52.9,13.2 53.2,10.6 53.6,8 C53.7,7.6 53.9,7.2 54.2,7 L62.9,0.7 C63.3,0.4 63.9,0.3 64.4,0.5 C64.9,0.7 65.2,1.2 65.3,1.7 C65.5,3.4 65.8,5 66.4,6.6 C68.2,7.3 70.2,7.4 72.2,7.5 L72.6,7.5 C73.2,7.5 73.7,7.9 73.9,8.4 C74.1,8.9 74,9.6 73.6,10 C70.2,13.6 67.1,17.3 63.4,21.8 C63,22.2 62.6,22.4 62.1,22.4 Z M55.2,18.6 C55.5,18.6 55.8,18.7 56.1,18.7 C57.9,18.9 59.7,19.1 61.5,19.3 C64.2,16 66.7,13.1 69.2,10.3 C67.6,10.1 65.9,9.8 64.4,9.1 C64,8.9 63.8,8.6 63.6,8.2 C63.2,7 62.8,5.8 62.6,4.5 L56.4,9 C56.1,11.4 55.8,13.7 55.5,16 C55.4,16.9 55.3,17.7 55.2,18.6 Z"/>
  </g>
</svg>
