<svg xmlns="http://www.w3.org/2000/svg" width="66" height="58" viewBox="0 0 66 58">
  <g fill="none">
    <path fill="#DDDDDD" d="M61.7,43 C61.7,38.3 58.6,33.6 53.9,32.3 C55.1,28.8 55,25 56.7,21.6 C57.3,20.4 56.1,19.4 55,19.9 C53.1,20.7 51.9,22.6 51,24.3 C49.9,26.4 48.5,29 48.1,31.4 C47.9,32.8 48.3,34.2 49.8,34.8 C50.5,35.1 51.2,35.1 51.9,34.8 C52,35 52.2,35.2 52.4,35.4 C53.8,36.3 54.8,37.3 55.5,38.4 C52.3,36.2 45.5,38 42.1,38.3 C36,38.7 29.7,38.7 23.7,40.2 C22.2,40.6 22.1,43 23.7,43.3 C28.2,44.1 32.8,44.1 37.3,44.1 L39.9,44.1 C39.1,45.8 39.7,48.3 41.9,49 C46,50.3 50.4,49.4 53.9,47 C54.5,46.5 55.2,46 55.7,45.3 L55.4,46.2 C55.2,46.7 55.2,47.2 55.3,47.6 C50.8,51.8 41.5,50.8 36,51.1 C28.2,51.5 20.4,52.2 12.7,53.4 C10.4,53.8 11.1,57.1 13.2,57.3 C24.2,58 35.4,57.7 46.5,57.1 C53.2,56.7 62.2,54.4 63.3,46.4 C63.7,44.9 62.8,43.6 61.7,43 L61.7,43 Z M54.1,6.4 C44.4,6.3 34.5,6.4 24.9,8.3 C23.8,8.5 23.6,9.5 23.9,10.3 C22.6,12.2 23.4,15.7 26.5,15.9 C33.2,16.3 39.9,16 46.5,15.3 C50.5,14.9 54.4,14.8 56.8,11.1 C58.2,9.1 56.4,6.4 54.1,6.4 L54.1,6.4 Z"/>
    <path fill="#DDDDDD" d="M44,24.7 C32.3,24.7 20.4,26 9,28.2 C7,28.6 7.5,31.8 9.5,31.7 C21,31.3 32.5,31.2 44.1,31.1 C48.2,31 48.2,24.7 44,24.7 Z"/>
    <path fill="#494949" d="M51.7,37 C48.6,37 47.4,32.3 47.4,29.4 C47.4,24.5 49.6,21.8 51,20 C51.5,19.4 51.8,19 52,18.6 C52.4,17.9 53.3,17.6 54,17.9 C54.7,18.3 55,19.2 54.7,19.9 C54.4,20.6 53.8,21.2 53.3,21.9 C52,23.5 50.3,25.5 50.3,29.4 C50.3,31.8 51.2,33.8 51.6,34 C52.4,34 53.1,34.7 53.1,35.5 C53.1,36.3 52.5,37 51.7,37 L51.7,37 Z"/>
    <path fill="#494949" d="M10.5,53.8 C9.8,53.8 9.1,53.3 9,52.5 C8.9,51.7 9.4,50.9 10.2,50.8 C18.9,49.4 27.5,49.4 35.2,49.4 C44.6,49.4 52.7,49.4 55.6,46.6 C56.4,45.8 56.8,44.8 56.8,43.4 C56.8,38.1 51,35.5 39,35.5 C31.8,35.5 23.3,36.9 17.2,38 C13.5,38.6 10.5,39.1 8.9,39.1 C3.7,39.1 -2.84217094e-14,36.1 -2.84217094e-14,31.8 C-2.84217094e-14,19.5 16.9,19.2 33.3,18.9 C50.3,18.6 62.4,17.8 62.4,9.9 C62.4,5.8 56.4,3 52.4,3 L52.3,3 C39.3,3.2 24.6,3.4 10.3,5.7 C9.5,5.8 8.7,5.3 8.6,4.5 C8.5,3.7 9,2.9 9.8,2.8 C24.3,0.5 39.1,0.3 52.2,0.1 L52.3,0.1 C60.7,0.1 65.3,5.9 65.3,10 C65.3,21.4 49,21.7 33.3,22 C15.5,22.3 2.9,23.2 2.9,31.9 C2.9,35.1 6.1,36.2 8.8,36.2 C10.2,36.2 13.1,35.7 16.6,35.1 C22.9,34 31.4,32.6 38.9,32.6 C44,32.6 59.7,32.6 59.7,43.5 C59.7,45.7 59,47.4 57.6,48.8 C53.9,52.5 45.6,52.5 35.1,52.5 C27.6,52.5 19.1,52.5 10.6,53.8 L10.5,53.8 L10.5,53.8 Z"/>
    <path fill="#494949" d="M21,21.2 C20.4,21.2 19.9,20.9 19.6,20.3 C19.3,19.5 19.6,18.7 20.4,18.3 C21.6,17.8 23.6,14.9 23.6,12.6 C23.6,9.4 20.9,6.1 17.5,5.1 C16.7,4.9 16.2,4 16.5,3.2 C16.7,2.4 17.6,1.9 18.4,2.2 C23.1,3.6 26.7,8.1 26.7,12.6 C26.7,16.2 24,20.1 21.7,21.1 C21.4,21.2 21.2,21.2 21,21.2 L21,21.2 Z M18.3,52.6 C18,52.6 17.7,52.5 17.4,52.3 C16.7,51.8 16.6,50.9 17,50.2 C17.7,49.1 18.1,48 18.1,46.6 C18.1,43.8 16.4,40.8 13.8,38.9 C13.1,38.4 13,37.5 13.5,36.8 C14,36.1 14.9,36 15.6,36.5 C18.9,38.9 21.1,42.9 21.1,46.6 C21.1,48.5 20.5,50.3 19.4,51.9 C19.2,52.4 18.7,52.6 18.3,52.6 L18.3,52.6 Z M29.5,46 C28.7,46 28,45.4 28,44.6 C28,43.8 28.6,43.1 29.4,43 C30.1,43 30.7,42.9 31.4,42.9 C35.2,42.7 39,42.6 42.7,41.5 C43.5,41.3 44.3,41.7 44.6,42.5 C44.8,43.3 44.4,44.1 43.6,44.4 C39.6,45.6 35.5,45.8 31.6,45.9 C30.9,45.9 30.2,45.9 29.5,46 L29.5,46 Z M10.7,31 L9.4,31 C8.6,31 7.9,30.3 7.9,29.5 C7.9,28.7 8.6,28 9.4,28.1 C16.1,28.3 22.5,26.7 28.6,25 C29.4,24.8 30.2,25.2 30.4,26 C30.6,26.8 30.2,27.6 29.4,27.8 C23.6,29.5 17.3,31 10.7,31 Z M43.7,12.3 L35.9,12.3 C35.1,12.3 34.4,11.6 34.4,10.8 C34.4,10 35.1,9.3 35.9,9.3 L43.7,9.3 C47.1,9.3 51.2,9.2 55.2,8.8 C56,8.7 56.8,9.3 56.8,10.1 C56.9,10.9 56.3,11.7 55.5,11.7 C51.3,12.2 47.2,12.3 43.7,12.3 L43.7,12.3 Z"/>
  </g>
</svg>
