<svg xmlns="http://www.w3.org/2000/svg" width="39" height="39" viewBox="0 0 39 39">
  <path fill="#C0C0C0" fill-rule="evenodd" d="M20.575,-6.77626358e-21 C31.3338952,0.0446911815 40.0236886,8.79482889 39.9939254,19.5537758 C39.9641622,30.3127227 31.2260899,39.0146484 20.4671121,38.9998132 C9.70813426,38.984978 0.994092821,30.2589881 0.994,19.5 C1.01662027,8.70818515 9.7831841,-0.0221143644 20.575,-6.77626358e-21 Z M14.265,9.58 C15.5211794,9.58386821 16.5364828,10.6051421 16.5329857,11.8613226 C16.5294886,13.1175031 15.5085147,14.1331082 14.2523332,14.1299822 C12.9961518,14.1268562 11.9802451,13.1061823 11.983,11.85 C11.9874109,10.593458 13.0084522,9.57778585 14.265,9.58 L14.265,9.58 Z M12.348,15.77 L12.348,28.05 L16.182,28.05 L16.182,15.77 L12.348,15.77 Z M18.556,15.77 L18.556,28.05 L22.39,28.05 L22.39,21.86 C22.39,21.86 22.36,18.98 24.125,18.86 C25.89,18.74 26.681,19.47 26.681,21.14 L26.681,28.05 L30.516,28.05 L30.516,21.14 C30.516,21.14 30.816,17.21 28.872,16.13 C27.743,15.51 24.095,14.64 22.299,17.41 L22.299,15.77 L18.556,15.77 L18.556,15.77 Z" transform="translate(-1)"/>
</svg>
