<svg xmlns="http://www.w3.org/2000/svg" width="71" height="87" viewBox="0 0 71 87">
    <path d="M69.9 75.8C68 71.7 63.9 68.6 60.8 65.5 58.2 63 54.7 58.1 50.6 59.1 47.5 59.9 47 63.5 44.1 64.4 41 65.4 37.8 63.9 35.3 62.1 32.5 60 29.8 57.4 27.4 54.8 25.6 52.9 22.1 48.9 24 46.1 24.7 45.1 26.1 45.1 27.2 44.9 28.4 44.7 29.6 44.5 30.6 43.8 33.6 41.8 32.6 38.2 30.5 36 27.8 33.2 24.6 30.6 21.7 28 18.8 25.5 15.8 22.4 12.5 20.5 11.6 20 10.7 20.2 10.2 20.7 9.4 20.3 8.3 20.3 7.4 21.1 1.3 26.3-.6 34.8.7 42.4 2 50.3 6.6 57.2 11.4 63.4 16.2 69.5 21.6 75.2 28.1 79.5 34.6 83.9 42.4 86.7 50.3 86.7 57 86.7 66.6 84.6 70 78.1 70.2 77.7 70.2 77.3 70.1 76.9 70.2 76.6 70.2 76.2 69.9 75.8zM46.8 82.1C32.6 80.4 21.8 69.8 13.7 58.8 9.8 53.5 6 47.4 5.2 40.7 4.5 34.8 6.1 28.7 10.7 24.8 12.1 26.1 13.7 27.3 15.2 28.5 16.9 29.9 18.6 31.4 20.3 32.9 22 34.4 23.7 35.9 25.3 37.4 26.1 38.1 26.9 39 27.7 39.7 27.9 39.8 27.9 40 27.9 40.1 27.8 40.1 27.7 40.2 27.6 40.2 24.9 41.1 22.4 40.6 20.4 43.1 18.3 45.7 18.4 49.1 19.7 52.1 21.1 55.4 23.7 58.1 26.2 60.5 28.7 62.9 31.4 65.5 34.4 67.3 37.1 68.9 40.2 69.8 43.4 69.4 46.6 69 48.9 67.4 50.8 64.9 51.4 64.1 51.5 63.8 52.4 64.4 53.1 64.9 53.8 65.6 54.4 66.2 55.8 67.5 57.2 68.9 58.5 70.2 60.9 72.5 63.2 75.2 66.1 76.9 63.5 78.7 61 80.3 57.9 81.2 54.4 82.3 50.6 82.5 46.8 82.1zM34.6 26.5C35.9 26.5 36.7 25.5 36.8 24.3 37.6 17.5 28.8 12.4 22.8 13.9 20 14.6 21.2 18.9 24 18.2 27.4 17.4 32.9 20.5 32.4 24.3 32.2 25.4 33.5 26.5 34.6 26.5z"/>
    <path d="M17.5,5.5 C24,4.7 30.8,6.2 36.1,10.2 C41.9,14.6 44.3,21.4 43.9,28.5 C43.7,31.4 48.2,31.3 48.3,28.5 C48.8,20.2 45.7,12.2 39.1,7 C33,2.2 25,0.2 17.4,1.1 C16.2,1.2 15.2,2 15.2,3.3 C15.3,4.3 16.3,5.6 17.5,5.5 Z"/>
</svg>
