<svg xmlns="http://www.w3.org/2000/svg" width="21" height="21" viewBox="0 0 21 21">
  <path fill="#EC443B" fill-rule="evenodd" d="M10.5,0 C16.2989899,0 21,4.70101013 21,10.5 C21,16.2989899 16.2989899,21 10.5,21 C4.70101013,21 0,16.2989899 0,10.5 C0,4.70101013 4.70101013,0 10.5,0 Z M14.4805701,4.1423286 L4.379,14.24 C4.29412474,14.3203189 4.22002423,14.409151 4.15731431,14.5043555 C3.4243052,13.3457396 3,11.9724207 3,10.5 C3,6.35786438 6.35786438,3 10.5,3 L10.5,3 C11.9623576,3 13.3269634,3.41852529 14.4805701,4.1423286 Z M16.6532002,6.2107184 C17.502082,7.42621453 18,8.90495978 18,10.5 C18,14.6421356 14.6421356,18 10.5,18 C8.886495,18 7.39199311,17.4904871 6.16861137,16.6235785 C6.28932976,16.5528257 6.40112563,16.4645821 6.5,16.36 L16.6532002,6.2107184 Z"/>
</svg>
