<svg xmlns="http://www.w3.org/2000/svg" width="4.969" height="9" viewBox="0 0 4.969 9">
  <defs>
    <style>
      .cls-1 {
        fill: #fff;
        fill-rule: evenodd;
      }
    </style>
  </defs>
  <path id="icon-arrow.svg" class="cls-1" d="M957.184,1344.23a0.788,0.788,0,0,1,1.035-.07l3.572,3.78a0.8,0.8,0,0,1-.071,1.02,0.7,0.7,0,0,1-.964.07l-3.572-3.78A0.8,0.8,0,0,1,957.184,1344.23Zm0,8.57a0.88,0.88,0,0,1,0-1.08l3.572-3.78a0.784,0.784,0,0,1,1.035,0,0.8,0.8,0,0,1,0,1.02l-3.572,3.84A0.762,0.762,0,0,1,957.184,1352.8Z" transform="translate(-957 -1344)"/>
</svg>
