<svg xmlns="http://www.w3.org/2000/svg" width="36" height="33" viewBox="0 0 36 33">
  <path fill="#FFFFFF" fill-rule="evenodd" d="M15.3652022,20.0850488 C15.5720428,23.4432566 15.9068988,26.8222742 16.449,30.068 C16.7282402,31.7229781 18.1616296,32.9344479 19.84,32.934 L19.84,32.934 C20.032353,32.9344205 20.2243884,32.9183618 20.414,32.886 C21.3127398,32.7389196 22.1160553,32.2403626 22.6467694,31.5002894 C23.1774835,30.7602162 23.391998,29.8394239 23.243,28.941 C22.7503924,25.9976046 22.4406501,22.8939437 22.24589,19.7811812 C23.045484,19.759066 23.8496434,19.739099 24.659,19.719 C27.037,19.66 29.413,19.6 31.788,19.481 C33.679023,19.3857309 35.1347691,17.775523 35.0395,15.8845 C34.9442309,13.993477 33.334023,12.5377309 31.443,12.633 C29.126,12.748 26.806,12.806 24.488,12.863 C23.6536235,12.8837685 22.8159015,12.9046196 21.9751327,12.9282317 C21.916,10.0213682 21.916,7.20806486 21.916,4.62 L21.916,3.433 C21.8839845,1.5546313 20.3521415,0.0486749521 18.4735,0.0486749521 C16.5948585,0.0486749521 15.0630155,1.5546313 15.031,3.433 L15.031,4.62 C15.031,7.29989297 15.031,10.2119969 15.0942634,13.2332648 C10.9740111,13.5133475 6.80177632,14.0256983 2.611,15.07 C0.928215349,15.487761 -0.177675533,17.0962557 0.0347814131,18.817055 C0.247238359,20.5378544 1.71113962,21.8290721 3.445,21.825 L3.445,21.825 C3.72764688,21.8245332 4.00913923,21.7889268 4.283,21.719 C7.96080786,20.8045061 11.6316354,20.3437309 15.3652022,20.0850488 Z"/>
</svg>
