<?xml version="1.0" encoding="utf-8"?>
<!-- Generator: Adobe Illustrator 19.2.0, SVG Export Plug-In . SVG Version: 6.00 Build 0)  -->
<svg version="1.1" id="Izolovaný_režim" xmlns="http://www.w3.org/2000/svg" xmlns:xlink="http://www.w3.org/1999/xlink" x="0px"
	 y="0px" viewBox="0 0 3515 2522.8" style="enable-background:new 0 0 3515 2522.8;" xml:space="preserve">
<g>
	<g>
		<path d="M1943.4,877.1c5.1,72.4,7.1,145,5.7,217.6c-0.4,20.5-1,40.9-1.9,61.3c-0.4,9.7,14.6,9.6,15,0
			c3.2-72.5,3.2-145.2-0.1-217.7c-0.9-20.4-2.1-40.9-3.6-61.3C1957.7,867.5,1942.7,867.4,1943.4,877.1L1943.4,877.1z"/>
	</g>
</g>
<g>
	<g>
		<path d="M1957,1162.5c9.4-0.4,19.1-1.2,28.5-0.2c4.9,0.5,9.7,0.8,14.7,0.8c13.8-0.2,27.6-1.1,41.4-1.8c12.2-0.6,24.3,0.7,36.4,2.3
			c4,0.5,7.5-3.8,7.5-7.5c0-4.5-3.5-7-7.5-7.5c-12.1-1.6-24.2-2.8-36.4-2.3c-13.8,0.7-27.6,1.6-41.4,1.8c-5,0.1-9.8-0.3-14.7-0.8
			c-9.4-0.9-19.1-0.1-28.5,0.2C1947.4,1147.9,1947.3,1162.9,1957,1162.5L1957,1162.5z"/>
	</g>
</g>
<g>
	<g>
		<path d="M1955.3,881.7c13.6-5.7,28-5.3,42.5-4.1c15.9,1.3,31.7,2.8,47.6,3.8c32.4,2,64.8,2.7,97.2,2.3c9.6-0.1,9.7-15.1,0-15
			c-33.1,0.4-66.2-0.4-99.2-2.5c-16.1-1-32.2-2.6-48.3-3.8c-14.7-1.1-29.9-0.9-43.8,4.8c-3.7,1.6-6.4,5-5.2,9.2
			C1947.1,880,1951.5,883.3,1955.3,881.7L1955.3,881.7z"/>
	</g>
</g>
<g>
	<g>
		<path d="M2140.1,884.6c13.7,8.7,25.1,20.2,33.8,33.9c5.1,8.1,18.1,0.6,13-7.6c-10-15.9-23.3-29.2-39.2-39.3
			C2139.6,866.4,2132,879.4,2140.1,884.6L2140.1,884.6z"/>
	</g>
</g>
<g>
	<g>
		<path d="M2174.2,920c-1.7,28.6-0.9,57.4-1.7,86c-0.3,9.7,14.7,9.6,15,0c0.8-28.7,0-57.4,1.7-86
			C2189.7,910.3,2174.7,910.4,2174.2,920L2174.2,920z"/>
	</g>
</g>
<g>
	<g>
		<path d="M2127.7,877.9c-1.3,16.7-1.7,33.3-1.2,50c0.1,3.7,3.4,8,7.5,7.5c15.3-1.8,30-0.4,45,2.8c9.4,2,13.4-12.4,4-14.5
			c-16.2-3.5-32.4-5.3-49-3.3c2.5,2.5,5,5,7.5,7.5c-0.5-16.7-0.1-33.4,1.2-50C2143.5,868.3,2128.5,868.3,2127.7,877.9L2127.7,877.9z
			"/>
	</g>
</g>
<g>
	<g>
		<path d="M1995,954.5c34.7-0.7,69.3-1.1,104-1.8c9.6-0.2,9.7-15.2,0-15c-34.7,0.7-69.3,1.1-104,1.8
			C1985.4,939.7,1985.3,954.7,1995,954.5L1995,954.5z"/>
	</g>
</g>
<g>
	<g>
		<path d="M1996,1007.2c23-4.3,47,0.5,70.3,0.1c24.6-0.4,49.1-2.8,73.7-1.8c9.7,0.4,9.6-14.6,0-15c-25.3-1-50.4,1.6-75.6,1.9
			c-24.2,0.3-48.4-4.1-72.3,0.4C1982.5,994.6,1986.5,1009,1996,1007.2L1996,1007.2z"/>
	</g>
</g>
<g>
	<g>
		<path d="M1994,1056.5c8.2-0.4,16.3,0.4,24.5-0.1c9.2-0.6,18.2-1.4,27.4-1.1c9.4,0.3,18.8,1.1,28.1,1.2c9.7,0.1,9.7-14.9,0-15
			c-9.1-0.1-18.2-0.9-27.3-1.2c-9.5-0.3-18.7,0.5-28.2,1.1c-8.2,0.5-16.3-0.3-24.5,0.1C1984.4,1042,1984.3,1057,1994,1056.5
			L1994,1056.5z"/>
	</g>
</g>
<g>
	<g>
		<path d="M1994,1103.5c8.7-0.8,17.2-0.5,25.9-0.8c13.4-0.5,26.7-1.5,40.1-0.2c9.6,0.9,9.5-14.1,0-15c-13.4-1.3-26.7-0.2-40.1,0.2
			c-8.7,0.3-17.2-0.1-25.9,0.8C1984.5,1089.4,1984.4,1104.4,1994,1103.5L1994,1103.5z"/>
	</g>
</g>
<g>
	<g>
		<path d="M2090.8,1077c-4.1,14.2-5.6,29.8-1.9,44.3c3.7,14.9,14,27,27.2,34.7c28.6,16.6,63.9,10,89.3-9.4
			c12.3-9.4,23.6-21.4,28-36.6c3.8-13.2,2.4-27.7-2.8-40.3c-11.4-27.7-38.8-43.8-68.5-42c-33.3,2-71.9,25.9-73.5,62.4
			c-0.4,9.7,14.6,9.6,15,0c1.1-25.5,28.9-42.5,51.5-46.6c22.7-4.1,46.3,4.4,58.2,24.8c5.4,9.2,8.1,20,7,30.7
			c-1.3,12.1-8.4,21.9-17.1,30c-18.9,17.6-45.9,27.1-71,18.1c-12.5-4.5-23.9-14-28-26.9c-4-12.7-2.5-26.5,1.1-39.1
			C2107.9,1071.7,2093.4,1067.7,2090.8,1077L2090.8,1077z"/>
	</g>
</g>
<g>
	<g>
		<path d="M2195.9,1139.1c-1.1,6.1,1.5,10.1,5.9,14.2c4.9,4.5,9.9,9,15,13.4c9.8,8.6,19.9,16.9,30.1,25c3.5,2.8,7.1,2.8,10.6,0
			c4.6-3.6,5.3-10.4,2.9-15.4c-2.7-5.7-8.5-9.7-13-13.8c-10.8-9.8-21.6-19.7-32.4-29.5c-7.1-6.5-17.8,4.1-10.6,10.6
			c7.9,7.2,15.7,14.3,23.6,21.5c3.9,3.6,7.9,7.2,11.8,10.7c1.8,1.7,3.8,3.2,5.5,5c2.3,2.4,0.6,1.1,1.6,0.3c3.5,0,7.1,0,10.6,0
			c-8.5-6.7-16.9-13.6-25.1-20.6c-3.9-3.3-7.7-6.7-11.5-10c-2.1-1.9-4.3-3.8-6.4-5.7c-1.2-1.1-4-3-4.3-4.3c0,1.3,0,2.7,0,4
			c0.1-0.4,0.1-0.8,0.2-1.2C2212,1133.7,2197.6,1129.6,2195.9,1139.1L2195.9,1139.1z"/>
	</g>
</g>
</svg>
