<?xml version="1.0" encoding="utf-8"?>
<!-- Generator: Adobe Illustrator 19.2.0, SVG Export Plug-In . SVG Version: 6.00 Build 0)  -->
<svg version="1.1" id="Izolovaný_režim" xmlns="http://www.w3.org/2000/svg" xmlns:xlink="http://www.w3.org/1999/xlink" x="0px"
	 y="0px" viewBox="0 0 1070 1150" style="enable-background:new 0 0 1070 1150;" xml:space="preserve">
<style type="text/css">
	.st0{fill:#DDDDDD;}
	.st1{fill:#494949;}
</style>
<g>
	<path class="st0" d="M484.9,828.7c0.1,0.1,0.1,0.5,0.2,1c0.2,0.6,0.5,1.2,0.9,1.6c1.2,1.5,2.9,2.2,4.9,2.3c1.5-0.4,5.7-4.7,7.8-7.7
		c3.2-4.4,4.9-9.7,4.5-15.2c-0.4-5.9-3.2-9.9-6.4-14.6c-0.8-1.2-3-0.5-2.4,1c2.6,6.9,2.1,16.5-2.3,22.6c-1.8,2.6-3.4,4.6-5.9,6.5
		C485.7,826.9,485.1,827.9,484.9,828.7z"/>
</g>
<g>
	<path class="st0" d="M495.2,800c-3.6-1.4-7.4,1.9-10.4,3.6c-1.3,0.8-3,1.6-4.6,2.6c-1.5-0.8-3.4-0.7-5,0.6
		c-0.8,0.6-1.2,1.6-1.7,2.4c0,0.1,0,0.1-0.1,0.1c-0.1,0.1-0.2,0.2-0.3,0.3c-0.2,0.1-0.4,0.2-0.6,0.3c-0.1,0-0.7,0.1-0.7,0.1
		c-1.2,0.4-2.3,1.1-2.7,2.4c-0.3,1.2,0,2.5,0.9,3.3c2.2,2.1,5.5,2.2,8.1,0.8c1.9-1.1,3.9-3.3,4.3-5.6c1.9-0.9,3.6-1.9,5.2-2.7
		c3.1-1.5,7.8-2.6,8.7-6.4C496.6,801.1,496,800.3,495.2,800z"/>
</g>
<g>
	<path class="st0" d="M512.2,778.3c-1.1,2.3-1.8,5.2-4.2,6.4c-2.7,1.4-5.3-0.5-8-0.2c-3.9,0.4-7.7,5.3-8.4,8.9
		c-0.2,0.8,0.4,1.9,1.4,1.8c3.1-0.2,4.9-2.7,7.6-3.1c2.8-0.4,5.6,1.4,8.7,0.7c5.5-1.2,8.7-6.4,10.2-11.5
		C520.6,777.2,514.2,774.3,512.2,778.3z"/>
</g>
<g>
	<path class="st0" d="M503.7,768.7c-1.4,2.1-2.6,5-3,7.5c-0.5,2.8,0.4,4.8,1.1,7.5c0.2,0.8,1.4,0.5,1.3-0.4
		c-0.5-3.3,4.1-8.2,6.5-10.1C513.5,770.1,506.9,763.8,503.7,768.7z"/>
</g>
<g>
	<path class="st1" d="M472.3,816c-1.7,0-3.3-0.7-4.5-1.9c-1.2-1.2-1.9-2.8-1.9-4.6c0-3.1,2.1-5.7,5.1-6.3c0.3-0.1,0.5-0.1,0.8-0.1
		c1.8-0.1,3.6,0.6,5,1.9c1.4,1.3,2.1,3.2,2,5C478.6,813.7,475.3,816,472.3,816z M471.6,806.2c-1.5,0.3-2.6,1.7-2.6,3.4
		c0,1.2,0.5,2,1,2.4c0.6,0.6,1.5,1,2.4,1c1.4,0,3.3-1.1,3.4-3.1c0-1-0.4-2-1.1-2.7c-0.7-0.7-1.7-1.1-2.7-1.1
		C471.8,806.1,471.7,806.1,471.6,806.2z"/>
</g>
<g>
	<path class="st1" d="M464.1,823c-0.3,0-0.6-0.1-0.8-0.3c-4.3-2.9-6.9-7.8-6.9-13.2c0-7.6,5.1-14,12.1-15.3c0.8-0.2,1.7-0.2,2.5-0.3
		c4.4-0.1,8.5,1.4,11.5,4.2c2.9,2.7,4.5,6.6,4.6,10.8c0.1,4.3-1.6,8.6-4.6,11.6c-0.6,0.6-1.5,0.6-2.1,0c-0.6-0.6-0.6-1.5,0-2.1
		c2.5-2.5,3.8-5.9,3.8-9.5c-0.1-3.4-1.4-6.5-3.7-8.7c-2.4-2.3-5.7-3.5-9.3-3.4c-0.7,0-1.4,0.1-2,0.2c-5.6,1-9.6,6.2-9.6,12.3
		c0,4.4,2.1,8.4,5.5,10.7c0.7,0.5,0.9,1.4,0.4,2.1C465,822.8,464.5,823,464.1,823z"/>
</g>
<g>
	<path class="st1" d="M458,833.4c-0.3,0-0.6-0.1-0.8-0.3c-7.4-5-11.9-13.5-11.8-22.8c0-13,8.8-24.1,20.7-26.2
		c1.4-0.3,2.9-0.4,4.3-0.4c7.7-0.2,14.7,2.4,19.8,7.3c4.9,4.7,7.7,11.3,7.9,18.5c0.2,7.5-2.7,14.8-8,20c-0.6,0.6-1.5,0.6-2.1,0
		c-0.6-0.6-0.6-1.5,0-2.1c4.7-4.8,7.2-11.1,7.1-17.9c-0.1-6.4-2.6-12.3-6.9-16.4c-4.5-4.3-10.8-6.6-17.6-6.4c-1.3,0-2.6,0.2-3.8,0.4
		c-10.5,1.9-18.2,11.7-18.3,23.3c0,8.3,3.9,15.8,10.5,20.3c0.7,0.5,0.9,1.4,0.4,2.1C459,833.2,458.5,833.4,458,833.4z"/>
</g>
<g>
	<path class="st1" d="M472.5,811.1c-0.4,0-0.8-0.2-1.1-0.5c-0.6-0.6-0.5-1.6,0.1-2.1l39.3-36.9c0.6-0.6,1.6-0.5,2.1,0.1
		c0.6,0.6,0.5,1.6-0.1,2.1l-39.3,36.9C473.2,811,472.9,811.1,472.5,811.1z"/>
</g>
<g>
	<path class="st1" d="M507.1,787.4c-0.1,0-0.2,0-0.2,0c-2-0.3-3.9-0.5-6-0.7c-0.8-0.1-1.6-0.2-2.5-0.3c-0.4,0-0.8-0.2-1-0.6
		c-0.2-0.3-0.4-0.7-0.3-1.1c0.2-1.3,0.3-2.7,0.5-4c0.3-2.5,0.6-5.1,1-7.7c0.1-0.4,0.3-0.8,0.6-1l8.7-6.3c0.4-0.3,1-0.4,1.5-0.2
		c0.5,0.2,0.8,0.7,0.9,1.2c0.2,1.7,0.5,3.3,1.1,4.9c1.8,0.7,3.8,0.8,5.8,0.9l0.4,0c0.6,0,1.1,0.4,1.3,0.9c0.2,0.5,0.1,1.2-0.3,1.6
		c-3.4,3.6-6.5,7.3-10.2,11.8C508,787.2,507.6,787.4,507.1,787.4z M500.2,783.6c0.3,0,0.6,0.1,0.9,0.1c1.8,0.2,3.6,0.4,5.4,0.6
		c2.7-3.3,5.2-6.2,7.7-9c-1.6-0.2-3.3-0.5-4.8-1.2c-0.4-0.2-0.6-0.5-0.8-0.9c-0.4-1.2-0.8-2.4-1-3.7l-6.2,4.5
		c-0.3,2.4-0.6,4.7-0.9,7C500.4,781.9,500.3,782.7,500.2,783.6z"/>
</g>
</svg>
