<?xml version="1.0" encoding="utf-8"?>
<!-- Generator: Adobe Illustrator 19.2.0, SVG Export Plug-In . SVG Version: 6.00 Build 0)  -->
<svg version="1.1" id="Izolovaný_režim" xmlns="http://www.w3.org/2000/svg" xmlns:xlink="http://www.w3.org/1999/xlink" x="0px"
	 y="0px" viewBox="0 0 3515 2522.8" style="enable-background:new 0 0 3515 2522.8;" xml:space="preserve">
<style type="text/css">
	.st0{fill:#231F20;}
</style>
<g>
	<g>
		<path class="st0" d="M1697.4,1135c-12.2-5.5-21.8-16.7-31.3-25.8c-4.7-4.5-9.3-9.1-14-13.7c-2.1-2.1-4.2-4.6-6.7-6.2
			c-3.1-2.1-3.4-1-5.5,1.6c-6.5,8.5-14.1,14-25,15.4c-10.8,1.4-21.3-1.7-30.5-7.2c-10.3-6.1-19.1-14.8-27.7-23
			c-8.6-8.2-17.2-17.4-22.1-28.4c-4.3-9.9-4.7-21.5,2.2-30.3c6.8-8.5,15.2-7,24.4-9.9c0.2-0.1,1.2-0.2,1.3-0.4
			c-0.6,0.8-0.1-0.2-1.1-1.1c-2.8-2.4-5.3-5.3-8.1-7.9c-5.5-5.1-11.2-10.2-16.9-15.1c-5.7-5-11.4-9.9-17.2-14.8
			c-6-5-12.8-9.7-18-15.5c-5.3-6,1.3-15.3,8.7-11.2c11.4,6.3,21.3,16.7,31.1,25.2c10,8.7,20.7,17.3,29.9,26.9
			c7.2,7.5,10.5,19.8,0.3,26.5c-3.5,2.3-7.5,3-11.6,3.6c-3.7,0.6-8.4,0.6-10.8,4c-6.6,9.5,5.4,23,11.4,29.5
			c8.1,8.8,17.1,17.6,26.7,24.6c8.5,6.2,19.2,11.3,29.8,7.8c9.9-3.2,11.5-15.4,22-18.1c14.1-3.5,25.9,13,34.5,21.5
			c10.7,10.5,24.3,21.3,30.8,35C1706.6,1132.8,1702.1,1137.1,1697.4,1135L1697.4,1135z"/>
	</g>
	<g>
		<path class="st0" d="M1704.2,1136.1c-11.4,22.1-43.7,29.3-66.4,29.1c-26.7-0.2-52.9-9.7-75-24.4c-22-14.7-40.4-33.7-56.5-54.5
			c-16.3-20.9-31.7-44.2-36.2-70.9c-4.3-25.8,2-54.6,22.7-72c8.2-6.9,20.2,4.9,11.9,11.9c-15.8,13.3-21.5,34.2-19,54.3
			c2.8,22.6,15.5,43.1,28.7,61.1c27.3,37.1,63.9,72.9,111.7,78.8c12.7,1.6,25.7,0.8,38-2.8c12.5-3.7,22-10.8,32.6-18
			C1701.5,1125.3,1706.6,1131.6,1704.2,1136.1L1704.2,1136.1z"/>
	</g>
</g>
<g>
	<g>
		<path class="st0" d="M1549,933.2c11.6-2.9,29.9,7.6,28.4,20.8c-0.5,4.1,3.8,7.5,7.5,7.5c4.5,0,7-3.4,7.5-7.5
			c2.8-23.1-27.2-40.2-47.3-35.2C1535.6,921.1,1539.6,935.6,1549,933.2L1549,933.2z"/>
	</g>
</g>
<g>
	<g>
		<path class="st0" d="M1527,890.5c22.2-2.6,44.6,2.4,62.8,15.7c19.7,14.4,28,38.1,26.6,61.8c-0.6,9.7,14.4,9.6,15,0
			c1.7-27.7-8.7-54.7-30.6-72.2c-20.5-16.4-47.8-23.4-73.7-20.3c-4.1,0.5-7.5,3-7.5,7.5C1519.5,886.7,1522.9,891,1527,890.5
			L1527,890.5z"/>
	</g>
</g>
</svg>
