<?xml version="1.0" encoding="utf-8"?>
<!-- Generator: Adobe Illustrator 19.2.0, SVG Export Plug-In . SVG Version: 6.00 Build 0)  -->
<svg version="1.1" id="Izolovaný_režim" xmlns="http://www.w3.org/2000/svg" xmlns:xlink="http://www.w3.org/1999/xlink" x="0px"
	 y="0px" viewBox="0 0 1070 1150" style="enable-background:new 0 0 1070 1150;" xml:space="preserve">
<style type="text/css">
	.st0{fill:#DDDDDD;}
	.st1{fill:#494949;}
</style>
<g>
	<path class="st0" d="M703.7,860.6c-0.9-5.1-2.1-9.9-4.1-14.6c-0.6-1.4-2.9-1-3.2,0.4c-0.8,4.3-1.1,8.4-1,12.8
		c0.1,3.2-0.3,7,0.6,10.2c-3.8,3.5-6.3,7.5-11.8,9.2c-6.4,2-13.1,0.7-19.6,2.1c-1.3,0.3-1.6,2.3-0.4,2.9
		c12.1,5.8,32.2,2.5,37.6-11.3C705.7,869.4,704.5,865,703.7,860.6z"/>
</g>
<g>
	<path class="st1" d="M664.4,882c-0.8,0-1.4-0.6-1.5-1.4c-0.3-3.7-0.6-7.3-0.9-11c-0.8-10.6-1.7-21.5-2.1-32.3
		c0-0.8,0.5-1.5,1.3-1.5c10.2-1.2,20.7-1.9,30.8-2.5l3-0.2c0.4,0,0.8,0.1,1.1,0.4c0.3,0.3,0.5,0.6,0.5,1c0.5,10.4,1.2,21.7,2.2,34.4
		c0,0.4-0.1,0.8-0.4,1.1c-4.1,4.4-7,8-8.8,10.5c-0.3,0.4-0.7,0.6-1.2,0.6l-0.2,0C680.4,881.4,672.3,881.6,664.4,882
		C664.4,882,664.4,882,664.4,882z M662.9,838.6c0.4,10.3,1.2,20.7,2.1,30.8c0.3,3.2,0.5,6.4,0.8,9.6c7.3-0.4,14.6-0.6,21.8-0.8
		c1.8-2.5,4.6-5.8,8.2-9.7c-0.9-11.9-1.6-22.4-2.1-32.3l-1.5,0.1C682.6,836.9,672.6,837.6,662.9,838.6z"/>
</g>
<g>
	<path class="st1" d="M687.8,881.2c-0.8,0-1.4-0.6-1.5-1.3c-0.4-3.2-0.8-6.4-1.3-9.8c-0.1-0.4,0-0.8,0.3-1.1c0.3-0.3,0.6-0.5,1-0.6
		c3-0.3,6.1-0.7,9-1l1.7-0.2c0.8-0.1,1.6,0.5,1.7,1.3c0.1,0.8-0.5,1.6-1.3,1.7l-1.7,0.2c-2.5,0.3-5,0.6-7.5,0.9
		c0.4,2.8,0.7,5.6,1.1,8.3c0.1,0.8-0.5,1.6-1.3,1.7C687.9,881.2,687.8,881.2,687.8,881.2z"/>
</g>
<g>
	<path class="st1" d="M670.3,850.1c-0.8,0-1.5-0.7-1.5-1.5c0-0.8,0.7-1.5,1.5-1.5c4.1,0,8.1-0.6,12.3-1.2c1.5-0.2,2.9-0.4,4.4-0.6
		c0.8-0.1,1.6,0.5,1.7,1.3c0.1,0.8-0.5,1.6-1.3,1.7c-1.5,0.2-2.9,0.4-4.3,0.6C678.8,849.5,674.6,850.1,670.3,850.1z"/>
</g>
<g>
	<path class="st1" d="M671.1,858c-0.8,0-1.5-0.6-1.5-1.4c0-0.8,0.6-1.5,1.4-1.6c4.8-0.2,9.5-0.6,14.4-1.2l0.8-0.1
		c0.8-0.1,1.6,0.5,1.6,1.3c0.1,0.8-0.5,1.6-1.3,1.6l-0.8,0.1C680.8,857.4,676.1,857.9,671.1,858C671.2,858,671.2,858,671.1,858z"/>
</g>
<g>
	<path class="st1" d="M673.5,864.6c-0.5,0-1,0-1.5,0c-0.8,0-1.5-0.7-1.4-1.6c0-0.8,0.7-1.5,1.6-1.4c2.8,0.1,5.8-0.1,8.7-0.3
		c2.4-0.2,5-0.4,7.4-0.4c0.8,0,1.5,0.7,1.5,1.5c0,0.8-0.7,1.5-1.5,1.5c-2.4,0-4.8,0.2-7.2,0.4C678.5,864.4,676,864.6,673.5,864.6z"
		/>
</g>
</svg>
