<?xml version="1.0" encoding="utf-8"?>
<!-- Generator: Adobe Illustrator 19.2.0, SVG Export Plug-In . SVG Version: 6.00 Build 0)  -->
<svg version="1.1" id="Izolovaný_režim" xmlns="http://www.w3.org/2000/svg" xmlns:xlink="http://www.w3.org/1999/xlink" x="0px"
	 y="0px" viewBox="0 0 1070 1150" style="enable-background:new 0 0 1070 1150;" xml:space="preserve">
<style type="text/css">
	.st0{fill:#DDDDDD;}
	.st1{fill:#494949;}
</style>
<g>
	<path class="st0" d="M299.3,658.7c-5.4-1.8-12.7-0.1-18.4,0.1c-5.1,0.1-11.9-0.8-16.3,2.1c-0.5,0.3-0.7,1.1-0.2,1.5
		c4.2,3.4,11.4,3,16.5,3c5.9,0,13.7,1,19.1-1.8C302.1,662.5,301.3,659.4,299.3,658.7z"/>
</g>
<g>
	<path class="st0" d="M273,679.7c0-0.1-0.1-0.3-0.2-0.4c0-0.2,0.1-0.8,0.1-1c-0.1-1.6-0.2-3.2-0.4-4.7c-0.2-2.5-0.5-5-1.6-7.3
		c-0.3-0.7-1.4-0.6-1.7,0c-2.3,4.2-1.8,9.6-1.7,14.2C267.6,684.5,274,683.7,273,679.7z"/>
</g>
<g>
	<path class="st0" d="M284,673.6c-0.3-2.4-0.3-5.2-1.6-7.3c-0.6-0.9-1.8-0.8-2.4,0c-1.5,2.1-1.5,5.3-1.5,7.8c0,2.8-0.4,5.6,1.5,7.8
		c1,1.2,3.2,0.8,3.9-0.5C285.3,679,284.3,676.2,284,673.6z"/>
</g>
<g>
	<path class="st0" d="M292.5,673.2c-0.3-1.9-0.3-3.8-1.2-5.6c-0.6-1.2-2.2-1-2.8,0c-1.1,1.7-1.2,4-1.3,5.9c-0.2,2.3-0.4,4.4,1.1,6.3
		c1.1,1.3,3.5,0.9,4.2-0.5C293.6,677.2,292.9,675.4,292.5,673.2z"/>
</g>
<g>
	<path class="st0" d="M308.7,678.9c-0.8-0.6-1.8-1.3-2.9-1.5c0-0.2,0-0.4-0.1-0.6c0.7-2.1,0.1-5.5,0.1-7.7c0-2.4,0-4.4-0.6-6.6
		c-0.7-3.1-5.5-3.1-6.3,0c-0.8,3.5-0.5,7-0.5,10.5c0,2.3-0.4,5.4,0.4,7.6c0.7,2.1,1.9,2.4,3.6,3.3c1,0.5,2.7,0.6,2.5,2.3
		c-0.2,1.5-1.7,1-3.2,1.1c-6.8,0-13.7,0-20.5,0.2c-6.6,0.3-13.5,0.1-20,1.9c-1.4,0.4-1.4,2.4,0,2.8c8.4,2.4,17.9,2.1,26.5,2.3
		c4.4,0.1,8.7,0.2,13.1,0.2c2.8,0,6,0.1,8.4-1.6C314,689.7,312.7,682.3,308.7,678.9z"/>
</g>
<g>
	<path class="st1" d="M304.8,662.1c0,0-47-1.1-47-1.1c-0.8,0-1.5-0.7-1.5-1.5c0-1.4-0.1-2.8-0.1-4.2l0-0.9c0-0.6,0.3-1.1,0.8-1.4
		c3.7-2,7.5-3.8,11.2-5.6c2.7-1.3,5.4-2.6,8.2-4c0.8-0.4,1.5-0.8,2.3-1.2c0.4-0.2,0.9-0.2,1.3-0.1l25.2,10.1
		c0.6,0.2,0.9,0.8,0.9,1.4c0,1.1,0.1,2.3,0.1,3.4c0,1.1,0.1,2.2,0.1,3.4c0,0.4-0.2,0.8-0.4,1.1C305.6,662,305.2,662.1,304.8,662.1z
		 M259.4,658.1l43.9,1c0-0.6,0-1.1-0.1-1.7c0-0.8-0.1-1.7-0.1-2.5l-23.7-9.5c-0.6,0.3-1.1,0.6-1.7,0.9c-2.8,1.4-5.5,2.7-8.2,4
		c-3.4,1.6-6.9,3.3-10.3,5C259.3,656.2,259.3,657.1,259.4,658.1z"/>
</g>
<g>
	<path class="st1" d="M280.2,657c-2.1,0-4.4-1.4-4.6-3.8c-0.2-2.3,1.2-4.4,3.3-5.1c0.4-0.2,0.9-0.2,1.4-0.2c1.2,0,2.3,0.5,3.1,1.5
		c0.9,1,1.5,2.4,1.4,3.7c0,0,0,0.1,0,0.1C284.6,655.3,282.6,657,280.2,657z M280.3,650.8c-0.1,0-0.2,0-0.3,0.1
		c-0.9,0.3-1.4,1.1-1.3,2c0.1,0.8,1,1.1,1.6,1.1c0.7,0,1.6-0.4,1.6-1.1c0-0.6-0.2-1.1-0.6-1.6C281.1,651.1,280.7,650.8,280.3,650.8z
		"/>
</g>
<g>
	<path class="st1" d="M257.2,690.7c-0.4,0-0.8-0.2-1.1-0.4c-0.3-0.3-0.4-0.7-0.4-1.1c0-1.1,0-2.2,0-3.3c0-0.6,0-1.2,0-1.7
		c0-0.8,0.6-1.4,1.4-1.5c1.2-0.1,2.5-0.2,3.7-0.3c0-0.3,0-0.7,0-1c0-2.7-0.1-5.5-0.2-8.2c-0.1-2.7-0.2-5.5-0.2-8.3
		c0-1.6,0-3,0.1-4.4c0-0.8,0.8-1.5,1.6-1.4c0.8,0,1.5,0.8,1.4,1.6c-0.1,1.3-0.1,2.7-0.1,4.3c0,2.7,0.1,5.5,0.2,8.2
		c0.1,2.7,0.2,5.5,0.2,8.3c0,0.8,0,1.7,0,2.5c0,0.8-0.6,1.4-1.4,1.5l-1,0.1c-0.9,0.1-1.8,0.1-2.6,0.2c0,0.1,0,0.3,0,0.4
		c0,0.6,0,1.2,0,1.8l45.4-0.1c0-0.5,0-1.1,0-1.6c0-0.3,0-0.6,0-0.9l-5.2,0.2c-0.4,0-0.8-0.1-1.1-0.4c-0.3-0.3-0.5-0.7-0.5-1.1
		c0-1.4,0-2.7,0-4.1c0-1.8,0-3.7,0-5.5c0-3.6,0-8.3,0.4-13.1c0.1-0.8,0.8-1.4,1.6-1.4c0.8,0.1,1.4,0.8,1.4,1.6
		c-0.4,4.7-0.4,9.3-0.4,12.9c0,1.8,0,3.7,0,5.5c0,0.8,0,1.7,0,2.5l5.3-0.2c0.4,0,0.8,0.1,1.1,0.4c0.3,0.3,0.5,0.7,0.4,1.1
		c0,0.8,0,1.6,0,2.4c0,0.8,0,1.7,0,2.5l0,0.6c0,0.4-0.2,0.8-0.4,1.1c-0.3,0.3-0.7,0.4-1.1,0.4C305.7,690.6,257.2,690.7,257.2,690.7z
		"/>
</g>
<g>
	<path class="st1" d="M272.7,683.6c-0.1,0-0.1,0-0.2,0c-0.8-0.1-1.4-0.8-1.3-1.7c0.3-2.8,0.3-5.6,0.4-8.4c0-2.3,0-4.6,0.2-6.9
		c0.1-0.8,0.8-1.4,1.6-1.4c0.8,0.1,1.4,0.8,1.4,1.6c-0.2,2.2-0.2,4.5-0.2,6.7c0,2.8,0,5.8-0.4,8.7
		C274.1,683,273.4,683.6,272.7,683.6z"/>
</g>
<g>
	<path class="st1" d="M283.3,683.9c-0.8,0-1.5-0.7-1.5-1.5v-15.2c0-0.8,0.7-1.5,1.5-1.5c0.8,0,1.5,0.7,1.5,1.5v15.2
		C284.8,683.3,284.2,683.9,283.3,683.9z"/>
</g>
<g>
	<path class="st1" d="M292.1,682.4c-0.8,0-1.5-0.6-1.5-1.4c0-1.1-0.1-2.2-0.1-3.4c0-1.7,0-3.4,0.1-5.1c0-1.7,0.1-3.4,0.1-5.1
		c0-0.8,0.7-1.5,1.5-1.5c0.8,0,1.5,0.7,1.5,1.5c0,1.7,0,3.4-0.1,5.1c0,1.7-0.1,3.3-0.1,5c0,1.2,0,2.3,0.1,3.3
		C293.6,681.7,293,682.4,292.1,682.4C292.2,682.4,292.1,682.4,292.1,682.4z"/>
</g>
</svg>
