<svg xmlns="http://www.w3.org/2000/svg" width="282" height="122" viewBox="0 0 282 122">
  <g fill="#231F20">
    <path d="M104,21.5 C131.2,21.4 158.4,17.9 185.6,16.4 C200.5,15.6 215.5,15 230.5,15.5 C236.1,15.7 241.9,16.1 246.3,16.9 C248.4,17.3 250.5,17.8 252.5,18.4 C252.9,18.5 253.2,18.6 253.5,18.8 C255.2,19.4 252,18.1 253.6,18.9 C254.3,19.2 256.5,21 254.6,19.4 C262,25.6 272.6,15 265.2,8.8 C257.3,2.2 245.8,1.5 236,0.9 C220.8,-0.1 205.5,0.5 190.3,1.3 C161.5,2.7 132.7,6.6 103.9,6.7 C94.3,6.5 94.3,21.5 104,21.5 L104,21.5 Z"/>
    <path d="M98,23.2 C115.2,30 129.3,43.8 144.2,54.4 C158,64.2 174.7,74.3 192.2,71.5 C208.2,69 222.2,58.5 234.1,48.3 C245.6,38.5 256,27.2 265.2,15.3 C267.7,12.1 268.4,7.8 265.2,4.7 C262.6,2.1 257.1,1.5 254.6,4.7 C246.1,15.6 236.7,25.8 226.5,35 C216,44.6 203.5,54.1 189.2,56.8 C182.9,58 176.3,55.5 170.7,52.9 C162.6,49.1 155.1,43.9 147.9,38.6 C133.1,27.8 119.1,15.5 101.9,8.6 C98.1,7.1 93.7,10.2 92.7,13.8 C91.6,18.3 94.2,21.7 98,23.2 L98,23.2 Z"/>
    <path d="M90.5 20C90.4 40 86.3 60.2 88.5 80.2 89.5 89.2 92 97.9 97.7 105 103.5 112.3 112.3 116.4 121.3 118.2 132.1 120.4 143.7 120.6 154.7 121 167 121.4 179.4 121.1 191.7 120.4 215.2 119 239.7 115.9 261.7 107 263.8 106.2 265.8 105.3 267.8 104.3 270.3 103.1 271.2 100.1 272.1 97.7 273.6 93.9 274.7 89.9 275.7 86 278 76.8 279.2 67.3 280.1 57.8 281.7 40.9 282.1 22.3 277.3 5.8 274.6-3.5 260.1.5 262.8 9.8 266.6 22.9 266.3 37.1 265.6 50.6 264.8 65.8 262.6 81.6 256.8 95.8 257.9 94.3 259.1 92.8 260.2 91.3 240.9 100.2 218.7 103.1 197.7 104.8 175.6 106.6 153.2 106.5 131.1 104.4 123.4 103.6 115.5 102 110 96.3 105.5 91.7 103.9 84.5 103.2 77.9 101.4 58.6 105.3 39.1 105.4 19.7 105.5 10.3 90.5 10.3 90.5 20L90.5 20zM8 37.5C26.6 35.6 45.6 37.6 64 33.2 73.4 31 69.4 16.5 60 18.7 43 22.7 25.2 20.6 8 22.4 3.9 22.8.5 25.5.5 29.9.5 33.8 3.9 37.9 8 37.5L8 37.5zM34 69.5C42.8 69.5 51.4 69.2 60 67.2 69.4 65 65.4 50.6 56 52.7 48.7 54.4 41.4 54.4 34 54.4 24.3 54.5 24.3 69.5 34 69.5L34 69.5zM48 105.5C54.2 105.5 60.1 105.1 65.8 102.5 69.5 100.8 70.4 95.5 68.5 92.2 66.3 88.4 62 87.8 58.2 89.5 59.3 89 56.8 89.9 56.9 89.8 55.6 90.1 55.5 90.1 54.6 90.2 52.4 90.4 50.2 90.4 48 90.4 38.3 90.5 38.3 105.5 48 105.5L48 105.5z"/>
  </g>
</svg>
