<?xml version="1.0" encoding="utf-8"?>
<!-- Generator: Adobe Illustrator 19.2.0, SVG Export Plug-In . SVG Version: 6.00 Build 0)  -->
<svg version="1.1" id="Vrstva_1" xmlns="http://www.w3.org/2000/svg" xmlns:xlink="http://www.w3.org/1999/xlink" x="0px" y="0px"
	 viewBox="0 0 3515 2522.8" style="enable-background:new 0 0 3515 2522.8;" xml:space="preserve">
<style type="text/css">
	.st0{fill:#231F20;}
</style>
<g>
	<g>
		<path class="st0" d="M1534,671.5c27.2-0.1,54.4-3.6,81.6-5.1c14.9-0.8,29.9-1.4,44.9-0.9c5.6,0.2,11.4,0.6,15.8,1.4
			c2.1,0.4,4.2,0.9,6.2,1.5c0.4,0.1,0.7,0.2,1,0.4c1.7,0.6-1.5-0.7,0.1,0.1c0.7,0.3,2.9,2.1,1,0.5c7.4,6.2,18-4.4,10.6-10.6
			c-7.9-6.6-19.4-7.3-29.2-7.9c-15.2-1-30.5-0.4-45.7,0.4c-28.8,1.4-57.6,5.3-86.4,5.4C1524.3,656.5,1524.3,671.5,1534,671.5
			L1534,671.5z"/>
	</g>
</g>
<g>
	<g>
		<path class="st0" d="M1528,673.2c17.2,6.8,31.3,20.6,46.2,31.2c13.8,9.8,30.5,19.9,48,17.1c16-2.5,30-13,41.9-23.2
			c11.5-9.8,21.9-21.1,31.1-33c2.5-3.2,3.2-7.5,0-10.6c-2.6-2.6-8.1-3.2-10.6,0c-8.5,10.9-17.9,21.1-28.1,30.3
			c-10.5,9.6-23,19.1-37.3,21.8c-6.3,1.2-12.9-1.3-18.5-3.9c-8.1-3.8-15.6-9-22.8-14.3c-14.8-10.8-28.8-23.1-46-30
			c-3.8-1.5-8.2,1.6-9.2,5.2C1521.6,668.3,1524.2,671.7,1528,673.2L1528,673.2z"/>
	</g>
</g>
<g>
	<g>
		<path class="st0" d="M1520.5,670c-0.1,20-4.2,40.2-2,60.2c1,9,3.5,17.7,9.2,24.8c5.8,7.3,14.6,11.4,23.6,13.2
			c10.8,2.2,22.4,2.4,33.4,2.8c12.3,0.4,24.7,0.1,37-0.6c23.5-1.4,48-4.5,70-13.4c2.1-0.8,4.1-1.7,6.1-2.7c2.5-1.2,3.4-4.2,4.3-6.6
			c1.5-3.8,2.6-7.8,3.6-11.7c2.3-9.2,3.5-18.7,4.4-28.2c1.6-16.9,2-35.5-2.8-52c-2.7-9.3-17.2-5.3-14.5,4
			c3.8,13.1,3.5,27.3,2.8,40.8c-0.8,15.2-3,31-8.8,45.2c1.1-1.5,2.3-3,3.4-4.5c-19.3,8.9-41.5,11.8-62.5,13.5
			c-22.1,1.8-44.5,1.7-66.6-0.4c-7.7-0.8-15.6-2.4-21.1-8.1c-4.5-4.6-6.1-11.8-6.8-18.4c-1.8-19.3,2.1-38.8,2.2-58.2
			C1535.5,660.3,1520.5,660.3,1520.5,670L1520.5,670z"/>
	</g>
</g>
<g>
	<g>
		<path class="st0" d="M1438,687.5c18.6-1.9,37.6,0.1,56-4.3c9.4-2.2,5.4-16.7-4-14.5c-17,4-34.8,1.9-52,3.7
			c-4.1,0.4-7.5,3.1-7.5,7.5C1430.5,683.8,1433.9,687.9,1438,687.5L1438,687.5z"/>
	</g>
</g>
<g>
	<g>
		<path class="st0" d="M1464,719.5c8.8,0,17.4-0.3,26-2.3c9.4-2.2,5.4-16.6-4-14.5c-7.3,1.7-14.6,1.7-22,1.7
			C1454.3,704.5,1454.3,719.5,1464,719.5L1464,719.5z"/>
	</g>
</g>
<g>
	<g>
		<path class="st0" d="M1478,755.5c6.2,0,12.1-0.4,17.8-3c3.7-1.7,4.6-7,2.7-10.3c-2.2-3.8-6.5-4.4-10.3-2.7
			c1.1-0.5-1.4,0.4-1.3,0.3c-1.3,0.3-1.4,0.3-2.3,0.4c-2.2,0.2-4.4,0.2-6.6,0.2C1468.3,740.5,1468.3,755.5,1478,755.5L1478,755.5z"
			/>
	</g>
</g>
</svg>
