<svg xmlns="http://www.w3.org/2000/svg" width="46" height="54" viewBox="0 0 46 54">
  <g fill="none">
    <path fill="#DDDDDD" d="M44.7,27.6 C43.8,22.5 42.6,17.7 40.6,13 C40,11.6 37.7,12 37.4,13.4 C36.6,17.7 36.3,21.8 36.4,26.2 C36.5,29.4 36.1,33.2 37,36.4 C33.2,39.9 30.7,43.9 25.2,45.6 C18.8,47.6 12.1,46.3 5.6,47.7 C4.3,48 4,50 5.2,50.6 C17.3,56.4 37.4,53.1 42.8,39.3 C46.7,36.4 45.5,32 44.7,27.6 Z"/>
    <path fill="#494949" d="M5.4,49 C4.6,49 4,48.4 3.9,47.6 C3.6,43.9 3.3,40.3 3,36.6 C2.2,26 1.3,15.1 0.9,4.3 C0.9,3.5 1.4,2.8 2.2,2.8 C12.4,1.6 22.9,0.9 33,0.3 L36,0.1 C36.4,0.1 36.8,0.2 37.1,0.5 C37.4,0.8 37.6,1.1 37.6,1.5 C38.1,11.9 38.8,23.2 39.8,35.9 C39.8,36.3 39.7,36.7 39.4,37 C35.3,41.4 32.4,45 30.6,47.5 C30.3,47.9 29.9,48.1 29.4,48.1 L29.2,48.1 C21.4,48.4 13.3,48.6 5.4,49 C5.4,49 5.4,49 5.4,49 Z M3.9,5.6 C4.3,15.9 5.1,26.3 6,36.4 C6.3,39.6 6.5,42.8 6.8,46 C14.1,45.6 21.4,45.4 28.6,45.2 C30.4,42.7 33.2,39.4 36.8,35.5 C35.9,23.6 35.2,13.1 34.7,3.2 L33.2,3.3 C23.6,3.9 13.6,4.6 3.9,5.6 Z"/>
    <path fill="#494949" d="M28.8 48.2C28 48.2 27.4 47.6 27.3 46.9 26.9 43.7 26.5 40.5 26 37.1 25.9 36.7 26 36.3 26.3 36 26.6 35.7 26.9 35.5 27.3 35.4 30.3 35.1 33.4 34.7 36.3 34.4L38 34.2C38.8 34.1 39.6 34.7 39.7 35.5 39.8 36.3 39.2 37.1 38.4 37.2L36.7 37.4C34.2 37.7 31.7 38 29.2 38.3 29.6 41.1 29.9 43.9 30.3 46.6 30.4 47.4 29.8 48.2 29 48.3 28.9 48.2 28.8 48.2 28.8 48.2zM11.3 17.1C10.5 17.1 9.8 16.4 9.8 15.6 9.8 14.8 10.5 14.1 11.3 14.1 15.4 14.1 19.4 13.5 23.6 12.9 25.1 12.7 26.5 12.5 28 12.3 28.8 12.2 29.6 12.8 29.7 13.6 29.8 14.4 29.2 15.2 28.4 15.3 26.9 15.5 25.5 15.7 24.1 15.9 19.8 16.5 15.6 17.1 11.3 17.1zM12.1 25C11.3 25 10.6 24.4 10.6 23.6 10.6 22.8 11.2 22.1 12 22 16.8 21.8 21.5 21.4 26.4 20.8L27.2 20.7C28 20.6 28.8 21.2 28.8 22 28.9 22.8 28.3 23.6 27.5 23.6L26.7 23.7C21.8 24.4 17.1 24.9 12.1 25 12.2 25 12.2 25 12.1 25zM14.5 31.6C14 31.6 13.5 31.6 13 31.6 12.2 31.6 11.5 30.9 11.6 30 11.6 29.2 12.3 28.5 13.2 28.6 16 28.7 19 28.5 21.9 28.3 24.3 28.1 26.9 27.9 29.3 27.9 30.1 27.9 30.8 28.6 30.8 29.4 30.8 30.2 30.1 30.9 29.3 30.9 26.9 30.9 24.5 31.1 22.1 31.3 19.5 31.4 17 31.6 14.5 31.6z"/>
  </g>
</svg>
