<?xml version="1.0" encoding="utf-8"?>
<!-- Generator: Adobe Illustrator 19.2.0, SVG Export Plug-In . SVG Version: 6.00 Build 0)  -->
<svg version="1.1" id="Izolovaný_režim" xmlns="http://www.w3.org/2000/svg" xmlns:xlink="http://www.w3.org/1999/xlink" x="0px"
	 y="0px" viewBox="0 0 1070 1150" style="enable-background:new 0 0 1070 1150;" xml:space="preserve">
<style type="text/css">
	.st0{fill:#DDDDDD;}
	.st1{fill:#494949;}
</style>
<g>
	<path class="st0" d="M165.7,783c0-4.7-3.1-9.4-7.8-10.7c1.2-3.5,1.1-7.3,2.8-10.7c0.6-1.2-0.6-2.2-1.7-1.7c-1.9,0.8-3.1,2.7-4,4.4
		c-1.1,2.1-2.5,4.7-2.9,7.1c-0.2,1.4,0.2,2.8,1.7,3.4c0.7,0.3,1.4,0.3,2.1,0c0.1,0.2,0.3,0.4,0.5,0.6c1.4,0.9,2.4,1.9,3.1,3
		c-3.2-2.2-10-0.4-13.4-0.1c-6.1,0.4-12.4,0.4-18.4,1.9c-1.5,0.4-1.6,2.8,0,3.1c4.5,0.8,9.1,0.8,13.6,0.8c0.9,0,1.7,0,2.6,0
		c-0.8,1.7-0.2,4.2,2,4.9c4.1,1.3,8.5,0.4,12-2c0.6-0.5,1.3-1,1.8-1.7c-0.1,0.3-0.2,0.6-0.3,0.9c-0.2,0.5-0.2,1-0.1,1.4
		c-4.5,4.2-13.8,3.2-19.3,3.5c-7.8,0.4-15.6,1.1-23.3,2.3c-2.3,0.4-1.6,3.7,0.5,3.9c11,0.7,22.2,0.4,33.3-0.2
		c6.7-0.4,15.7-2.7,16.8-10.7C167.7,784.9,166.8,783.6,165.7,783z"/>
</g>
<g>
	<path class="st0" d="M158.1,746.4c-9.7-0.1-19.6,0-29.2,1.9c-1.1,0.2-1.3,1.2-1,2c-1.3,1.9-0.5,5.4,2.6,5.6
		c6.7,0.4,13.4,0.1,20-0.6c4-0.4,7.9-0.5,10.3-4.2C162.2,749.1,160.4,746.4,158.1,746.4z"/>
</g>
<g>
	<path class="st0" d="M148,764.7c-11.7,0-23.6,1.3-35,3.5c-2,0.4-1.5,3.6,0.5,3.5c11.5-0.4,23-0.5,34.6-0.6
		C152.2,771,152.2,764.7,148,764.7z"/>
</g>
<g>
	<g>
		<path class="st1" d="M155.7,777c-3.1,0-4.3-4.7-4.3-7.6c0-4.9,2.2-7.6,3.6-9.4c0.5-0.6,0.8-1,1-1.4c0.4-0.7,1.3-1,2-0.7
			c0.7,0.4,1,1.3,0.7,2c-0.3,0.7-0.9,1.3-1.4,2c-1.3,1.6-3,3.6-3,7.5c0,2.4,0.9,4.4,1.3,4.6c0.8,0,1.5,0.7,1.5,1.5
			S156.5,777,155.7,777z"/>
	</g>
</g>
<g>
	<g>
		<g>
			<path class="st1" d="M114.5,793.8c-0.7,0-1.4-0.5-1.5-1.3c-0.1-0.8,0.4-1.6,1.2-1.7c8.7-1.4,17.3-1.4,25-1.4
				c9.4,0,17.5,0,20.4-2.8c0.8-0.8,1.2-1.8,1.2-3.2c0-5.3-5.8-7.9-17.8-7.9c-7.2,0-15.7,1.4-21.8,2.5c-3.7,0.6-6.7,1.1-8.3,1.1
				c-5.2,0-8.9-3-8.9-7.3c0-12.3,16.9-12.6,33.3-12.9c17-0.3,29.1-1.1,29.1-9c0-4.1-6-6.9-10-6.9l-0.1,0c-13,0.2-27.7,0.4-42,2.7
				c-0.8,0.1-1.6-0.4-1.7-1.2c-0.1-0.8,0.4-1.6,1.2-1.7c14.5-2.3,29.3-2.5,42.4-2.7l0.1,0c8.4,0,13,5.8,13,9.9
				c0,11.4-16.3,11.7-32,12c-17.8,0.3-30.4,1.2-30.4,9.9c0,3.2,3.2,4.3,5.9,4.3c1.4,0,4.3-0.5,7.8-1.1c6.3-1.1,14.8-2.5,22.3-2.5
				c5.1,0,20.8,0,20.8,10.9c0,2.2-0.7,3.9-2.1,5.3c-3.7,3.7-12,3.7-22.5,3.7c-7.5,0-16,0-24.5,1.3
				C114.7,793.8,114.6,793.8,114.5,793.8z"/>
		</g>
	</g>
	<g>
		<g>
			<path class="st1" d="M125,761.2c-0.6,0-1.1-0.3-1.4-0.9c-0.3-0.8,0-1.6,0.8-2c1.2-0.5,3.2-3.4,3.2-5.7c0-3.2-2.7-6.5-6.1-7.5
				c-0.8-0.2-1.3-1.1-1-1.9c0.2-0.8,1.1-1.3,1.9-1c4.7,1.4,8.3,5.9,8.3,10.4c0,3.6-2.7,7.5-5,8.5C125.4,761.2,125.2,761.2,125,761.2
				z"/>
		</g>
	</g>
	<g>
		<g>
			<path class="st1" d="M122.3,792.6c-0.3,0-0.6-0.1-0.9-0.3c-0.7-0.5-0.8-1.4-0.4-2.1c0.7-1.1,1.1-2.2,1.1-3.6
				c0-2.8-1.7-5.8-4.3-7.7c-0.7-0.5-0.8-1.4-0.3-2.1c0.5-0.7,1.4-0.8,2.1-0.3c3.3,2.4,5.5,6.4,5.5,10.1c0,1.9-0.6,3.7-1.7,5.3
				C123.2,792.4,122.7,792.6,122.3,792.6z"/>
		</g>
	</g>
	<g>
		<g>
			<path class="st1" d="M133.5,786c-0.8,0-1.5-0.6-1.5-1.4c0-0.8,0.6-1.5,1.4-1.6c0.7,0,1.3-0.1,2-0.1c3.8-0.2,7.6-0.3,11.3-1.4
				c0.8-0.2,1.6,0.2,1.9,1c0.2,0.8-0.2,1.6-1,1.9c-4,1.2-8.1,1.4-12,1.5C134.9,785.9,134.2,785.9,133.5,786
				C133.5,786,133.5,786,133.5,786z"/>
		</g>
	</g>
	<g>
		<g>
			<path class="st1" d="M114.7,771c-0.4,0-0.9,0-1.3,0c-0.8,0-1.5-0.7-1.5-1.5c0-0.8,0.7-1.5,1.5-1.4c6.7,0.2,13.1-1.4,19.2-3.1
				c0.8-0.2,1.6,0.2,1.8,1c0.2,0.8-0.2,1.6-1,1.8C127.6,769.5,121.3,771,114.7,771z"/>
		</g>
	</g>
	<g>
		<g>
			<path class="st1" d="M147.7,752.3c-1.3,0-2.6,0-3.9,0c-1.3,0-2.6,0-3.9,0c-0.8,0-1.5-0.7-1.5-1.5s0.7-1.5,1.5-1.5
				c1.3,0,2.6,0,3.9,0c1.3,0,2.6,0,3.9,0c3.4,0,7.5-0.1,11.5-0.5c0.8-0.1,1.6,0.5,1.6,1.3c0.1,0.8-0.5,1.6-1.3,1.6
				C155.3,752.2,151.2,752.3,147.7,752.3z"/>
		</g>
	</g>
</g>
</svg>
