<svg xmlns="http://www.w3.org/2000/svg" width="237" height="292" viewBox="0 0 237 292">
  <g fill="#231F20">
    <g transform="translate(0 66)">
      <path d="M229.4,195 C217.2,189.5 207.6,178.3 198.1,169.2 C193.4,164.7 188.8,160.1 184.1,155.5 C182,153.4 179.9,150.9 177.4,149.3 C174.3,147.2 174,148.3 171.9,150.9 C165.4,159.4 157.8,164.9 146.9,166.3 C136.1,167.7 125.6,164.6 116.4,159.1 C106.1,153 97.3,144.3 88.7,136.1 C80.1,127.9 71.5,118.7 66.6,107.7 C62.3,97.8 61.9,86.2 68.8,77.4 C75.6,68.9 84,70.4 93.2,67.5 C93.4,67.4 94.4,67.3 94.5,67.1 C93.9,67.9 94.4,66.9 93.4,66 C90.6,63.6 88.1,60.7 85.3,58.1 C79.8,53 74.1,47.9 68.4,43 C62.7,38 57,33.1 51.2,28.2 C45.2,23.2 38.4,18.5 33.2,12.7 C27.9,6.7 34.5,-2.6 41.9,1.5 C53.3,7.8 63.2,18.2 73,26.7 C83,35.4 93.7,44 102.9,53.6 C110.1,61.1 113.4,73.4 103.2,80.1 C99.7,82.4 95.7,83.1 91.6,83.7 C87.9,84.3 83.2,84.3 80.8,87.7 C74.2,97.2 86.2,110.7 92.2,117.2 C100.3,126 109.3,134.8 118.9,141.8 C127.4,148 138.1,153.1 148.7,149.6 C158.6,146.4 160.2,134.2 170.7,131.5 C184.8,128 196.6,144.5 205.2,153 C215.9,163.5 229.5,174.3 236,188 C238.6,192.8 234.1,197.1 229.4,195 L229.4,195 Z"/>
      <path d="M236.2,196.1 C224.8,218.2 192.5,225.4 169.8,225.2 C143.1,225 116.9,215.5 94.8,200.8 C72.8,186.1 54.4,167.1 38.3,146.3 C22,125.4 6.6,102.1 2.1,75.4 C-2.2,49.6 4.1,20.8 24.8,3.4 C33,-3.5 45,8.3 36.7,15.3 C20.9,28.6 15.2,49.5 17.7,69.6 C20.5,92.2 33.2,112.7 46.4,130.7 C73.7,167.8 110.3,203.6 158.1,209.5 C170.8,211.1 183.8,210.3 196.1,206.7 C208.6,203 218.1,195.9 228.7,188.7 C233.5,185.3 238.6,191.6 236.2,196.1 L236.2,196.1 Z"/>
    </g>
    <path d="M81,59.2 C92.6,56.3 110.9,66.8 109.4,80 C108.9,84.1 113.2,87.5 116.9,87.5 C121.4,87.5 123.9,84.1 124.4,80 C127.2,56.9 97.2,39.8 77.1,44.8 C67.6,47.1 71.6,61.6 81,59.2 L81,59.2 Z"/>
    <path d="M59,16.5 C81.2,13.9 103.6,18.9 121.8,32.2 C141.5,46.6 149.8,70.3 148.4,94 C147.8,103.7 162.8,103.6 163.4,94 C165.1,66.3 154.7,39.3 132.8,21.8 C112.3,5.4 85,-1.6 59.1,1.5 C55,2 51.6,4.5 51.6,9 C51.5,12.7 54.9,17 59,16.5 L59,16.5 Z"/>
  </g>
</svg>
