<svg xmlns="http://www.w3.org/2000/svg" width="319" height="333" viewBox="0 0 319 333">
  <g fill="#000000">
    <path d="M0.4,16.1 C5.5,88.5 7.5,161.1 6.1,233.7 C5.7,254.2 5.1,274.6 4.2,295 C3.8,304.7 18.8,304.6 19.2,295 C22.4,222.5 22.4,149.8 19.1,77.3 C18.2,56.9 17,36.4 15.5,16 C14.7,6.5 -0.3,6.4 0.4,16.1 L0.4,16.1 Z"/>
    <path d="M14 301.5C23.4 301.1 33.1 300.3 42.5 301.3 47.4 301.8 52.2 302.1 57.2 302.1 71 301.9 84.8 301 98.6 300.3 110.8 299.7 122.9 301 135 302.6 139 303.1 142.5 298.8 142.5 295.1 142.5 290.6 139 288.1 135 287.6 122.9 286 110.8 284.8 98.6 285.3 84.8 286 71 286.9 57.2 287.1 52.2 287.2 47.4 286.8 42.5 286.3 33.1 285.4 23.4 286.2 14 286.5 4.4 286.9 4.3 301.9 14 301.5L14 301.5zM12.3 20.7C25.9 15 40.3 15.4 54.8 16.6 70.7 17.9 86.5 19.4 102.4 20.4 134.8 22.4 167.2 23.1 199.6 22.7 209.2 22.6 209.3 7.6 199.6 7.7 166.5 8.1 133.4 7.3 100.4 5.2 84.3 4.2 68.2 2.6 52.1 1.4 37.4.3 22.2.5 8.3 6.2 4.6 7.8 1.9 11.2 3.1 15.4 4.1 19 8.5 22.3 12.3 20.7L12.3 20.7z"/>
    <path d="M197.1,23.6 C210.8,32.3 222.2,43.8 230.9,57.5 C236,65.6 249,58.1 243.9,49.9 C233.9,34 220.6,20.7 204.7,10.6 C196.6,5.4 189,18.4 197.1,23.6 L197.1,23.6 Z"/>
    <path d="M231.2,59 C229.5,87.6 230.3,116.4 229.5,145 C229.2,154.7 244.2,154.6 244.5,145 C245.3,116.3 244.5,87.6 246.2,59 C246.7,49.3 231.7,49.4 231.2,59 L231.2,59 Z"/>
    <path d="M184.7 16.9C183.4 33.6 183 50.2 183.5 66.9 183.6 70.6 186.9 74.9 191 74.4 206.3 72.6 221 74 236 77.2 245.4 79.2 249.4 64.8 240 62.7 223.8 59.2 207.6 57.4 191 59.4 193.5 61.9 196 64.4 198.5 66.9 198 50.2 198.4 33.5 199.7 16.9 200.5 7.3 185.5 7.3 184.7 16.9L184.7 16.9zM52 93.5C86.7 92.8 121.3 92.4 156 91.7 165.6 91.5 165.7 76.5 156 76.7 121.3 77.4 86.7 77.8 52 78.5 42.4 78.7 42.3 93.7 52 93.5L52 93.5zM53 146.2C76 141.9 100 146.7 123.3 146.3 147.9 145.9 172.4 143.5 197 144.5 206.7 144.9 206.6 129.9 197 129.5 171.7 128.5 146.6 131.1 121.4 131.4 97.2 131.7 73 127.3 49.1 131.8 39.5 133.6 43.5 148 53 146.2L53 146.2zM51 195.5C59.2 195.1 67.3 195.9 75.5 195.4 84.7 194.8 93.7 194 102.9 194.3 112.3 194.6 121.7 195.4 131 195.5 140.7 195.6 140.7 180.6 131 180.5 121.9 180.4 112.8 179.6 103.7 179.3 94.2 179 85 179.8 75.5 180.4 67.3 180.9 59.2 180.1 51 180.5 41.4 181 41.3 196 51 195.5L51 195.5zM51 242.5C59.7 241.7 68.2 242 76.9 241.7 90.3 241.2 103.6 240.2 117 241.5 126.6 242.4 126.5 227.4 117 226.5 103.6 225.2 90.3 226.3 76.9 226.7 68.2 227 59.7 226.6 51 227.5 41.5 228.4 41.4 243.4 51 242.5L51 242.5zM147.8 216C143.7 230.2 142.2 245.8 145.9 260.3 149.6 275.2 159.9 287.3 173.1 295 201.7 311.6 237 305 262.4 285.6 274.7 276.2 286 264.2 290.4 249 294.2 235.8 292.8 221.3 287.6 208.7 276.2 181 248.8 164.9 219.1 166.7 185.8 168.7 147.2 192.6 145.6 229.1 145.2 238.8 160.2 238.7 160.6 229.1 161.7 203.6 189.5 186.6 212.1 182.5 234.8 178.4 258.4 186.9 270.3 207.3 275.7 216.5 278.4 227.3 277.3 238 276 250.1 268.9 259.9 260.2 268 241.3 285.6 214.3 295.1 189.2 286.1 176.7 281.6 165.3 272.1 161.2 259.2 157.2 246.5 158.7 232.7 162.3 220.1 164.9 210.7 150.4 206.7 147.8 216L147.8 216z"/>
    <path d="M252.9,278.1 C251.8,284.2 254.4,288.2 258.8,292.3 C263.7,296.8 268.7,301.3 273.8,305.7 C283.6,314.3 293.7,322.6 303.9,330.7 C307.4,333.5 311,333.5 314.5,330.7 C319.1,327.1 319.8,320.3 317.4,315.3 C314.7,309.6 308.9,305.6 304.4,301.5 C293.6,291.7 282.8,281.8 272,272 C264.9,265.5 254.2,276.1 261.4,282.6 C269.3,289.8 277.1,296.9 285,304.1 C288.9,307.7 292.9,311.3 296.8,314.8 C298.6,316.5 300.6,318 302.3,319.8 C304.6,322.2 302.9,320.9 303.9,320.1 C307.4,320.1 311,320.1 314.5,320.1 C306,313.4 297.6,306.5 289.4,299.5 C285.5,296.2 281.7,292.8 277.9,289.5 C275.8,287.6 273.6,285.7 271.5,283.8 C270.3,282.7 267.5,280.8 267.2,279.5 C267.2,280.8 267.2,282.2 267.2,283.5 C267.3,283.1 267.3,282.7 267.4,282.3 C269,272.7 254.6,268.6 252.9,278.1 L252.9,278.1 Z"/>
  </g>
</svg>
