<svg xmlns="http://www.w3.org/2000/svg" width="72" height="59" viewBox="0 0 72 59">
  <g fill="none">
    <path fill="#DDDDDD" d="M71 5.5C70.5 3.8 67.7 3.1 66.8 5 64.8 9.3 62.6 13.5 61 18 60.7 19 60.2 20 60 21 59.1 19.6 57.5 18.6 55.8 19.3 50.6 21.4 46.4 25.9 42.1 29.5 41.1 30.3 40.2 31.1 39.2 31.9 35.9 34.6 38.4 33.3 36.7 32.5 34.4 31.4 31.6 27 30.1 25.2 29 24 27.2 24.1 25.9 24.7 23.3 25.9 20.9 27.8 18.8 29.8 16.9 31.7 14.5 33.4 12.8 35.4 12.5 35.7 12.4 36.3 12.8 36.6 17.4 40.3 22.5 34.7 26.7 32 30.1 36.5 34.6 42.4 40.5 39.8 44.1 38.2 47.4 35 50.6 32.7 52.4 31.4 54.2 30.2 55.9 28.9 56.1 29.5 56.4 30 56.9 30.4 68.6 40.3 73.1 12.2 71 5.5zM44.3 46.2C41.4 47.3 38 47.3 34.9 47.7 30.9 48.2 26.8 48.9 22.8 49.5 19.1 50.1 15.5 50.8 11.9 51.5 8.8 52.1 5.5 52 2.4 52.7 1.4 52.9.7 54.3 1.4 55.2 5.6 60.7 15.2 58.7 21.1 58.2 25.5 57.9 29.9 57.5 34.2 57 38.2 56.6 42.9 56.7 46.7 55.3 52.6 53.3 50 44 44.3 46.2z"/>
    <path fill="#494949" d="M12.3 35.1C11.9 35.1 11.6 35 11.3 34.7 10.7 34.1 10.7 33.2 11.2 32.6 14.5 29.2 18.5 26.7 22.3 24.2 24 23.1 25.8 22 27.5 20.8 28.1 20.4 29 20.5 29.5 21 31.9 23.7 34.4 26.4 36.8 29.1 39.3 27.2 41.9 25.5 44.5 23.8 47.5 21.9 50.6 19.9 53.3 17.6 53.9 17.1 54.8 17.2 55.3 17.7L55.8 18.2C56.5 18.9 57.2 19.7 58 20.4 60.2 14.6 62.5 9 64.8 3.6 58.5 4.5 52.9 5.2 47.3 5.6 48.3 6.8 49.3 7.8 50.2 8.8 50.5 9.1 50.6 9.5 50.6 9.9 50.6 10.3 50.4 10.7 50 11 46.5 13.8 43 16.4 39.8 18.7 39.2 19.1 38.4 19.1 37.9 18.6 35.1 16.1 32.6 13.5 30.1 10.9 29.6 10.4 29.1 9.9 28.6 9.4 21.6 13.9 14.8 18.8 8.2 23.5L4.6 26.1C3.9 26.6 3 26.4 2.5 25.7 2 25 2.2 24.1 2.9 23.6L6.5 21C13.5 16 20.7 10.9 28.1 6.2 28.7 5.8 29.5 5.9 30 6.4 30.8 7.2 31.5 8 32.3 8.8 34.4 11.1 36.7 13.4 39 15.5 41.5 13.7 44.2 11.7 46.9 9.6 45.7 8.3 44.5 6.9 43.1 5.2 42.7 4.8 42.6 4.2 42.9 3.6 43.1 3.1 43.6 2.7 44.2 2.7 51.4 2.3 58.6 1.4 67.1.2 67.6.1 68.2.3 68.5.8 68.8 1.2 68.9 1.8 68.7 2.3 65.8 9.1 62.9 16.3 60.1 23.7 59.9 24.2 59.5 24.5 59 24.6 58.5 24.7 58 24.5 57.6 24.1 56.5 22.9 55.4 21.8 54.3 20.7 51.7 22.7 48.9 24.5 46.3 26.2 43.4 28.1 40.4 30 37.7 32.1 37.1 32.6 36.2 32.5 35.7 32 33.2 29.3 30.7 26.6 28.2 23.9 26.8 24.8 25.4 25.7 24 26.6 20.3 28.9 16.5 31.3 13.5 34.5 13.1 35 12.7 35.1 12.3 35.1zM2.3 52.3C1.9 52.3 1.6 52.2 1.3 51.9 1 51.6.8 51.2.8 50.8L.8 49.7C.8 47.2.7 44.8.3 42.4.2 41.6.7 40.8 1.5 40.7 2.3 40.6 3.1 41.1 3.2 41.9 3.6 44.4 3.7 46.8 3.7 49.2 8.7 48.9 13.6 48.8 18.5 48.8 27 48.7 35.7 48.6 45 47.1 44.5 44.6 44.2 42 44 39.4 43.9 38.6 44.6 37.9 45.4 37.8 46.2 37.7 46.9 38.4 47 39.2 47.2 42.2 47.6 45.1 48.2 48 48.3 48.4 48.2 48.8 48 49.1 47.8 49.4 47.4 49.7 47 49.7 36.9 51.5 27.6 51.6 18.5 51.7 13.2 51.7 7.8 51.8 2.4 52.2 2.4 52.3 2.3 52.3 2.3 52.3z"/>
    <path fill="#494949" d="M15.7 51.4C15.6 51.4 15.6 51.4 15.5 51.4 14.7 51.3 14.1 50.5 14.2 49.7 14.2 49.4 14.3 49.1 14.3 48.8 14.3 48.2 14.2 47.5 14.1 46.8 14 46.1 13.9 45.3 13.9 44.5 13.9 43.7 14.6 43 15.4 43 16.2 43 16.9 43.7 16.9 44.5 16.9 45.1 17 45.8 17.1 46.5 17.2 47.2 17.3 48 17.3 48.8 17.3 49.3 17.3 49.7 17.2 50.1 17.1 50.8 16.4 51.4 15.7 51.4zM29.6 49.5C29.5 49.5 29.4 49.5 29.3 49.5 28.5 49.3 28 48.6 28.1 47.7 28.1 47.6 28.1 47.5 28.1 47.4 28.1 47.1 28 46.6 27.9 46.2 27.8 45.6 27.7 45.1 27.7 44.5 27.7 44.2 27.7 43.9 27.8 43.6 28 42.8 28.8 42.3 29.6 42.4 30.4 42.6 30.9 43.4 30.8 44.2 30.8 44.3 30.8 44.4 30.8 44.5 30.8 44.8 30.9 45.3 31 45.7 31.1 46.3 31.2 46.8 31.2 47.4 31.2 47.7 31.2 48 31.1 48.3 30.9 49 30.3 49.5 29.6 49.5z"/>
  </g>
</svg>
