<?xml version="1.0" encoding="utf-8"?>
<!-- Generator: Adobe Illustrator 19.2.0, SVG Export Plug-In . SVG Version: 6.00 Build 0)  -->
<svg version="1.1" id="Izolovaný_režim" xmlns="http://www.w3.org/2000/svg" xmlns:xlink="http://www.w3.org/1999/xlink" x="0px"
	 y="0px" viewBox="0 0 1070 1150" style="enable-background:new 0 0 1070 1150;" xml:space="preserve">
<style type="text/css">
	.st0{fill:#DDDDDD;}
	.st1{fill:#494949;}
</style>
<path class="st0" d="M648,159.5c-0.5-1.7-3.3-2.4-4.2-0.5c-2,4.3-4.2,8.5-5.8,13c-0.3,1-0.8,2-1,3c-0.9-1.4-2.5-2.4-4.2-1.7
	c-5.2,2.1-9.4,6.6-13.7,10.2c-1,0.8-1.9,1.6-2.9,2.4c-3.3,2.7-0.8,1.4-2.5,0.6c-2.3-1.1-5.1-5.5-6.6-7.3c-1.1-1.2-2.9-1.1-4.2-0.5
	c-2.6,1.2-5,3.1-7.1,5.1c-1.9,1.9-4.3,3.6-6,5.6c-0.3,0.3-0.4,0.9,0,1.2c4.6,3.7,9.7-1.9,13.9-4.6c3.4,4.5,7.9,10.4,13.8,7.8
	c3.6-1.6,6.9-4.8,10.1-7.1c1.8-1.3,3.6-2.5,5.3-3.8c0.2,0.6,0.5,1.1,1,1.5C645.6,194.3,650.1,166.2,648,159.5z"/>
<path class="st0" d="M621.3,200.2c-2.9,1.1-6.3,1.1-9.4,1.5c-4,0.5-8.1,1.2-12.1,1.8c-3.7,0.6-7.3,1.3-10.9,2
	c-3.1,0.6-6.4,0.5-9.5,1.2c-1,0.2-1.7,1.6-1,2.5c4.2,5.5,13.8,3.5,19.7,3c4.4-0.3,8.8-0.7,13.1-1.2c4-0.4,8.7-0.3,12.5-1.7
	C629.6,207.3,627,198,621.3,200.2z"/>
<g>
	<path class="st1" d="M589.3,189.1c-0.4,0-0.7-0.1-1-0.4c-0.6-0.6-0.6-1.5-0.1-2.1c3.3-3.4,7.3-5.9,11.1-8.4
		c1.7-1.1,3.5-2.2,5.2-3.4c0.6-0.4,1.5-0.3,2,0.2c2.4,2.7,4.9,5.4,7.3,8.1c2.5-1.9,5.1-3.6,7.7-5.3c3-1.9,6.1-3.9,8.8-6.2
		c0.6-0.5,1.5-0.4,2,0.1l0.5,0.5c0.7,0.7,1.4,1.5,2.2,2.2c2.2-5.8,4.5-11.4,6.8-16.8c-6.3,0.9-11.9,1.6-17.5,2c1,1.2,2,2.2,2.9,3.2
		c0.3,0.3,0.4,0.7,0.4,1.1c0,0.4-0.2,0.8-0.6,1.1c-3.5,2.8-7,5.4-10.2,7.7c-0.6,0.4-1.4,0.4-1.9-0.1c-2.8-2.5-5.3-5.1-7.8-7.7
		c-0.5-0.5-1-1-1.5-1.5c-7,4.5-13.8,9.4-20.4,14.1l-3.6,2.6c-0.7,0.5-1.6,0.3-2.1-0.4c-0.5-0.7-0.3-1.6,0.4-2.1l3.6-2.6
		c7-5,14.2-10.1,21.6-14.8c0.6-0.4,1.4-0.3,1.9,0.2c0.8,0.8,1.5,1.6,2.3,2.4c2.1,2.3,4.4,4.6,6.7,6.7c2.5-1.8,5.2-3.8,7.9-5.9
		c-1.2-1.3-2.4-2.7-3.8-4.4c-0.4-0.4-0.5-1-0.2-1.6c0.2-0.5,0.7-0.9,1.3-0.9c7.2-0.4,14.4-1.3,22.9-2.5c0.5-0.1,1.1,0.1,1.4,0.6
		c0.3,0.4,0.4,1,0.2,1.5c-2.9,6.8-5.8,14-8.6,21.4c-0.2,0.5-0.6,0.8-1.1,0.9c-0.5,0.1-1-0.1-1.4-0.5c-1.1-1.2-2.2-2.3-3.3-3.4
		c-2.6,2-5.4,3.8-8,5.5c-2.9,1.9-5.9,3.8-8.6,5.9c-0.6,0.5-1.5,0.4-2-0.1c-2.5-2.7-5-5.4-7.5-8.1c-1.4,0.9-2.8,1.8-4.2,2.7
		c-3.7,2.3-7.5,4.7-10.5,7.9C590.1,189,589.7,189.1,589.3,189.1z"/>
</g>
<g>
	<path class="st1" d="M579.3,206.3c-0.4,0-0.7-0.1-1-0.4c-0.3-0.3-0.5-0.7-0.5-1.1l0-1.1c0-2.5-0.1-4.9-0.5-7.3
		c-0.1-0.8,0.4-1.6,1.2-1.7c0.8-0.1,1.6,0.4,1.7,1.2c0.4,2.5,0.5,4.9,0.5,7.3c5-0.3,9.9-0.4,14.8-0.4c8.5-0.1,17.2-0.2,26.5-1.7
		c-0.5-2.5-0.8-5.1-1-7.7c-0.1-0.8,0.6-1.5,1.4-1.6c0.8-0.1,1.5,0.6,1.6,1.4c0.2,3,0.6,5.9,1.2,8.8c0.1,0.4,0,0.8-0.2,1.1
		c-0.2,0.3-0.6,0.6-1,0.6c-10.1,1.8-19.4,1.9-28.5,2c-5.3,0-10.7,0.1-16.1,0.5C579.4,206.3,579.3,206.3,579.3,206.3z"/>
</g>
<g>
	<path class="st1" d="M592.7,205.4c-0.1,0-0.1,0-0.2,0c-0.8-0.1-1.4-0.9-1.3-1.7c0-0.3,0.1-0.6,0.1-0.9c0-0.6-0.1-1.3-0.2-2
		c-0.1-0.7-0.2-1.5-0.2-2.3c0-0.8,0.7-1.5,1.5-1.5c0.8,0,1.5,0.7,1.5,1.5c0,0.6,0.1,1.3,0.2,2c0.1,0.7,0.2,1.5,0.2,2.3
		c0,0.5,0,0.9-0.1,1.3C594.1,204.8,593.4,205.4,592.7,205.4z"/>
</g>
<g>
	<path class="st1" d="M606.6,203.5c-0.1,0-0.2,0-0.3,0c-0.8-0.2-1.3-0.9-1.2-1.8c0-0.1,0-0.2,0-0.3c0-0.3-0.1-0.8-0.2-1.2
		c-0.1-0.6-0.2-1.1-0.2-1.7c0-0.3,0-0.6,0.1-0.9c0.2-0.8,1-1.3,1.8-1.2c0.8,0.2,1.3,1,1.2,1.8c0,0.1,0,0.2,0,0.3
		c0,0.3,0.1,0.8,0.2,1.2c0.1,0.6,0.2,1.1,0.2,1.7c0,0.3,0,0.6-0.1,0.9C607.9,203,607.3,203.5,606.6,203.5z"/>
</g>
</svg>
