<svg xmlns="http://www.w3.org/2000/svg" id="Izolovaný_režim" viewBox="0 0 266.5 170.1"><style>.st0{fill:#FFFFFF;} .st1{fill:#E63329;}</style><path d="M1.4 21h21.4l25.8 54.2V21h13.7v68.9H42L15.3 32.7v57.2H1.4V21zM97.7 32.4H77.2V21h55.9v11.4h-20.5v57.5H97.7V32.4zM147.7 21.2h14.8v29.6l23-29.8h17.3l-25.3 30.9 27.5 38h-18.4l-24.1-35.1v35.1h-14.8V21.2z" class="st0"/><g><path d="M3.1 112v.3c0 .1.1.3.2.4.1.1.2.2.4.3.2.1.4.2.6.2.2 0 .4 0 .6-.1.2-.1.3-.2.5-.4.1-.2.3-.4.3-.6.1-.2.1-.5.1-.9 0-.2 0-.5-.1-.7 0-.2-.1-.4-.2-.6-.1-.2-.3-.3-.4-.4-.2-.1-.4-.2-.6-.2s-.5 0-.6.1c-.2.1-.3.2-.4.3-.1.1-.2.2-.2.4 0 .1-.1.2-.1.3l-2.2-.1.2-6.2h6.3v1.7H3.2l-.1 2.6c.1-.1.2-.2.3-.2.1-.1.2-.2.4-.2.2-.1.3-.1.5-.2.2 0 .5-.1.8-.1.4 0 .8.1 1.2.2.4.2.7.4 1 .7.3.3.5.6.7 1.1.2.4.2.9.2 1.4 0 .4-.1.9-.2 1.3-.1.5-.4.9-.7 1.2-.3.4-.7.7-1.2.9-.5.2-1 .3-1.7.3-.6 0-1.1-.1-1.6-.2-.5-.2-1-.5-1.3-.9-.3-.3-.4-.6-.5-.9-.1-.3-.1-.5-.1-.7h2.2zM10.3 109.4v-.9c0-.4.1-.7.2-1.1s.2-.8.4-1.2c.2-.4.4-.8.6-1.1.3-.3.6-.6 1-.8.4-.2.9-.3 1.4-.3.4 0 .7 0 1 .1.3.1.5.2.8.3.2.1.4.3.6.4.2.2.3.3.4.5.1.2.3.4.4.7.1.2.2.5.3.8.1.3.1.6.2 1 0 .4.1.8.1 1.3 0 .6 0 1.2-.1 1.9s-.3 1.3-.5 1.8c-.3.6-.6 1-1.1 1.4-.5.4-1.1.5-1.9.5-.7 0-1.2-.2-1.7-.4-.5-.3-.8-.7-1.1-1.2-.3-.5-.5-1.1-.6-1.7-.4-.7-.4-1.3-.4-2zm5 .1v-.6-.7c0-.2 0-.5-.1-.7 0-.2-.1-.4-.1-.6 0-.1-.1-.2-.1-.3 0-.1-.1-.3-.2-.4-.1-.1-.2-.3-.3-.4-.1-.1-.3-.2-.5-.2s-.3 0-.4.1c-.1.1-.2.1-.3.2-.1.1-.1.2-.2.3-.1.1-.1.2-.1.3-.1.3-.2.6-.2.9 0 .3-.1.6-.1.9V109.5c0 .4 0 .9.1 1.3 0 .4.1.8.2 1.1.1.3.2.6.4.8.2.2.4.3.7.3.3 0 .5-.1.7-.3.2-.2.3-.5.4-.9.1-.3.2-.7.2-1.1-.1-.5-.1-.8-.1-1.2zM21.9 104c.3 0 .7.1 1 .2.3.1.6.3.8.5.2.2.4.5.5.8.1.3.2.6.2 1s-.1.7-.2 1c-.1.3-.3.6-.5.8s-.5.4-.8.5c-.3.1-.6.2-1 .2s-.7-.1-1-.2c-.3-.1-.6-.3-.8-.5-.2-.2-.4-.5-.5-.8-.1-.3-.2-.6-.2-1 0-.3.1-.7.2-1 .1-.3.3-.6.5-.8.2-.2.5-.4.8-.5.3-.2.7-.2 1-.2zm0 1.5c-.3 0-.5.1-.7.3-.2.2-.3.4-.3.7 0 .3.1.5.3.7.2.2.4.3.7.3.3 0 .5-.1.7-.3.2-.2.3-.4.3-.7 0-.3-.1-.5-.3-.7-.2-.2-.4-.3-.7-.3zM31.4 106.7c0-.4-.1-.6-.4-.8-.2-.2-.5-.2-.7-.2-.4 0-.7.1-.9.3-.2.2-.4.5-.5.8-.1.3-.2.6-.2 1 0 .3 0 .6-.1.9l.3-.3c.1-.1.3-.2.4-.3.2-.1.4-.2.6-.2.2-.1.5-.1.7-.1.4 0 .7.1 1.1.2.4.1.7.3 1 .6.3.3.5.6.7 1 .2.4.3.9.3 1.5s-.1 1.1-.3 1.5c-.2.4-.5.8-.9 1.2-.3.3-.7.6-1.2.7-.4.2-.9.2-1.5.2s-1.1-.1-1.5-.3c-.4-.2-.8-.4-1-.7-.3-.3-.5-.6-.6-1-.1-.4-.3-.7-.3-1.1-.1-.4-.1-.7-.1-1v-.8c0-.5 0-1 .1-1.6 0-.5.1-1 .2-1.5s.3-.9.5-1.3.5-.7.9-1c.2-.2.5-.3.7-.4.2-.1.5-.2.7-.2.2-.1.4-.1.6-.1h.4c.4 0 .8.1 1.1.2.4.1.7.3 1 .5.3.2.5.5.7.8.2.3.3.8.3 1.2h-2.1zm-1.3 6.4c.2 0 .3 0 .5-.1s.3-.2.5-.3c.1-.1.3-.3.3-.6.1-.2.1-.5.1-.9 0-.6-.1-1-.4-1.3-.3-.3-.6-.5-1-.5-.1 0-.2 0-.4.1-.2 0-.3.1-.5.3-.2.1-.3.3-.4.6-.1.2-.2.6-.2 1 0 .3 0 .6.1.8l.3.6c.1.2.3.3.5.3h.6zM35.8 104.1h2l-.4 3.7h-1.2l-.4-3.7zM41 105.7c1-.4 1.9-1 2.8-1.6h1.9v10.5h-2.3v-8.1c-.2.2-.5.4-1 .6-.4.2-.9.5-1.5.7v-2.1zM49 112.3v-2l4.2-6.2h2.2v6.5h1.4v1.7h-1.4v2.3h-2.2v-2.3H49zm1.7-1.7h2.6v-2.8-.2-.3-.4-.3l-2.6 4zM59.1 112.6H61v2h-1.9v-2zM63.7 109.4v-.9c0-.4.1-.7.2-1.1.1-.4.2-.8.4-1.2.2-.4.4-.8.6-1.1.3-.3.6-.6 1-.8.4-.2.9-.3 1.4-.3.4 0 .7 0 1 .1.3.1.5.2.8.3.2.1.4.3.6.4.2.2.3.3.4.5.1.2.3.4.4.7.1.2.2.5.3.8.1.3.1.6.2 1s.1.8.1 1.3c0 .6 0 1.2-.1 1.9s-.3 1.3-.5 1.8c-.3.6-.6 1-1.1 1.4-.5.4-1.1.5-1.9.5-.7 0-1.2-.2-1.7-.4-.5-.3-.8-.7-1.1-1.2-.3-.5-.5-1.1-.6-1.7-.4-.7-.4-1.3-.4-2zm5 .1v-.6-.7c0-.2 0-.5-.1-.7 0-.2-.1-.4-.1-.6 0-.1 0-.2-.1-.3 0-.1-.1-.3-.2-.4-.1-.1-.2-.3-.3-.4-.1-.1-.3-.2-.5-.2s-.3 0-.4.1c-.1.1-.2.1-.3.2-.1.1-.1.2-.2.3 0 .1-.1.2-.1.3-.1.3-.2.6-.2.9 0 .3-.1.6-.1.9V109.5c0 .4 0 .9.1 1.3 0 .4.1.8.2 1.1.1.3.2.6.4.8.2.2.4.3.7.3.3 0 .5-.1.7-.3.2-.2.3-.5.4-.9.1-.3.2-.7.2-1.1-.1-.5-.1-.8-.1-1.2zM74.9 109.1c-.1 0-.3-.1-.5-.2s-.4-.2-.7-.4c-.2-.2-.4-.4-.6-.7-.2-.3-.2-.6-.2-1 0-.3.1-.7.2-1 .1-.3.4-.7.6-.9.3-.3.7-.5 1.1-.7.5-.2 1-.3 1.6-.3.5 0 1 .1 1.4.2.4.1.8.3 1.1.6.3.3.6.6.7.9.2.3.3.7.3 1.1 0 .3-.1.6-.2.9-.1.3-.3.5-.5.7-.2.2-.4.4-.7.5-.2.1-.5.2-.8.2.1 0 .2.1.4.1.1 0 .3.1.4.2.1.1.3.2.5.3.2.1.3.3.4.5.2.3.3.5.4.8.1.3.1.5.1.8 0 .5-.1.9-.3 1.3-.2.4-.5.7-.8 1-.4.3-.8.5-1.2.6-.5.1-1 .2-1.5.2s-1-.1-1.5-.2c-.4-.2-.8-.4-1.1-.7-.3-.3-.6-.6-.7-1-.2-.4-.3-.8-.3-1.2 0-.4.1-.8.2-1.1.1-.3.3-.6.6-.8.3-.2.5-.4.7-.5.5-.1.7-.1.9-.2zm1.6 4c.2 0 .3 0 .5-.1s.3-.1.5-.3c.1-.1.3-.3.4-.5.1-.2.1-.5.1-.7 0-.5-.2-.9-.5-1.1-.3-.3-.7-.4-1.1-.4-.4 0-.8.1-1.1.4-.3.3-.4.7-.4 1.1 0 .3 0 .5.1.7.1.2.2.4.4.5s.3.2.5.3c.3.1.5.1.6.1zm0-4.9c.4 0 .7-.1 1-.4.3-.2.4-.6.4-1 0-.2 0-.4-.1-.6-.1-.2-.2-.3-.3-.4-.1-.1-.3-.2-.4-.2s-.3-.1-.5-.1c-.4 0-.7.1-1 .4-.3.2-.4.6-.4 1s.1.7.4 1c.2.2.5.3.9.3zM84.2 111.7v.4c0 .2.1.3.2.5s.2.3.4.4c.2.1.4.2.7.2.4 0 .8-.1 1-.4.2-.3.4-.6.4-1s-.1-.7-.2-.9c-.2-.2-.4-.4-.6-.5-.3-.1-.5-.2-.8-.2h-.9v-1.8h.8c.3 0 .6-.1.8-.2.3-.1.5-.2.6-.5.2-.2.3-.5.3-.9s-.1-.7-.4-.9c-.3-.2-.6-.3-.9-.3-.2 0-.3 0-.5.1s-.3.1-.4.2c-.1.1-.2.2-.3.4-.1.2-.1.3-.1.6H82c0-.2.1-.5.1-.8.1-.3.2-.6.5-1s.8-.7 1.3-.9c.5-.2 1.1-.3 1.6-.3.7 0 1.2.1 1.7.3.4.2.8.4 1.1.7.3.3.5.6.6.9.1.3.2.6.2.9 0 .4-.1.8-.2 1.1-.2.3-.4.5-.6.7-.2.2-.4.3-.7.4-.2.1-.4.2-.5.2.2.1.4.1.6.2.2.1.4.2.7.4.2.2.3.3.4.5.1.2.2.3.3.5.1.2.1.3.1.5v.4c0 .4-.1.8-.3 1.2-.2.4-.5.7-.8 1-.3.3-.7.5-1.2.6-.5.2-1 .2-1.5.2h-.6c-.2 0-.4-.1-.7-.1-.2-.1-.4-.1-.7-.2l-.6-.3c-.2-.2-.4-.4-.5-.6-.1-.2-.2-.5-.3-.7-.1-.2-.1-.4-.1-.6v-.4h2.3zM93.9 104.1l-.4 3.7h-1.2l-.4-3.7h2zm2.9 0l-.4 3.7h-1.2l-.4-3.7h2zM99.8 103.7h3.4l4.1 8.5v-8.5h2.2v10.8h-3.2l-4.2-9v9h-2.2v-10.8zM115.1 112.6l-1.8 3.7h-1.5l1.1-3.7h2.2zM122.5 105.7c1-.4 1.9-1 2.8-1.6h1.9v10.5H125v-8.1c-.2.2-.5.4-1 .6-.4.2-.9.5-1.5.7v-2.1zM130.6 112.3v-2l4.2-6.2h2.2v6.5h1.4v1.7H137v2.3h-2.2v-2.3h-4.2zm1.6-1.7h2.6v-2.8-.2-.3-.4-.3l-2.6 4zM142.5 104c.4 0 .7.1 1 .2.3.1.6.3.8.5.2.2.4.5.5.8.1.3.2.6.2 1s-.1.7-.2 1c-.1.3-.3.6-.5.8s-.5.4-.8.5c-.3.1-.6.2-1 .2-.3 0-.7-.1-1-.2-.3-.1-.6-.3-.8-.5-.2-.2-.4-.5-.5-.8-.1-.3-.2-.6-.2-1 0-.3.1-.7.2-1 .1-.3.3-.6.5-.8.2-.2.5-.4.8-.5.4-.2.7-.2 1-.2zm0 1.5c-.3 0-.5.1-.7.3-.2.2-.3.4-.3.7 0 .3.1.5.3.7.2.2.4.3.7.3.3 0 .5-.1.7-.3.2-.2.3-.4.3-.7 0-.3-.1-.5-.3-.7-.2-.2-.4-.3-.7-.3zM146.8 112.5l2.7-2.4c.4-.4.8-.7 1.1-1 .3-.3.5-.6.7-.8.2-.2.3-.5.4-.7.1-.2.1-.4.1-.7 0-.5-.1-.8-.3-1-.2-.2-.5-.3-.9-.3-.3 0-.5.1-.7.2-.2.1-.3.2-.4.4-.1.2-.2.3-.2.5s-.1.3-.1.5H147v-.4c0-.2 0-.3.1-.5 0-.2.1-.3.2-.5s.2-.4.4-.6c.3-.4.7-.7 1.2-.9.5-.2 1.1-.3 1.7-.3 1.2 0 2 .3 2.6.8.6.5.9 1.2.9 2.1 0 .4 0 .7-.1 1-.1.3-.2.6-.4.9-.2.3-.5.7-.9 1-.4.4-.8.8-1.4 1.3l-2.1 1.8 5-.1v1.7h-7.3v-2zM158.3 111.7v.4c0 .2.1.3.2.5s.2.3.4.4c.2.1.4.2.7.2.4 0 .8-.1 1-.4.2-.3.4-.6.4-1s-.1-.7-.2-.9c-.2-.2-.4-.4-.6-.5-.3-.1-.5-.2-.8-.2h-.9v-1.8h.8c.3 0 .6-.1.8-.2.3-.1.5-.2.6-.5.2-.2.3-.5.3-.9s-.1-.7-.4-.9c-.3-.2-.6-.3-.9-.3-.2 0-.3 0-.5.1s-.3.1-.4.2c-.1.1-.2.2-.3.4-.1.2-.1.3-.1.6h-2.3c0-.2.1-.5.1-.8.1-.3.2-.6.5-1s.8-.7 1.3-.9c.5-.2 1.1-.3 1.6-.3.7 0 1.2.1 1.7.3.5.2.8.4 1.1.7.3.3.5.6.6.9.1.3.2.6.2.9 0 .4-.1.8-.2 1.1-.2.3-.4.5-.6.7-.2.2-.4.3-.7.4-.2.1-.4.2-.5.2.2.1.4.1.6.2.2.1.4.2.7.4.2.2.3.3.4.5.1.2.2.3.3.5.1.2.1.3.1.5v.4c0 .4-.1.8-.3 1.2-.2.4-.5.7-.8 1-.3.3-.7.5-1.2.6-.5.2-1 .2-1.5.2h-.6c-.2 0-.4-.1-.7-.1-.2-.1-.4-.1-.7-.2l-.6-.3c-.2-.2-.4-.4-.5-.6-.1-.2-.2-.5-.3-.7-.1-.2-.1-.4-.1-.6v-.4h2.3zM165.7 104.1h2l-.4 3.7h-1.2l-.4-3.7zM169.8 112.5l2.7-2.4c.4-.4.8-.7 1.1-1 .3-.3.5-.6.7-.8.2-.2.3-.5.4-.7.1-.2.1-.4.1-.7 0-.5-.1-.8-.3-1-.2-.2-.5-.3-.9-.3-.3 0-.5.1-.7.2-.2.1-.3.2-.4.4-.1.2-.2.3-.2.5s-.1.3-.1.5h-2.3v-.4c0-.2 0-.3.1-.5 0-.2.1-.3.2-.5s.2-.4.4-.6c.3-.4.7-.7 1.2-.9.5-.2 1.1-.3 1.7-.3 1.1 0 2 .3 2.6.8.6.5.9 1.2.9 2.1 0 .4 0 .7-.1 1-.1.3-.2.6-.4.9-.2.3-.5.7-.9 1-.4.4-.8.8-1.4 1.3l-2.1 1.8 5-.1v1.7h-7.3v-2zM184.2 106.7c0-.4-.1-.6-.4-.8-.2-.2-.5-.2-.7-.2-.4 0-.7.1-.9.3-.2.2-.4.5-.5.8-.1.3-.2.6-.2 1 0 .3 0 .6-.1.9l.3-.3c.1-.1.3-.2.4-.3.2-.1.4-.2.6-.2.2-.1.5-.1.7-.1.4 0 .7.1 1.1.2.4.1.7.3 1 .6.3.3.5.6.7 1 .2.4.3.9.3 1.5s-.1 1.1-.3 1.5c-.2.4-.5.8-.9 1.2-.3.3-.7.6-1.2.7-.4.2-.9.2-1.5.2s-1.1-.1-1.5-.3c-.4-.2-.8-.4-1-.7-.3-.3-.5-.6-.6-1-.1-.4-.3-.7-.3-1.1-.1-.4-.1-.7-.1-1v-.8c0-.5 0-1 .1-1.6 0-.5.1-1 .2-1.5s.3-.9.5-1.3.5-.7.9-1c.2-.2.5-.3.7-.4.2-.1.5-.2.7-.2.2-.1.4-.1.6-.1h.4c.4 0 .8.1 1.1.2.4.1.7.3 1 .5.3.2.5.5.7.8.2.3.3.8.3 1.2h-2.1zm-1.2 6.4c.2 0 .3 0 .5-.1s.3-.2.5-.3c.1-.1.3-.3.3-.6.1-.2.1-.5.1-.9 0-.6-.1-1-.4-1.3-.3-.3-.6-.5-1-.5-.1 0-.2 0-.4.1-.2 0-.3.1-.5.3-.2.1-.3.3-.4.6-.1.2-.2.6-.2 1 0 .3 0 .6.1.8l.3.6c.1.2.3.3.5.3h.6zM189 112.6h1.9v2H189v-2zM195.6 111.7v.4c0 .2.1.3.2.5s.2.3.4.4c.2.1.4.2.7.2.4 0 .8-.1 1-.4.2-.3.4-.6.4-1s-.1-.7-.2-.9c-.2-.2-.4-.4-.6-.5-.3-.1-.5-.2-.8-.2h-.9v-1.8h.8c.3 0 .6-.1.8-.2.3-.1.5-.2.6-.5.2-.2.3-.5.3-.9s-.1-.7-.4-.9c-.3-.2-.6-.3-.9-.3-.2 0-.3 0-.5.1s-.3.1-.4.2c-.1.1-.2.2-.3.4-.1.2-.1.3-.1.6h-2.3c0-.2.1-.5.1-.8.1-.3.2-.6.5-1s.8-.7 1.3-.9c.5-.2 1.1-.3 1.6-.3.7 0 1.2.1 1.7.3.5.2.8.4 1.1.7.3.3.5.6.6.9.1.3.2.6.2.9 0 .4-.1.8-.2 1.1-.2.3-.4.5-.6.7-.2.2-.4.3-.7.4-.2.1-.4.2-.5.2.2.1.4.1.6.2.2.1.4.2.7.4.2.2.3.3.4.5.1.2.2.3.3.5.1.2.1.3.1.5v.4c0 .4-.1.8-.3 1.2-.2.4-.5.7-.8 1-.3.3-.7.5-1.2.6-.5.2-1 .2-1.5.2h-.6c-.2 0-.4-.1-.7-.1-.2-.1-.4-.1-.7-.2l-.6-.3c-.2-.2-.4-.4-.5-.6-.1-.2-.2-.5-.3-.7-.1-.2-.1-.4-.1-.6v-.4h2.3zM207.8 106.7c0-.4-.1-.6-.4-.8-.2-.2-.5-.2-.7-.2-.4 0-.7.1-.9.3-.2.2-.4.5-.5.8-.1.3-.2.6-.2 1 0 .3 0 .6-.1.9l.3-.3c.1-.1.3-.2.4-.3.2-.1.4-.2.6-.2.2-.1.5-.1.7-.1.4 0 .7.1 1.1.2.4.1.7.3 1 .6.3.3.5.6.7 1 .2.4.3.9.3 1.5s-.1 1.1-.3 1.5c-.2.4-.5.8-.9 1.2-.3.3-.7.6-1.2.7-.4.2-.9.2-1.5.2s-1.1-.1-1.5-.3c-.4-.2-.8-.4-1-.7-.3-.3-.5-.6-.6-1-.1-.4-.3-.7-.3-1.1-.1-.4-.1-.7-.1-1v-.8c0-.5 0-1 .1-1.6 0-.5.1-1 .2-1.5s.3-.9.5-1.3.5-.7.9-1c.2-.2.5-.3.7-.4.2-.1.5-.2.7-.2.2-.1.4-.1.6-.1h.4c.4 0 .8.1 1.1.2.4.1.7.3 1 .5.3.2.5.5.7.8.2.3.3.8.3 1.2h-2.1zm-1.3 6.4c.2 0 .3 0 .5-.1s.3-.2.5-.3c.1-.1.3-.3.3-.6.1-.2.1-.5.1-.9 0-.6-.1-1-.4-1.3-.3-.3-.6-.5-1-.5-.1 0-.2 0-.4.1-.2 0-.3.1-.5.3-.2.1-.3.3-.4.6-.1.2-.2.6-.2 1 0 .3 0 .6.1.8l.3.6c.1.2.3.3.5.3h.6zM214.1 112v.3c0 .1.1.3.2.4.1.1.2.2.4.3.2.1.4.2.6.2.2 0 .4 0 .6-.1.2-.1.4-.2.5-.4.1-.2.3-.4.3-.6.1-.2.1-.5.1-.9 0-.2 0-.5-.1-.7 0-.2-.1-.4-.2-.6-.1-.2-.3-.3-.4-.4-.2-.1-.4-.2-.6-.2-.3 0-.5 0-.6.1-.2.1-.3.2-.4.3-.1.1-.2.2-.2.4 0 .1-.1.2-.1.3l-2.2-.1.2-6.2h6.3v1.7h-4.4l-.1 2.6c.1-.1.2-.2.3-.2.1-.1.2-.2.4-.2.2-.1.3-.1.5-.2.2 0 .5-.1.8-.1.4 0 .8.1 1.2.2.4.2.7.4 1 .7.3.3.5.6.7 1.1.2.4.2.9.2 1.4 0 .4-.1.9-.2 1.3-.1.5-.4.9-.7 1.2-.3.4-.7.7-1.2.9-.5.2-1 .3-1.7.3-.5 0-1.1-.1-1.6-.2-.5-.2-1-.5-1.3-.9-.3-.3-.4-.6-.5-.9-.1-.3-.1-.5-.1-.7h2.3zM223.8 104.1l-.4 3.7h-1.2l-.4-3.7h2zm2.8 0l-.4 3.7H225l-.4-3.7h2zM229.7 103.7h7.3v1.8h-5v2.6h4.6v1.8H232v2.9h5.1v1.8h-7.4v-10.9z" class="st1"/></g><g><path d="M1.5 121.2h3.4l4.1 8.5v-8.5h2V132H7.8l-4.2-9v9H1.5v-10.8zM17.9 132.1c0-.2-.1-.4-.1-.6v-.4c-.2.3-.4.5-.7.7-.2.2-.4.3-.6.4-.2.1-.4.1-.6.1h-.4c-.6 0-1-.1-1.2-.2-.3-.1-.5-.3-.6-.4-.2-.2-.4-.5-.5-.8-.1-.3-.2-.6-.2-.9 0-.2 0-.3.1-.5 0-.2.1-.4.2-.6.1-.2.3-.4.5-.6.2-.2.5-.4.8-.6.2-.1.5-.2.8-.2.3-.1.5-.1.8-.1h1.4v-.6c0-.1 0-.3-.1-.4 0-.1-.1-.2-.2-.3-.1-.1-.2-.1-.3-.2-.1 0-.2-.1-.3-.1h-.2c-.2 0-.3 0-.5.1-.1.1-.3.2-.4.3-.1.1-.1.3-.1.4v.3h-2.2v-.4c0-.1.1-.3.1-.5.1-.2.1-.3.3-.5.1-.2.3-.3.5-.5.4-.2.7-.4 1.1-.5.4-.1.8-.1 1.2-.1h.6c.2 0 .5.1.7.1.2.1.5.2.7.3.2.1.5.3.7.5.1.2.2.3.3.5.1.2.1.4.2.5 0 .2.1.3.1.5v4.4c0 .3.1.6.1 1h-2zm-.3-3.6h-1c-.3 0-.6.1-.8.2-.2.1-.4.2-.5.4-.1.2-.2.4-.2.6 0 .1 0 .3.1.4 0 .1.1.2.2.3l.3.3c.1.1.3.1.5.1s.4 0 .5-.1c.2-.1.3-.2.4-.3.2-.2.3-.5.4-.8.1-.3.1-.7.1-1.1zm-.9-5.2h-1.2l1.2-2.2h2l-2 2.2zM22 126.4v-.4-.5-.5-.4h2.1v1.5c.1-.2.2-.3.3-.5.1-.2.3-.3.5-.5.2-.1.4-.3.7-.4.3-.1.7-.1 1.1-.1v2c-.6 0-1 0-1.3.1-.3.1-.6.2-.7.4-.2.2-.3.4-.3.7 0 .2-.1.5-.1.7v3.7H22v-5.8zM27.4 128.4c0-.5.1-.9.2-1.4.1-.5.3-.9.6-1.3s.7-.7 1.2-1 1.1-.4 1.9-.4c.7 0 1.3.1 1.8.3.5.2.9.5 1.2.9.3.4.6.8.7 1.3.1.5.2 1 .2 1.5s-.1 1-.2 1.5c-.2.5-.4.9-.7 1.3-.3.4-.7.7-1.2.9-.5.2-1.1.3-1.8.3-.5 0-1-.1-1.5-.2-.5-.2-.9-.4-1.2-.8-.4-.3-.6-.8-.8-1.3-.3-.4-.4-1-.4-1.6zm2.3 0c0 .9.1 1.5.4 1.9.3.4.7.6 1.2.6.2 0 .5 0 .7-.1.2-.1.4-.2.5-.4.1-.2.2-.5.3-.8.1-.3.1-.8.1-1.3 0-.3 0-.5-.1-.8 0-.3-.1-.5-.2-.8-.1-.2-.3-.4-.5-.6-.2-.2-.5-.2-.9-.2s-.7.1-.9.3c-.2.2-.4.4-.5.7-.1.3-.2.6-.2.8.1.3.1.5.1.7zM42.2 121.2h2.2V132h-2.2l-.1-1.1c-.1.1-.2.3-.3.4-.1.1-.3.3-.5.4-.3.2-.6.3-.8.3-.3 0-.5.1-.7.1-1 0-1.8-.3-2.4-1-.6-.7-.9-1.6-.9-2.8 0-.6.1-1.2.2-1.7s.4-.9.7-1.3c.3-.3.6-.6 1.1-.8.4-.2.9-.3 1.4-.3.3 0 .6 0 .9.1.2.1.5.2.6.3.2.1.3.2.4.3.1.1.2.2.2.3v-4zm-3.2 7.2c0 .3 0 .6.1.9.1.3.1.5.3.8.1.2.3.4.5.5.2.1.4.2.7.2.3 0 .6-.1.9-.3.3-.2.4-.4.6-.6.2-.3.3-.7.3-1 0-.3.1-.6.1-.8 0-.8-.1-1.3-.4-1.7-.3-.4-.7-.6-1.2-.6-.4 0-.7.1-.9.3-.2.2-.4.4-.5.7-.1.3-.2.6-.2.8-.3.4-.3.6-.3.8zM46.7 125.9v-.2-.3-.4-.4h2.1l.1 1.1c0-.1.1-.2.2-.4l.4-.4c.2-.1.4-.3.7-.4.3-.1.6-.2 1-.2s.7.1 1 .2c.3.1.5.2.7.4.2.1.3.3.4.5.1.2.2.3.2.4 0 .1.1.2.1.4 0 .1.1.3.1.4v5.6h-2.3v-4.7-.4c0-.1 0-.3-.1-.4-.1-.2-.2-.3-.4-.5-.2-.1-.4-.2-.7-.2-.2 0-.5.1-.7.2-.2.1-.4.2-.5.4-.1.1-.1.2-.2.4s-.1.4-.1.7v4.4h-2.2v-6.2zM56.1 124.5h2.2v7.6h-2.2v-7.6zm1.3-1.2h-1.2l1.2-2.2h2l-2 2.2zM69.5 132c-.4.1-.7.2-1 .2h-.7c-.6 0-1-.1-1.3-.2-.3-.2-.5-.3-.7-.6-.1-.2-.2-.4-.2-.7V126h-1.5v-1.5h1.5V123l2.2-.8v2.3h1.8v1.5h-1.8v3.9c0 .1.1.3.1.4.1.1.2.2.3.2.1 0 .3.1.6.1h.8v1.4zM72.7 128.9v.5c0 .2.1.5.2.7.1.2.3.4.5.6.2.2.5.2.9.2.3 0 .5-.1.8-.2.2-.1.4-.4.5-.8h2v.3s0 .3-.1.4c0 .1-.1.3-.2.5s-.2.3-.4.5c-.3.3-.7.5-1.1.7-.5.2-1 .2-1.5.2h-.6c-.2 0-.5-.1-.7-.1-.2-.1-.5-.2-.7-.3-.2-.1-.5-.3-.7-.5-.4-.4-.6-.8-.8-1.3-.2-.5-.2-1.1-.2-1.7 0-.3 0-.6.1-1 0-.3.1-.7.2-1 .1-.3.3-.6.5-.9.2-.3.5-.5.8-.8.3-.2.6-.4 1-.5.4-.1.7-.2 1.2-.2.3 0 .5 0 .8.1.3.1.6.2.8.3.3.1.5.3.8.6.2.2.4.5.6.9.1.3.2.5.3.8.1.3.1.5.1.8V129h-5.1zm2.8-1.4v-.4c0-.2-.1-.4-.1-.6-.1-.2-.2-.4-.4-.5-.2-.1-.4-.2-.8-.2-.2 0-.4 0-.6.1-.2.1-.3.2-.4.4-.1.2-.2.3-.3.5-.1.2-.1.4-.1.6h2.7zM83.5 127.2v-.3c0-.2-.1-.3-.1-.5-.1-.2-.2-.3-.3-.4-.1-.1-.3-.2-.5-.2-.3 0-.5.1-.6.3-.2.2-.3.4-.4.6s-.1.5-.2.8v1.2c0 .2 0 .4.1.6 0 .2.1.5.2.7.1.2.2.4.3.5.1.1.2.2.3.2h.5c.1 0 .2-.1.3-.2.1-.1.2-.2.3-.4.1-.2.1-.5.2-.8h2.2v.5c0 .2-.1.4-.1.6l-.3.6c-.1.2-.3.4-.5.6-.3.2-.6.4-.9.5-.3.1-.8.2-1.2.2-.5 0-1-.1-1.4-.2-.4-.1-.8-.4-1.2-.8-.3-.4-.6-.8-.7-1.3-.2-.5-.2-1.1-.2-1.7 0-.9.1-1.5.4-2.1.3-.5.6-.9 1-1.2.4-.3.8-.5 1.2-.5.4-.1.7-.1 1-.1.4 0 .7.1 1.1.2.4.1.7.3 1 .5.3.2.5.5.7.9.2.4.3.8.3 1.3h-2.5zM87.4 121.2h2.2v4.3c.1-.1.1-.2.3-.3.1-.1.2-.3.4-.4l.6-.3c.2-.1.5-.1.9-.1.3 0 .5 0 .8.1.2.1.4.1.6.2.2.1.3.2.5.3.1.1.2.2.3.4.1.2.3.5.4.8.1.3.1.8.1 1.3v4.6h-2.2v-4.5-.4c0-.2-.1-.4-.1-.5-.1-.2-.2-.3-.4-.5-.2-.1-.4-.2-.7-.2-.2 0-.3 0-.5.1s-.3.1-.5.3c-.1.1-.3.3-.3.5-.1.2-.1.4-.1.7v4.6h-2.2v-11zM96.8 125.9v-.2-.3-.4-.4h2.1l.1 1.1c0-.1.1-.2.2-.4l.4-.4c.2-.1.4-.3.7-.4.3-.1.6-.2 1-.2s.7.1 1 .2c.3.1.5.2.7.4.2.1.3.3.4.5.1.2.2.3.2.4 0 .1.1.2.1.4 0 .1.1.3.1.4v5.6h-2.3v-4.7-.4c0-.1 0-.3-.1-.4-.1-.2-.2-.3-.4-.5-.2-.1-.4-.2-.7-.2-.2 0-.5.1-.7.2-.2.1-.4.2-.5.4-.1.1-.1.2-.2.4s-.1.4-.1.7v4.4h-2.2v-6.2zM106.2 121.2h2.4v1.9h-2.4v-1.9zm.1 3.3h2.2v7.6h-2.2v-7.6zM114.7 127.2v-.3c0-.2-.1-.3-.1-.5-.1-.2-.2-.3-.3-.4-.1-.1-.3-.2-.5-.2-.3 0-.5.1-.6.3-.2.2-.3.4-.4.6-.1.2-.1.5-.2.8v1.2c0 .2 0 .4.1.6 0 .2.1.5.2.7.1.2.2.4.3.5.1.1.2.2.3.2h.5c.1 0 .2-.1.3-.2.1-.1.2-.2.3-.4.1-.2.1-.5.2-.8h2.2v.5c0 .2-.1.4-.1.6l-.3.6c-.1.2-.3.4-.5.6-.3.2-.6.4-.9.5-.3.1-.8.2-1.2.2-.5 0-1-.1-1.4-.2-.4-.1-.8-.4-1.2-.8-.3-.4-.6-.8-.7-1.3-.2-.5-.2-1.1-.2-1.7 0-.9.1-1.5.4-2.1.3-.5.6-.9 1-1.2.4-.3.8-.5 1.2-.5.4-.1.7-.1 1-.1.4 0 .7.1 1.1.2.4.1.7.3 1 .5.3.2.5.5.7.9.2.4.3.8.3 1.3h-2.5zM118.6 121.2h2.2v6.4l2.3-3.2h2.5l-2.6 3.3 2.8 4.3h-2.6l-2.3-4.1v4.1h-2.2v-10.8zM131.5 132.1c0-.2-.1-.4-.1-.6v-.4c-.2.3-.4.5-.7.7-.2.2-.4.3-.6.4-.2.1-.4.1-.6.1h-.4c-.6 0-1-.1-1.2-.2-.3-.1-.5-.3-.6-.4-.2-.2-.4-.5-.5-.8-.1-.3-.2-.6-.2-.9 0-.2 0-.3.1-.5 0-.2.1-.4.2-.6.1-.2.3-.4.5-.6.2-.2.5-.4.8-.6.2-.1.5-.2.8-.2.3-.1.5-.1.8-.1h1.4v-.6c0-.1 0-.3-.1-.4 0-.1-.1-.2-.2-.3-.1-.1-.2-.1-.3-.2-.1 0-.2-.1-.3-.1h-.2c-.2 0-.3 0-.5.1-.1.1-.3.2-.4.3-.1.1-.1.3-.1.4v.3h-2.2v-.4c0-.1.1-.3.1-.5.1-.2.1-.3.3-.5.1-.2.3-.3.5-.5.4-.2.7-.4 1.1-.5.4-.1.8-.1 1.2-.1h.6c.2 0 .5.1.7.1.2.1.5.2.7.3s.5.3.7.5c.1.2.2.3.3.5.1.2.1.4.2.5 0 .2.1.3.1.5v4.4c0 .3.1.6.1 1h-2zm-.3-3.6h-1c-.3 0-.6.1-.8.2-.2.1-.4.2-.5.4-.1.2-.2.4-.2.6 0 .1 0 .3.1.4 0 .1.1.2.2.3l.3.3c.1.1.3.1.5.1s.4 0 .5-.1c.2-.1.3-.2.4-.3.2-.2.3-.5.4-.8.1-.3.1-.7.1-1.1zm-.9-5.2h-1.2l1.2-2.2h2l-2 2.2zM140.1 121.2h2.2v6.4l2.3-3.2h2.5l-2.6 3.3 2.8 4.3h-2.6l-2.3-4.1v4.1h-2.2v-10.8zM148.7 125.9v-.2-.3-.4-.4h2.1l.1 1.1c.1-.1.1-.2.2-.4s.3-.3.4-.4c.2-.1.4-.3.7-.4.3-.1.6-.2 1.1-.2.4 0 .7.1 1 .2.3.1.5.2.7.4.2.1.3.3.4.5.1.2.2.3.2.4 0 .1.1.2.1.4 0 .1.1.3.1.4v5.6h-2.3v-4.7-.4c0-.1 0-.3-.1-.4-.1-.2-.2-.3-.4-.5-.2-.1-.4-.2-.7-.2-.2 0-.5.1-.7.2-.2.1-.4.2-.5.4-.1.1-.1.2-.2.4s-.1.4-.1.7v4.4h-2.2v-6.2zM158.1 121.2h2.4v1.9h-2.4v-1.9zm.1 3.3h2.2v7.6h-2.2v-7.6zM162.7 121.2h2.2v4.3c.1-.1.1-.2.3-.3.1-.1.2-.3.4-.4l.6-.3c.2-.1.5-.1.9-.1.3 0 .5 0 .8.1.2.1.4.1.6.2.2.1.3.2.5.3.1.1.2.2.3.4.1.2.3.5.4.8.1.3.1.8.1 1.3v4.6h-2.2v-4.5-.4c0-.2-.1-.4-.1-.5-.1-.2-.2-.3-.4-.5-.2-.1-.4-.2-.7-.2-.2 0-.3 0-.5.1s-.3.1-.5.3c-.1.1-.3.3-.3.5-.1.2-.1.4-.1.7v4.6h-2.2v-11zM171.8 128.4c0-.5.1-.9.2-1.4.1-.5.3-.9.6-1.3s.7-.7 1.2-1 1.1-.4 1.9-.4c.7 0 1.3.1 1.8.3.5.2.9.5 1.2.9.3.4.6.8.7 1.3.2.5.2 1 .2 1.5s-.1 1-.2 1.5c-.2.5-.4.9-.7 1.3-.3.4-.7.7-1.2.9-.5.2-1.1.3-1.8.3-.5 0-1-.1-1.5-.2-.5-.2-.9-.4-1.2-.8-.3-.3-.6-.8-.8-1.3-.3-.4-.4-1-.4-1.6zm2.2 0c0 .9.1 1.5.4 1.9.3.4.7.6 1.2.6.2 0 .5 0 .7-.1.2-.1.4-.2.5-.4.1-.2.2-.5.3-.8.1-.3.1-.8.1-1.3 0-.3 0-.5-.1-.8 0-.3-.1-.5-.2-.8-.1-.2-.3-.4-.5-.6-.2-.2-.5-.2-.9-.2s-.7.1-.9.3c-.2.2-.4.4-.5.7-.1.3-.2.6-.2.8.1.3.1.5.1.7zM182.8 124.5l1.7 5.1 1.7-5.1h2.1l-2.7 7.6h-2.5l-2.8-7.6h2.5zM189.9 125.9v-.2-.3-.4-.4h2.1l.1 1.1c.1-.1.1-.2.2-.4l.4-.4c.2-.1.4-.3.7-.4.3-.1.6-.2 1.1-.2.4 0 .7.1 1 .2.3.1.5.2.7.4.2.1.3.3.4.5.1.2.2.3.2.4 0 .1.1.2.1.4 0 .1.1.3.1.4v5.6h-2.3v-4.7-.4c0-.1 0-.3-.1-.4-.1-.2-.2-.3-.4-.5-.2-.1-.4-.2-.7-.2-.2 0-.5.1-.7.2-.2.1-.4.2-.5.4-.1.1-.1.2-.2.4s-.1.4-.1.7v4.4h-2.2v-6.2zM203.9 132.1c0-.2-.1-.4-.1-.6v-.4c-.2.3-.4.5-.7.7-.2.2-.4.3-.6.4-.2.1-.4.1-.6.1h-.4c-.5 0-1-.1-1.2-.2s-.5-.3-.6-.4c-.2-.2-.4-.5-.5-.8-.1-.3-.2-.6-.2-.9 0-.2 0-.3.1-.5 0-.2.1-.4.2-.6.1-.2.3-.4.5-.6.2-.2.5-.4.8-.6.2-.1.5-.2.8-.2.3-.1.5-.1.8-.1h1.4v-.6c0-.1 0-.3-.1-.4-.1-.1-.1-.2-.2-.3-.1-.1-.2-.1-.3-.2-.1 0-.2-.1-.3-.1h-.2c-.2 0-.3 0-.5.1s-.3.2-.4.3c-.1.1-.1.3-.1.4v.3h-2.2v-.4c0-.1.1-.3.1-.5.1-.2.1-.3.3-.5.1-.2.3-.3.5-.5.3-.2.7-.4 1.1-.5.4-.1.8-.1 1.2-.1h.6c.2 0 .5.1.7.1.2.1.5.2.7.3.2.1.5.3.7.5.1.2.2.3.3.5.1.2.1.4.2.5 0 .2.1.3.1.5v4.4c0 .3.1.6.1 1h-2zm-.3-3.6h-1c-.3 0-.6.1-.8.2-.2.1-.4.2-.5.4-.1.2-.2.4-.2.6 0 .1 0 .3.1.4 0 .1.1.2.2.3l.3.3c.1.1.3.1.5.1s.4 0 .5-.1c.2-.1.3-.2.4-.3.2-.2.3-.5.4-.8.1-.3.1-.7.1-1.1zM1.5 138.7h3.4l4.1 8.5v-8.5h2v10.8H7.8l-4.2-9v9H1.5v-10.8zM17.9 149.6c0-.2-.1-.4-.1-.6v-.4c-.2.3-.4.5-.7.7-.2.2-.4.3-.6.4-.2.1-.4.1-.6.1h-.4c-.6 0-1-.1-1.2-.2-.3-.1-.5-.3-.6-.4-.2-.2-.4-.5-.5-.8-.1-.3-.2-.6-.2-.9 0-.2 0-.3.1-.5 0-.2.1-.4.2-.6.1-.2.3-.4.5-.6.2-.2.5-.4.8-.6.2-.1.5-.2.8-.2.3-.1.5-.1.8-.1h1.4v-.6c0-.1 0-.3-.1-.4 0-.1-.1-.2-.2-.3-.1-.1-.2-.1-.3-.2-.1 0-.2-.1-.3-.1h-.2c-.2 0-.3 0-.5.1-.1.1-.3.2-.4.3-.1.1-.1.3-.1.4v.3h-2.2v-.4c0-.1.1-.3.1-.5.1-.2.1-.3.3-.5.1-.2.3-.3.5-.5.4-.2.7-.4 1.1-.5.4-.1.8-.1 1.2-.1h.6c.2 0 .5.1.7.1s.5.2.7.3c.2.1.5.3.7.5.1.2.2.3.3.5.1.2.1.4.2.5 0 .2.1.3.1.5v4.4c0 .3.1.6.1 1h-2zm-.3-3.6h-1c-.3 0-.6.1-.8.2-.2.1-.4.2-.5.4-.1.2-.2.4-.2.6 0 .1 0 .3.1.4 0 .1.1.2.2.3l.3.3c.1.1.3.1.5.1s.4 0 .5-.1c.2-.1.3-.2.4-.3.2-.2.3-.5.4-.8.1-.3.1-.7.1-1.1zM26.4 149.5c-.4.1-.7.2-1 .2h-.7c-.6 0-1-.1-1.3-.2-.3-.2-.5-.3-.7-.6-.1-.2-.2-.4-.2-.7v-4.8H21V142h1.5v-1.5l2.2-.8v2.3h1.8v1.5h-1.8v3.9c0 .1.1.3.1.4.1.1.2.2.3.2.1 0 .3.1.6.1h.8v1.4zM28 138.7h2.4v1.9H28v-1.9zm.1 3.3h2.2v7.6h-2.2V142zM32.2 145.9c0-.5.1-.9.2-1.4.1-.5.3-.9.6-1.3s.7-.7 1.2-1 1.1-.4 1.9-.4c.7 0 1.3.1 1.8.3.5.2.9.5 1.2.9.3.4.6.8.7 1.3.1.5.2 1 .2 1.5s-.1 1-.2 1.5c-.2.5-.4.9-.7 1.3-.3.4-.7.7-1.2.9-.5.2-1.1.3-1.8.3-.5 0-1-.1-1.5-.2-.5-.2-.9-.4-1.2-.8-.4-.3-.6-.8-.8-1.3-.3-.4-.4-1-.4-1.6zm2.3 0c0 .9.1 1.5.4 1.9.3.4.7.6 1.2.6.2 0 .5 0 .7-.1.2-.1.4-.2.5-.4.1-.2.2-.5.3-.8.1-.3.1-.8.1-1.3 0-.2 0-.5-.1-.8 0-.3-.1-.5-.2-.8-.1-.2-.3-.4-.5-.6-.2-.2-.5-.2-.9-.2s-.7.1-.9.3c-.2.2-.4.4-.5.7-.1.3-.2.6-.2.8.1.3.1.5.1.7zM42.1 143.4v-.2-.3-.4-.4h2.1l.1 1.1c0-.1.1-.2.2-.4l.4-.4c.2-.1.4-.3.7-.4.3-.1.6-.2 1-.2s.7.1 1 .2c.3.1.5.2.7.4.2.1.3.3.4.5.1.2.2.3.2.4 0 .1.1.2.1.4 0 .1.1.3.1.4v5.6h-2.3V145v-.4c0-.1 0-.3-.1-.4-.1-.2-.2-.3-.4-.5-.2-.1-.4-.2-.7-.2-.2 0-.5.1-.7.2-.2.1-.4.2-.5.4-.1.1-.1.2-.2.4s-.1.4-.1.7v4.4h-2.2v-6.2zM56 149.6c0-.2-.1-.4-.1-.6v-.4c-.2.3-.4.5-.7.7-.2.2-.4.3-.6.4-.2.1-.4.1-.6.1h-.4c-.6 0-1-.1-1.2-.2-.3-.1-.5-.3-.6-.4-.2-.2-.4-.5-.5-.8-.1-.3-.2-.6-.2-.9 0-.2 0-.3.1-.5 0-.2.1-.4.2-.6.1-.2.3-.4.5-.6.2-.2.5-.4.8-.6.2-.1.5-.2.8-.2.3-.1.5-.1.8-.1h1.4v-.6c0-.1 0-.3-.1-.4 0-.1-.1-.2-.2-.3-.1-.1-.2-.1-.3-.2-.1 0-.2-.1-.3-.1h-.2c-.2 0-.3 0-.5.1-.1.1-.3.2-.4.3-.1.1-.1.3-.1.4v.3h-2.2v-.4c0-.1.1-.3.1-.5.1-.2.1-.3.3-.5.1-.2.3-.3.5-.5.4-.2.7-.4 1.1-.5.4-.1.8-.1 1.2-.1h.6c.2 0 .5.1.7.1s.5.2.7.3c.2.1.5.3.7.5.1.2.2.3.3.5.1.2.1.4.2.5 0 .2.1.3.1.5v4.4c0 .3.1.6.1 1h-2zm-.2-3.6h-1c-.3 0-.6.1-.8.2-.2.1-.4.2-.5.4-.1.2-.2.4-.2.6 0 .1 0 .3.1.4 0 .1.1.2.2.3l.3.3c.1.1.3.1.5.1s.4 0 .5-.1c.2-.1.3-.2.4-.3.2-.2.3-.5.4-.8 0-.3.1-.7.1-1.1zM60.1 138.7h2.2v10.8h-2.2v-10.8zM69.1 138.7h2.4v9h4.7v1.8h-7v-10.8zM77.6 138.7H80v1.9h-2.4v-1.9zm.1 3.3h2.2v7.6h-2.2V142zM82.1 138.7h2.2v4.2l.6-.6.6-.3c.2-.1.4-.1.5-.1h.4c.5 0 .9.1 1.3.3.4.2.8.4 1 .8.3.3.5.8.7 1.3.2.5.3 1.1.3 1.7 0 .7-.1 1.3-.3 1.8-.2.5-.4.9-.7 1.2-.3.3-.6.5-1 .7-.4.1-.8.2-1.1.2h-.4c-.2 0-.4-.1-.6-.1-.2-.1-.4-.2-.7-.4-.2-.2-.4-.4-.6-.7v1.1h-2.1v-11.1zm5.4 7.3v-.7c0-.3-.1-.6-.2-.9-.1-.3-.3-.5-.5-.8-.2-.2-.5-.3-.9-.3s-.7.1-.9.3c-.2.2-.4.4-.5.7-.1.3-.2.5-.2.8v.6c0 .9.2 1.5.5 1.9.3.4.7.6 1.3.6.4 0 .7-.1.9-.3.2-.2.4-.4.5-.7.1-.3.2-.5.2-.8-.2-.2-.2-.3-.2-.4zM91.7 143.9v-.4-.5-.5-.4h2.1v1.5c.1-.2.2-.3.3-.5.1-.2.3-.3.5-.5.2-.1.4-.3.7-.4.3-.1.7-.1 1.1-.1v2c-.6 0-1 0-1.3.1-.3.1-.6.2-.7.4-.2.2-.3.4-.3.7 0 .2-.1.5-.1.7v3.7h-2.2v-5.8zM102 149.6c0-.2-.1-.4-.1-.6v-.4c-.2.3-.4.5-.7.7-.2.2-.4.3-.6.4-.2.1-.4.1-.6.1h-.4c-.6 0-1-.1-1.2-.2-.3-.1-.5-.3-.6-.4-.2-.2-.4-.5-.5-.8-.1-.3-.2-.6-.2-.9 0-.2 0-.3.1-.5 0-.2.1-.4.2-.6.1-.2.3-.4.5-.6.2-.2.5-.4.8-.6.2-.1.5-.2.8-.2.3-.1.5-.1.8-.1h1.4v-.6c0-.1 0-.3-.1-.4 0-.1-.1-.2-.2-.3-.1-.1-.2-.1-.3-.2-.1 0-.2-.1-.3-.1h-.2c-.2 0-.3 0-.5.1-.1.1-.3.2-.4.3-.1.1-.1.3-.1.4v.3h-2.2v-.4c0-.1.1-.3.1-.5.1-.2.1-.3.3-.5.1-.2.3-.3.5-.5.4-.2.7-.4 1.1-.5.4-.1.8-.1 1.2-.1h.6c.2 0 .5.1.7.1s.5.2.7.3c.2.1.5.3.7.5.1.2.2.3.3.5.1.2.1.4.2.5 0 .2.1.3.1.5v4.4c0 .3.1.6.1 1h-2zm-.3-3.6h-1c-.3 0-.6.1-.8.2-.2.1-.4.2-.5.4-.1.2-.2.4-.2.6 0 .1 0 .3.1.4s.1.2.2.3l.3.3c.1.1.3.1.5.1s.4 0 .5-.1c.2-.1.3-.2.4-.3.2-.2.3-.5.4-.8.1-.3.1-.7.1-1.1zM106.1 143.9v-.4-.5-.5-.4h2.1v1.5c.1-.2.2-.3.3-.5.1-.2.3-.3.5-.5.2-.1.4-.3.7-.4.3-.1.7-.1 1.1-.1v2c-.6 0-1 0-1.3.1-.3.1-.6.2-.7.4-.2.2-.3.4-.3.7 0 .2-.1.5-.1.7v3.7h-2.2v-5.8zM113.9 142l1.7 5.2 1.7-5.2h2.2l-2.9 7.4-.9 3h-2.2l1-2.8-2.9-7.6h2.3zM125 145.9c0-.5.1-.9.2-1.4.1-.5.3-.9.6-1.3s.7-.7 1.2-1 1.1-.4 1.9-.4c.7 0 1.3.1 1.8.3.5.2.9.5 1.2.9.3.4.6.8.7 1.3.2.5.2 1 .2 1.5s-.1 1-.2 1.5c-.2.5-.4.9-.7 1.3s-.7.7-1.2.9c-.5.2-1.1.3-1.8.3-.5 0-1-.1-1.5-.2-.5-.2-.9-.4-1.2-.8-.4-.3-.6-.8-.8-1.3-.3-.4-.4-1-.4-1.6zm2.3 0c0 .9.1 1.5.4 1.9.3.4.7.6 1.2.6.2 0 .5 0 .7-.1.2-.1.4-.2.5-.4.1-.2.2-.5.3-.8.1-.3.1-.8.1-1.3 0-.2 0-.5-.1-.8 0-.3-.1-.5-.2-.8-.1-.2-.3-.4-.5-.6-.2-.2-.5-.2-.9-.2s-.7.1-.9.3c-.2.2-.4.4-.5.7-.1.3-.2.6-.2.8.1.3.1.5.1.7zM135 143.6h-1.1V142h1.1v-1c0-.3 0-.6.1-.9.1-.3.2-.6.4-.8.2-.2.5-.4.8-.5.3-.1.8-.2 1.3-.2h.4c.2 0 .5 0 .8.1v1.5h-.4c-.3 0-.5 0-.7.1-.2.1-.3.1-.3.2-.1.1-.1.2-.1.3v1.2h1.4v1.6h-1.4v6H135v-6zM147.1 140.5h-3.2v-1.8h8.8v1.8h-3.2v9.1h-2.3v-9.1zM153.6 146.4v.5c0 .2.1.5.2.7.1.2.3.4.5.6.2.2.5.2.9.2.3 0 .5-.1.8-.2.2-.1.4-.4.5-.8h2v.3c0 .1 0 .3-.1.4-.1.1-.1.3-.2.5s-.2.3-.4.5c-.3.3-.7.5-1.1.7-.5.2-1 .2-1.5.2h-.6c-.2 0-.5-.1-.7-.1-.2-.1-.5-.2-.7-.3-.2-.1-.5-.3-.7-.5-.4-.4-.6-.8-.8-1.3-.2-.5-.2-1.1-.2-1.7 0-.3 0-.6.1-1 0-.3.1-.7.2-1 .1-.3.3-.6.5-.9.2-.3.5-.5.8-.8.3-.2.6-.4 1-.5.4-.1.7-.2 1.2-.2.3 0 .6 0 .8.1.3.1.6.2.8.3.3.1.5.3.8.6.2.2.4.5.6.9.1.3.2.5.3.8.1.3.1.5.1.8V146.5h-5.1zm2.8-1.4v-.4c0-.2-.1-.4-.1-.6-.1-.2-.2-.4-.4-.5-.2-.1-.4-.2-.8-.2-.2 0-.4 0-.6.1-.2.1-.3.2-.4.4-.1.2-.2.3-.3.5-.1.2-.1.4-.1.6h2.7zM164.5 144.7v-.3c0-.2-.1-.3-.1-.5-.1-.2-.2-.3-.3-.4-.1-.1-.3-.2-.5-.2-.3 0-.5.1-.6.3-.2.2-.3.4-.4.6-.1.2-.1.5-.2.8v1.2c0 .2 0 .4.1.6 0 .2.1.5.2.7s.2.4.3.5c.1.1.2.2.3.2h.5c.1 0 .2-.1.3-.2.1-.1.2-.2.3-.4.1-.2.1-.5.2-.8h2.2v.5c0 .2-.1.4-.1.6l-.3.6c-.1.2-.3.4-.5.6-.3.2-.6.4-.9.5-.3.1-.8.2-1.2.2-.5 0-1-.1-1.4-.2-.4-.1-.8-.4-1.2-.8-.3-.4-.6-.8-.7-1.3-.2-.5-.2-1.1-.2-1.7 0-.9.1-1.5.4-2.1.3-.5.6-.9 1-1.2.4-.3.8-.5 1.2-.5.4-.1.7-.1 1-.1.3 0 .7.1 1.1.2.4.1.7.3 1 .5.3.2.5.5.7.9.2.4.3.8.3 1.3h-2.5zM168.3 138.7h2.2v4.3c.1-.1.1-.2.3-.3.1-.1.2-.3.4-.4l.6-.3c.2-.1.5-.1.9-.1.3 0 .5 0 .8.1.2.1.4.1.6.2.2.1.3.2.5.3.1.1.2.2.3.4.1.2.3.5.4.8.1.3.1.8.1 1.3v4.6h-2.2V145v-.4c0-.2-.1-.4-.1-.5-.1-.2-.2-.3-.4-.5-.2-.1-.4-.2-.7-.2-.2 0-.3 0-.5.1s-.3.1-.5.3c-.1.1-.3.3-.3.5-.1.2-.1.4-.1.7v4.6h-2.2v-10.9zM177.8 143.4v-.2-.3-.4-.4h2.1l.1 1.1c0-.1.1-.2.2-.4.1-.1.3-.3.5-.4.2-.1.4-.3.7-.4.3-.1.6-.2 1.1-.2.4 0 .7.1 1 .2.3.1.5.2.7.4.2.1.3.3.4.5.1.2.2.3.2.4 0 .1.1.2.1.4 0 .1.1.3.1.4v5.6h-2.3V145v-.4c0-.1 0-.3-.1-.4-.1-.2-.2-.3-.4-.5-.2-.1-.4-.2-.7-.2-.2 0-.5.1-.7.2-.2.1-.4.2-.5.4-.1.1-.1.2-.2.4s-.1.4-.1.7v4.4h-2.2v-6.2zM186.8 145.9c0-.5.1-.9.2-1.4.1-.5.3-.9.6-1.3s.7-.7 1.2-1 1.1-.4 1.9-.4c.7 0 1.3.1 1.8.3.5.2.9.5 1.2.9.3.4.6.8.7 1.3.2.5.2 1 .2 1.5s-.1 1-.2 1.5c-.2.5-.4.9-.7 1.3-.3.4-.7.7-1.2.9-.5.2-1.1.3-1.8.3-.5 0-1-.1-1.5-.2-.5-.2-.9-.4-1.2-.8-.3-.3-.6-.8-.8-1.3-.3-.4-.4-1-.4-1.6zm2.3 0c0 .9.1 1.5.4 1.9.3.4.7.6 1.2.6.2 0 .5 0 .7-.1.2-.1.4-.2.5-.4.1-.2.2-.5.3-.8.1-.3.1-.8.1-1.3 0-.2 0-.5-.1-.8 0-.3-.1-.5-.2-.8-.1-.2-.3-.4-.5-.6-.2-.2-.5-.2-.9-.2s-.7.1-.9.3c-.2.2-.4.4-.5.7-.1.3-.2.6-.2.8.1.3.1.5.1.7zM196.7 138.7h2.2v10.8h-2.2v-10.8zM200.8 145.9c0-.5.1-.9.2-1.4.1-.5.3-.9.6-1.3s.7-.7 1.2-1 1.1-.4 1.9-.4c.7 0 1.3.1 1.8.3.5.2.9.5 1.2.9.3.4.6.8.7 1.3.2.5.2 1 .2 1.5s-.1 1-.2 1.5c-.2.5-.4.9-.7 1.3-.3.4-.7.7-1.2.9-.5.2-1.1.3-1.8.3-.5 0-1-.1-1.5-.2-.5-.2-.9-.4-1.2-.8-.3-.3-.6-.8-.8-1.3-.3-.4-.4-1-.4-1.6zm2.3 0c0 .9.1 1.5.4 1.9.3.4.7.6 1.2.6.2 0 .5 0 .7-.1.2-.1.4-.2.5-.4.1-.2.2-.5.3-.8.1-.3.1-.8.1-1.3 0-.2 0-.5-.1-.8 0-.3-.1-.5-.2-.8-.1-.2-.3-.4-.5-.6-.2-.2-.5-.2-.9-.2s-.7.1-.9.3c-.2.2-.4.4-.5.7-.1.3-.2.6-.2.8.1.3.1.5.1.7zM217.8 142c0 .3-.1.6-.1.9v6.6c0 .7-.1 1.3-.4 1.7-.3.4-.6.7-1 .9-.4.2-.8.3-1.2.4-.4.1-.8.1-1.2.1-.3 0-.6 0-1-.1-.4 0-.7-.1-1.1-.3-.3-.2-.6-.4-.9-.7-.2-.3-.4-.8-.4-1.3h2.1c0 .1 0 .1.1.3 0 .1.1.2.2.3.1.1.2.2.4.3.2.1.4.1.7.1.3 0 .6-.1.9-.2.3-.2.4-.4.5-.8 0-.1 0-.2.1-.3v-.3-.5-.7c-.2.2-.4.4-.5.6-.2.1-.4.2-.5.3-.2.1-.4.1-.5.1h-.4c-.5 0-1-.1-1.4-.3-.4-.2-.7-.5-1-.8-.3-.3-.5-.7-.6-1.2-.1-.4-.2-.9-.2-1.4 0-.5.1-.9.2-1.4.1-.5.3-.9.6-1.2.3-.3.6-.6 1-.8.4-.2.9-.3 1.4-.3.3 0 .6 0 .9.1l.6.3c.2.1.3.2.4.4s.2.2.2.3l.1-1h2zm-5.3 3.7v.5c0 .2.1.5.2.7s.2.5.4.7c.2.2.5.3.9.3s.7-.1.9-.3c.2-.2.4-.4.5-.7.1-.2.2-.5.2-.7v-.5-.7c0-.3-.1-.5-.2-.8-.1-.2-.3-.4-.5-.6-.2-.2-.5-.2-.8-.2-.4 0-.8.2-1.1.5-.4.4-.5 1-.5 1.8zM221.4 142l1.7 5.2 1.7-5.2h2.2l-2.9 7.4-.9 3H221l1-2.8-3-7.6h2.4z" class="st0"/></g></svg>