<svg xmlns="http://www.w3.org/2000/svg" width="238" height="132" viewBox="0 0 238 132">
  <g fill="none">
    <path fill="#FFFFFF" d="M1.4,0 L22.8,0 L48.6,54.2 L48.6,0 L62.3,0 L62.3,68.9 L42,68.9 L15.3,11.7 L15.3,68.9 L1.4,68.9 L1.4,0 Z M97.7,11.4 L77.2,11.4 L77.2,0 L133.1,0 L133.1,11.4 L112.6,11.4 L112.6,68.9 L97.7,68.9 L97.7,11.4 Z M147.7,0.2 L162.5,0.2 L162.5,29.8 L185.5,0 L202.8,0 L177.5,30.9 L205,68.9 L186.6,68.9 L162.5,33.8 L162.5,68.9 L147.7,68.9 L147.7,0.2 Z"/>
    <path fill="#E63329" d="M3.1,91 L3.1,91.3 C3.1,91.4 3.2,91.6 3.3,91.7 C3.4,91.8 3.5,91.9 3.7,92 C3.9,92.1 4.1,92.2 4.3,92.2 C4.5,92.2 4.7,92.2 4.9,92.1 C5.1,92 5.2,91.9 5.4,91.7 C5.5,91.5 5.7,91.3 5.7,91.1 C5.8,90.9 5.8,90.6 5.8,90.2 C5.8,90 5.8,89.7 5.7,89.5 C5.7,89.3 5.6,89.1 5.5,88.9 C5.4,88.7 5.2,88.6 5.1,88.5 C4.9,88.4 4.7,88.3 4.5,88.3 C4.3,88.3 4,88.3 3.9,88.4 C3.7,88.5 3.6,88.6 3.5,88.7 C3.4,88.8 3.3,88.9 3.3,89.1 C3.3,89.2 3.2,89.3 3.2,89.4 L1,89.3 L1.2,83.1 L7.5,83.1 L7.5,84.8 L3.2,84.8 L3.1,87.4 C3.2,87.3 3.3,87.2 3.4,87.2 C3.5,87.1 3.6,87 3.8,87 C4,86.9 4.1,86.9 4.3,86.8 C4.5,86.8 4.8,86.7 5.1,86.7 C5.5,86.7 5.9,86.8 6.3,86.9 C6.7,87.1 7,87.3 7.3,87.6 C7.6,87.9 7.8,88.2 8,88.7 C8.2,89.1 8.2,89.6 8.2,90.1 C8.2,90.5 8.1,91 8,91.4 C7.9,91.9 7.6,92.3 7.3,92.6 C7,93 6.6,93.3 6.1,93.5 C5.6,93.7 5.1,93.8 4.4,93.8 C3.8,93.8 3.3,93.7 2.8,93.6 C2.3,93.4 1.8,93.1 1.5,92.7 C1.2,92.4 1.1,92.1 1,91.8 C0.9,91.5 0.9,91.3 0.9,91.1 L3.1,91.1 L3.1,91 Z M10.3,88.4 L10.3,87.5 C10.3,87.1 10.4,86.8 10.5,86.4 C10.6,86 10.7,85.6 10.9,85.2 C11.1,84.8 11.3,84.4 11.5,84.1 C11.8,83.8 12.1,83.5 12.5,83.3 C12.9,83.1 13.4,83 13.9,83 C14.3,83 14.6,83 14.9,83.1 C15.2,83.2 15.4,83.3 15.7,83.4 C15.9,83.5 16.1,83.7 16.3,83.8 C16.5,84 16.6,84.1 16.7,84.3 C16.8,84.5 17,84.7 17.1,85 C17.2,85.2 17.3,85.5 17.4,85.8 C17.5,86.1 17.5,86.4 17.6,86.8 C17.6,87.2 17.7,87.6 17.7,88.1 C17.7,88.7 17.7,89.3 17.6,90 C17.5,90.7 17.3,91.3 17.1,91.8 C16.8,92.4 16.5,92.8 16,93.2 C15.5,93.6 14.9,93.7 14.1,93.7 C13.4,93.7 12.9,93.5 12.4,93.3 C11.9,93 11.6,92.6 11.3,92.1 C11,91.6 10.8,91 10.7,90.4 C10.3,89.7 10.3,89.1 10.3,88.4 L10.3,88.4 Z M15.3,88.5 L15.3,87.9 L15.3,87.2 C15.3,87 15.3,86.7 15.2,86.5 C15.2,86.3 15.1,86.1 15.1,85.9 C15.1,85.8 15,85.7 15,85.6 C15,85.5 14.9,85.3 14.8,85.2 C14.7,85.1 14.6,84.9 14.5,84.8 C14.4,84.7 14.2,84.6 14,84.6 C13.8,84.6 13.7,84.6 13.6,84.7 C13.5,84.8 13.4,84.8 13.3,84.9 C13.2,85 13.2,85.1 13.1,85.2 C13,85.3 13,85.4 13,85.5 C12.9,85.8 12.8,86.1 12.8,86.4 C12.8,86.7 12.7,87 12.7,87.3 L12.7,88.5 C12.7,88.9 12.7,89.4 12.8,89.8 C12.8,90.2 12.9,90.6 13,90.9 C13.1,91.2 13.2,91.5 13.4,91.7 C13.6,91.9 13.8,92 14.1,92 C14.4,92 14.6,91.9 14.8,91.7 C15,91.5 15.1,91.2 15.2,90.8 C15.3,90.5 15.4,90.1 15.4,89.7 C15.3,89.2 15.3,88.9 15.3,88.5 L15.3,88.5 Z M21.9,83 C22.2,83 22.6,83.1 22.9,83.2 C23.2,83.3 23.5,83.5 23.7,83.7 C23.9,83.9 24.1,84.2 24.2,84.5 C24.3,84.8 24.4,85.1 24.4,85.5 C24.4,85.9 24.3,86.2 24.2,86.5 C24.1,86.8 23.9,87.1 23.7,87.3 C23.5,87.5 23.2,87.7 22.9,87.8 C22.6,87.9 22.3,88 21.9,88 C21.5,88 21.2,87.9 20.9,87.8 C20.6,87.7 20.3,87.5 20.1,87.3 C19.9,87.1 19.7,86.8 19.6,86.5 C19.5,86.2 19.4,85.9 19.4,85.5 C19.4,85.2 19.5,84.8 19.6,84.5 C19.7,84.2 19.9,83.9 20.1,83.7 C20.3,83.5 20.6,83.3 20.9,83.2 C21.2,83 21.6,83 21.9,83 Z M21.9,84.5 C21.6,84.5 21.4,84.6 21.2,84.8 C21,85 20.9,85.2 20.9,85.5 C20.9,85.8 21,86 21.2,86.2 C21.4,86.4 21.6,86.5 21.9,86.5 C22.2,86.5 22.4,86.4 22.6,86.2 C22.8,86 22.9,85.8 22.9,85.5 C22.9,85.2 22.8,85 22.6,84.8 C22.4,84.6 22.2,84.5 21.9,84.5 Z M31.4,85.7 C31.4,85.3 31.3,85.1 31,84.9 C30.8,84.7 30.5,84.7 30.3,84.7 C29.9,84.7 29.6,84.8 29.4,85 C29.2,85.2 29,85.5 28.9,85.8 C28.8,86.1 28.7,86.4 28.7,86.8 C28.7,87.1 28.7,87.4 28.6,87.7 L28.9,87.4 C29,87.3 29.2,87.2 29.3,87.1 C29.5,87 29.7,86.9 29.9,86.9 C30.1,86.8 30.4,86.8 30.6,86.8 C31,86.8 31.3,86.9 31.7,87 C32.1,87.1 32.4,87.3 32.7,87.6 C33,87.9 33.2,88.2 33.4,88.6 C33.6,89 33.7,89.5 33.7,90.1 C33.7,90.7 33.6,91.2 33.4,91.6 C33.2,92 32.9,92.4 32.5,92.8 C32.2,93.1 31.8,93.4 31.3,93.5 C30.9,93.7 30.4,93.7 29.8,93.7 C29.2,93.7 28.7,93.6 28.3,93.4 C27.9,93.2 27.5,93 27.3,92.7 C27,92.4 26.8,92.1 26.7,91.7 C26.6,91.3 26.4,91 26.4,90.6 C26.3,90.2 26.3,89.9 26.3,89.6 L26.3,88.8 C26.3,88.3 26.3,87.8 26.4,87.2 C26.4,86.7 26.5,86.2 26.6,85.7 C26.7,85.2 26.9,84.8 27.1,84.4 C27.3,84 27.6,83.7 28,83.4 C28.2,83.2 28.5,83.1 28.7,83 C28.9,82.9 29.2,82.8 29.4,82.8 C29.6,82.7 29.8,82.7 30,82.7 L30.4,82.7 C30.8,82.7 31.2,82.8 31.5,82.9 C31.9,83 32.2,83.2 32.5,83.4 C32.8,83.6 33,83.9 33.2,84.2 C33.4,84.5 33.5,85 33.5,85.4 L31.4,85.4 L31.4,85.7 Z M30.1,92.1 C30.3,92.1 30.4,92.1 30.6,92 C30.8,91.9 30.9,91.8 31.1,91.7 C31.2,91.6 31.4,91.4 31.4,91.1 C31.5,90.9 31.5,90.6 31.5,90.2 C31.5,89.6 31.4,89.2 31.1,88.9 C30.8,88.6 30.5,88.4 30.1,88.4 C30,88.4 29.9,88.4 29.7,88.5 C29.5,88.5 29.4,88.6 29.2,88.8 C29,88.9 28.9,89.1 28.8,89.4 C28.7,89.6 28.6,90 28.6,90.4 C28.6,90.7 28.6,91 28.7,91.2 L29,91.8 C29.1,92 29.3,92.1 29.5,92.1 L30.1,92.1 L30.1,92.1 Z M35.8,83.1 L37.8,83.1 L37.4,86.8 L36.2,86.8 L35.8,83.1 Z M41,84.7 C42,84.3 42.9,83.7 43.8,83.1 L45.7,83.1 L45.7,93.6 L43.4,93.6 L43.4,85.5 C43.2,85.7 42.9,85.9 42.4,86.1 C42,86.3 41.5,86.6 40.9,86.8 L40.9,84.7 L41,84.7 Z M49,91.3 L49,89.3 L53.2,83.1 L55.4,83.1 L55.4,89.6 L56.8,89.6 L56.8,91.3 L55.4,91.3 L55.4,93.6 L53.2,93.6 L53.2,91.3 L49,91.3 Z M50.7,89.6 L53.3,89.6 L53.3,86.8 L53.3,86.6 L53.3,86.3 L53.3,85.9 L53.3,85.6 L50.7,89.6 Z M59.1,91.6 L61,91.6 L61,93.6 L59.1,93.6 L59.1,91.6 Z M63.7,88.4 L63.7,87.5 C63.7,87.1 63.8,86.8 63.9,86.4 C64,86 64.1,85.6 64.3,85.2 C64.5,84.8 64.7,84.4 64.9,84.1 C65.2,83.8 65.5,83.5 65.9,83.3 C66.3,83.1 66.8,83 67.3,83 C67.7,83 68,83 68.3,83.1 C68.6,83.2 68.8,83.3 69.1,83.4 C69.3,83.5 69.5,83.7 69.7,83.8 C69.9,84 70,84.1 70.1,84.3 C70.2,84.5 70.4,84.7 70.5,85 C70.6,85.2 70.7,85.5 70.8,85.8 C70.9,86.1 70.9,86.4 71,86.8 C71.1,87.2 71.1,87.6 71.1,88.1 C71.1,88.7 71.1,89.3 71,90 C70.9,90.7 70.7,91.3 70.5,91.8 C70.2,92.4 69.9,92.8 69.4,93.2 C68.9,93.6 68.3,93.7 67.5,93.7 C66.8,93.7 66.3,93.5 65.8,93.3 C65.3,93 65,92.6 64.7,92.1 C64.4,91.6 64.2,91 64.1,90.4 C63.7,89.7 63.7,89.1 63.7,88.4 L63.7,88.4 Z M68.7,88.5 L68.7,87.9 L68.7,87.2 C68.7,87 68.7,86.7 68.6,86.5 C68.6,86.3 68.5,86.1 68.5,85.9 C68.5,85.8 68.5,85.7 68.4,85.6 C68.4,85.5 68.3,85.3 68.2,85.2 C68.1,85.1 68,84.9 67.9,84.8 C67.8,84.7 67.6,84.6 67.4,84.6 C67.2,84.6 67.1,84.6 67,84.7 C66.9,84.8 66.8,84.8 66.7,84.9 C66.6,85 66.6,85.1 66.5,85.2 C66.5,85.3 66.4,85.4 66.4,85.5 C66.3,85.8 66.2,86.1 66.2,86.4 C66.2,86.7 66.1,87 66.1,87.3 L66.1,88.5 C66.1,88.9 66.1,89.4 66.2,89.8 C66.2,90.2 66.3,90.6 66.4,90.9 C66.5,91.2 66.6,91.5 66.8,91.7 C67,91.9 67.2,92 67.5,92 C67.8,92 68,91.9 68.2,91.7 C68.4,91.5 68.5,91.2 68.6,90.8 C68.7,90.5 68.8,90.1 68.8,89.7 C68.7,89.2 68.7,88.9 68.7,88.5 L68.7,88.5 Z M74.9,88.1 C74.8,88.1 74.6,88 74.4,87.9 C74.2,87.8 74,87.7 73.7,87.5 C73.5,87.3 73.3,87.1 73.1,86.8 C72.9,86.5 72.9,86.2 72.9,85.8 C72.9,85.5 73,85.1 73.1,84.8 C73.2,84.5 73.5,84.1 73.7,83.9 C74,83.6 74.4,83.4 74.8,83.2 C75.3,83 75.8,82.9 76.4,82.9 C76.9,82.9 77.4,83 77.8,83.1 C78.2,83.2 78.6,83.4 78.9,83.7 C79.2,84 79.5,84.3 79.6,84.6 C79.8,84.9 79.9,85.3 79.9,85.7 C79.9,86 79.8,86.3 79.7,86.6 C79.6,86.9 79.4,87.1 79.2,87.3 C79,87.5 78.8,87.7 78.5,87.8 C78.3,87.9 78,88 77.7,88 C77.8,88 77.9,88.1 78.1,88.1 C78.2,88.1 78.4,88.2 78.5,88.3 C78.6,88.4 78.8,88.5 79,88.6 C79.2,88.7 79.3,88.9 79.4,89.1 C79.6,89.4 79.7,89.6 79.8,89.9 C79.9,90.2 79.9,90.4 79.9,90.7 C79.9,91.2 79.8,91.6 79.6,92 C79.4,92.4 79.1,92.7 78.8,93 C78.4,93.3 78,93.5 77.6,93.6 C77.1,93.7 76.6,93.8 76.1,93.8 C75.6,93.8 75.1,93.7 74.6,93.6 C74.2,93.4 73.8,93.2 73.5,92.9 C73.2,92.6 72.9,92.3 72.8,91.9 C72.6,91.5 72.5,91.1 72.5,90.7 C72.5,90.3 72.6,89.9 72.7,89.6 C72.8,89.3 73,89 73.3,88.8 C73.6,88.6 73.8,88.4 74,88.3 C74.5,88.2 74.7,88.2 74.9,88.1 L74.9,88.1 Z M76.5,92.1 C76.7,92.1 76.8,92.1 77,92 C77.2,91.9 77.3,91.9 77.5,91.7 C77.6,91.6 77.8,91.4 77.9,91.2 C78,91 78,90.7 78,90.5 C78,90 77.8,89.6 77.5,89.4 C77.2,89.1 76.8,89 76.4,89 C76,89 75.6,89.1 75.3,89.4 C75,89.7 74.9,90.1 74.9,90.5 C74.9,90.8 74.9,91 75,91.2 C75.1,91.4 75.2,91.6 75.4,91.7 C75.6,91.8 75.7,91.9 75.9,92 C76.2,92.1 76.4,92.1 76.5,92.1 Z M76.5,87.2 C76.9,87.2 77.2,87.1 77.5,86.8 C77.8,86.6 77.9,86.2 77.9,85.8 C77.9,85.6 77.9,85.4 77.8,85.2 C77.7,85 77.6,84.9 77.5,84.8 C77.4,84.7 77.2,84.6 77.1,84.6 C77,84.6 76.8,84.5 76.6,84.5 C76.2,84.5 75.9,84.6 75.6,84.9 C75.3,85.1 75.2,85.5 75.2,85.9 C75.2,86.3 75.3,86.6 75.6,86.9 C75.8,87.1 76.1,87.2 76.5,87.2 L76.5,87.2 Z M84.2,90.7 L84.2,91.1 C84.2,91.3 84.3,91.4 84.4,91.6 C84.5,91.8 84.6,91.9 84.8,92 C85,92.1 85.2,92.2 85.5,92.2 C85.9,92.2 86.3,92.1 86.5,91.8 C86.7,91.5 86.9,91.2 86.9,90.8 C86.9,90.4 86.8,90.1 86.7,89.9 C86.5,89.7 86.3,89.5 86.1,89.4 C85.8,89.3 85.6,89.2 85.3,89.2 L84.4,89.2 L84.4,87.4 L85.2,87.4 C85.5,87.4 85.8,87.3 86,87.2 C86.3,87.1 86.5,87 86.6,86.7 C86.8,86.5 86.9,86.2 86.9,85.8 C86.9,85.4 86.8,85.1 86.5,84.9 C86.2,84.7 85.9,84.6 85.6,84.6 C85.4,84.6 85.3,84.6 85.1,84.7 C84.9,84.8 84.8,84.8 84.7,84.9 C84.6,85 84.5,85.1 84.4,85.3 C84.3,85.5 84.3,85.6 84.3,85.9 L82,85.9 C82,85.7 82.1,85.4 82.1,85.1 C82.2,84.8 82.3,84.5 82.6,84.1 C82.9,83.7 83.4,83.4 83.9,83.2 C84.4,83 85,82.9 85.5,82.9 C86.2,82.9 86.7,83 87.2,83.2 C87.6,83.4 88,83.6 88.3,83.9 C88.6,84.2 88.8,84.5 88.9,84.8 C89,85.1 89.1,85.4 89.1,85.7 C89.1,86.1 89,86.5 88.9,86.8 C88.7,87.1 88.5,87.3 88.3,87.5 C88.1,87.7 87.9,87.8 87.6,87.9 C87.4,88 87.2,88.1 87.1,88.1 C87.3,88.2 87.5,88.2 87.7,88.3 C87.9,88.4 88.1,88.5 88.4,88.7 C88.6,88.9 88.7,89 88.8,89.2 C88.9,89.4 89,89.5 89.1,89.7 C89.2,89.9 89.2,90 89.2,90.2 L89.2,90.6 C89.2,91 89.1,91.4 88.9,91.8 C88.7,92.2 88.4,92.5 88.1,92.8 C87.8,93.1 87.4,93.3 86.9,93.4 C86.4,93.6 85.9,93.6 85.4,93.6 L84.8,93.6 C84.6,93.6 84.4,93.5 84.1,93.5 C83.9,93.4 83.7,93.4 83.4,93.3 L82.8,93 C82.6,92.8 82.4,92.6 82.3,92.4 C82.2,92.2 82.1,91.9 82,91.7 C81.9,91.5 81.9,91.3 81.9,91.1 L81.9,90.7 L84.2,90.7 L84.2,90.7 Z M93.9,83.1 L93.5,86.8 L92.3,86.8 L91.9,83.1 L93.9,83.1 L93.9,83.1 Z M96.8,83.1 L96.4,86.8 L95.2,86.8 L94.8,83.1 L96.8,83.1 L96.8,83.1 Z M99.8,82.7 L103.2,82.7 L107.3,91.2 L107.3,82.7 L109.5,82.7 L109.5,93.5 L106.3,93.5 L102.1,84.5 L102.1,93.5 L99.9,93.5 L99.9,82.7 L99.8,82.7 Z M115.1,91.6 L113.3,95.3 L111.8,95.3 L112.9,91.6 L115.1,91.6 Z M122.5,84.7 C123.5,84.3 124.4,83.7 125.3,83.1 L127.2,83.1 L127.2,93.6 L125,93.6 L125,85.5 C124.8,85.7 124.5,85.9 124,86.1 C123.6,86.3 123.1,86.6 122.5,86.8 L122.5,84.7 L122.5,84.7 Z M130.6,91.3 L130.6,89.3 L134.8,83.1 L137,83.1 L137,89.6 L138.4,89.6 L138.4,91.3 L137,91.3 L137,93.6 L134.8,93.6 L134.8,91.3 L130.6,91.3 L130.6,91.3 Z M132.2,89.6 L134.8,89.6 L134.8,86.8 L134.8,86.6 L134.8,86.3 L134.8,85.9 L134.8,85.6 L132.2,89.6 Z M142.5,83 C142.9,83 143.2,83.1 143.5,83.2 C143.8,83.3 144.1,83.5 144.3,83.7 C144.5,83.9 144.7,84.2 144.8,84.5 C144.9,84.8 145,85.1 145,85.5 C145,85.9 144.9,86.2 144.8,86.5 C144.7,86.8 144.5,87.1 144.3,87.3 C144.1,87.5 143.8,87.7 143.5,87.8 C143.2,87.9 142.9,88 142.5,88 C142.2,88 141.8,87.9 141.5,87.8 C141.2,87.7 140.9,87.5 140.7,87.3 C140.5,87.1 140.3,86.8 140.2,86.5 C140.1,86.2 140,85.9 140,85.5 C140,85.2 140.1,84.8 140.2,84.5 C140.3,84.2 140.5,83.9 140.7,83.7 C140.9,83.5 141.2,83.3 141.5,83.2 C141.9,83 142.2,83 142.5,83 Z M142.5,84.5 C142.2,84.5 142,84.6 141.8,84.8 C141.6,85 141.5,85.2 141.5,85.5 C141.5,85.8 141.6,86 141.8,86.2 C142,86.4 142.2,86.5 142.5,86.5 C142.8,86.5 143,86.4 143.2,86.2 C143.4,86 143.5,85.8 143.5,85.5 C143.5,85.2 143.4,85 143.2,84.8 C143,84.6 142.8,84.5 142.5,84.5 Z M146.8,91.5 L149.5,89.1 C149.9,88.7 150.3,88.4 150.6,88.1 C150.9,87.8 151.1,87.5 151.3,87.3 C151.5,87.1 151.6,86.8 151.7,86.6 C151.8,86.4 151.8,86.2 151.8,85.9 C151.8,85.4 151.7,85.1 151.5,84.9 C151.3,84.7 151,84.6 150.6,84.6 C150.3,84.6 150.1,84.7 149.9,84.8 C149.7,84.9 149.6,85 149.5,85.2 C149.4,85.4 149.3,85.5 149.3,85.7 C149.3,85.9 149.2,86 149.2,86.2 L147,86.2 L147,85.8 C147,85.6 147,85.5 147.1,85.3 C147.1,85.1 147.2,85 147.3,84.8 C147.4,84.6 147.5,84.4 147.7,84.2 C148,83.8 148.4,83.5 148.9,83.3 C149.4,83.1 150,83 150.6,83 C151.8,83 152.6,83.3 153.2,83.8 C153.8,84.3 154.1,85 154.1,85.9 C154.1,86.3 154.1,86.6 154,86.9 C153.9,87.2 153.8,87.5 153.6,87.8 C153.4,88.1 153.1,88.5 152.7,88.8 C152.3,89.2 151.9,89.6 151.3,90.1 L149.2,91.9 L154.2,91.8 L154.2,93.5 L146.9,93.5 L146.9,91.5 L146.8,91.5 Z M158.3,90.7 L158.3,91.1 C158.3,91.3 158.4,91.4 158.5,91.6 C158.6,91.8 158.7,91.9 158.9,92 C159.1,92.1 159.3,92.2 159.6,92.2 C160,92.2 160.4,92.1 160.6,91.8 C160.8,91.5 161,91.2 161,90.8 C161,90.4 160.9,90.1 160.8,89.9 C160.6,89.7 160.4,89.5 160.2,89.4 C159.9,89.3 159.7,89.2 159.4,89.2 L158.5,89.2 L158.5,87.4 L159.3,87.4 C159.6,87.4 159.9,87.3 160.1,87.2 C160.4,87.1 160.6,87 160.7,86.7 C160.9,86.5 161,86.2 161,85.8 C161,85.4 160.9,85.1 160.6,84.9 C160.3,84.7 160,84.6 159.7,84.6 C159.5,84.6 159.4,84.6 159.2,84.7 C159,84.8 158.9,84.8 158.8,84.9 C158.7,85 158.6,85.1 158.5,85.3 C158.4,85.5 158.4,85.6 158.4,85.9 L156.1,85.9 C156.1,85.7 156.2,85.4 156.2,85.1 C156.3,84.8 156.4,84.5 156.7,84.1 C157,83.7 157.5,83.4 158,83.2 C158.5,83 159.1,82.9 159.6,82.9 C160.3,82.9 160.8,83 161.3,83.2 C161.8,83.4 162.1,83.6 162.4,83.9 C162.7,84.2 162.9,84.5 163,84.8 C163.1,85.1 163.2,85.4 163.2,85.7 C163.2,86.1 163.1,86.5 163,86.8 C162.8,87.1 162.6,87.3 162.4,87.5 C162.2,87.7 162,87.8 161.7,87.9 C161.5,88 161.3,88.1 161.2,88.1 C161.4,88.2 161.6,88.2 161.8,88.3 C162,88.4 162.2,88.5 162.5,88.7 C162.7,88.9 162.8,89 162.9,89.2 C163,89.4 163.1,89.5 163.2,89.7 C163.3,89.9 163.3,90 163.3,90.2 L163.3,90.6 C163.3,91 163.2,91.4 163,91.8 C162.8,92.2 162.5,92.5 162.2,92.8 C161.9,93.1 161.5,93.3 161,93.4 C160.5,93.6 160,93.6 159.5,93.6 L158.9,93.6 C158.7,93.6 158.5,93.5 158.2,93.5 C158,93.4 157.8,93.4 157.5,93.3 L156.9,93 C156.7,92.8 156.5,92.6 156.4,92.4 C156.3,92.2 156.2,91.9 156.1,91.7 C156,91.5 156,91.3 156,91.1 L156,90.7 L158.3,90.7 L158.3,90.7 Z M165.7,83.1 L167.7,83.1 L167.3,86.8 L166.1,86.8 L165.7,83.1 Z M169.8,91.5 L172.5,89.1 C172.9,88.7 173.3,88.4 173.6,88.1 C173.9,87.8 174.1,87.5 174.3,87.3 C174.5,87.1 174.6,86.8 174.7,86.6 C174.8,86.4 174.8,86.2 174.8,85.9 C174.8,85.4 174.7,85.1 174.5,84.9 C174.3,84.7 174,84.6 173.6,84.6 C173.3,84.6 173.1,84.7 172.9,84.8 C172.7,84.9 172.6,85 172.5,85.2 C172.4,85.4 172.3,85.5 172.3,85.7 C172.3,85.9 172.2,86 172.2,86.2 L169.9,86.2 L169.9,85.8 C169.9,85.6 169.9,85.5 170,85.3 C170,85.1 170.1,85 170.2,84.8 C170.3,84.6 170.4,84.4 170.6,84.2 C170.9,83.8 171.3,83.5 171.8,83.3 C172.3,83.1 172.9,83 173.5,83 C174.6,83 175.5,83.3 176.1,83.8 C176.7,84.3 177,85 177,85.9 C177,86.3 177,86.6 176.9,86.9 C176.8,87.2 176.7,87.5 176.5,87.8 C176.3,88.1 176,88.5 175.6,88.8 C175.2,89.2 174.8,89.6 174.2,90.1 L172.1,91.9 L177.1,91.8 L177.1,93.5 L169.8,93.5 L169.8,91.5 L169.8,91.5 Z M184.2,85.7 C184.2,85.3 184.1,85.1 183.8,84.9 C183.6,84.7 183.3,84.7 183.1,84.7 C182.7,84.7 182.4,84.8 182.2,85 C182,85.2 181.8,85.5 181.7,85.8 C181.6,86.1 181.5,86.4 181.5,86.8 C181.5,87.1 181.5,87.4 181.4,87.7 L181.7,87.4 C181.8,87.3 182,87.2 182.1,87.1 C182.3,87 182.5,86.9 182.7,86.9 C182.9,86.8 183.2,86.8 183.4,86.8 C183.8,86.8 184.1,86.9 184.5,87 C184.9,87.1 185.2,87.3 185.5,87.6 C185.8,87.9 186,88.2 186.2,88.6 C186.4,89 186.5,89.5 186.5,90.1 C186.5,90.7 186.4,91.2 186.2,91.6 C186,92 185.7,92.4 185.3,92.8 C185,93.1 184.6,93.4 184.1,93.5 C183.7,93.7 183.2,93.7 182.6,93.7 C182,93.7 181.5,93.6 181.1,93.4 C180.7,93.2 180.3,93 180.1,92.7 C179.8,92.4 179.6,92.1 179.5,91.7 C179.4,91.3 179.2,91 179.2,90.6 C179.1,90.2 179.1,89.9 179.1,89.6 L179.1,88.8 C179.1,88.3 179.1,87.8 179.2,87.2 C179.2,86.7 179.3,86.2 179.4,85.7 C179.5,85.2 179.7,84.8 179.9,84.4 C180.1,84 180.4,83.7 180.8,83.4 C181,83.2 181.3,83.1 181.5,83 C181.7,82.9 182,82.8 182.2,82.8 C182.4,82.7 182.6,82.7 182.8,82.7 L183.2,82.7 C183.6,82.7 184,82.8 184.3,82.9 C184.7,83 185,83.2 185.3,83.4 C185.6,83.6 185.8,83.9 186,84.2 C186.2,84.5 186.3,85 186.3,85.4 L184.2,85.4 L184.2,85.7 Z M183,92.1 C183.2,92.1 183.3,92.1 183.5,92 C183.7,91.9 183.8,91.8 184,91.7 C184.1,91.6 184.3,91.4 184.3,91.1 C184.4,90.9 184.4,90.6 184.4,90.2 C184.4,89.6 184.3,89.2 184,88.9 C183.7,88.6 183.4,88.4 183,88.4 C182.9,88.4 182.8,88.4 182.6,88.5 C182.4,88.5 182.3,88.6 182.1,88.8 C181.9,88.9 181.8,89.1 181.7,89.4 C181.6,89.6 181.5,90 181.5,90.4 C181.5,90.7 181.5,91 181.6,91.2 L181.9,91.8 C182,92 182.2,92.1 182.4,92.1 L183,92.1 L183,92.1 Z M189,91.6 L190.9,91.6 L190.9,93.6 L189,93.6 L189,91.6 Z M195.6,90.7 L195.6,91.1 C195.6,91.3 195.7,91.4 195.8,91.6 C195.9,91.8 196,91.9 196.2,92 C196.4,92.1 196.6,92.2 196.9,92.2 C197.3,92.2 197.7,92.1 197.9,91.8 C198.1,91.5 198.3,91.2 198.3,90.8 C198.3,90.4 198.2,90.1 198.1,89.9 C197.9,89.7 197.7,89.5 197.5,89.4 C197.2,89.3 197,89.2 196.7,89.2 L195.8,89.2 L195.8,87.4 L196.6,87.4 C196.9,87.4 197.2,87.3 197.4,87.2 C197.7,87.1 197.9,87 198,86.7 C198.2,86.5 198.3,86.2 198.3,85.8 C198.3,85.4 198.2,85.1 197.9,84.9 C197.6,84.7 197.3,84.6 197,84.6 C196.8,84.6 196.7,84.6 196.5,84.7 C196.3,84.8 196.2,84.8 196.1,84.9 C196,85 195.9,85.1 195.8,85.3 C195.7,85.5 195.7,85.6 195.7,85.9 L193.4,85.9 C193.4,85.7 193.5,85.4 193.5,85.1 C193.6,84.8 193.7,84.5 194,84.1 C194.3,83.7 194.8,83.4 195.3,83.2 C195.8,83 196.4,82.9 196.9,82.9 C197.6,82.9 198.1,83 198.6,83.2 C199.1,83.4 199.4,83.6 199.7,83.9 C200,84.2 200.2,84.5 200.3,84.8 C200.4,85.1 200.5,85.4 200.5,85.7 C200.5,86.1 200.4,86.5 200.3,86.8 C200.1,87.1 199.9,87.3 199.7,87.5 C199.5,87.7 199.3,87.8 199,87.9 C198.8,88 198.6,88.1 198.5,88.1 C198.7,88.2 198.9,88.2 199.1,88.3 C199.3,88.4 199.5,88.5 199.8,88.7 C200,88.9 200.1,89 200.2,89.2 C200.3,89.4 200.4,89.5 200.5,89.7 C200.6,89.9 200.6,90 200.6,90.2 L200.6,90.6 C200.6,91 200.5,91.4 200.3,91.8 C200.1,92.2 199.8,92.5 199.5,92.8 C199.2,93.1 198.8,93.3 198.3,93.4 C197.8,93.6 197.3,93.6 196.8,93.6 L196.2,93.6 C196,93.6 195.8,93.5 195.5,93.5 C195.3,93.4 195.1,93.4 194.8,93.3 L194.2,93 C194,92.8 193.8,92.6 193.7,92.4 C193.6,92.2 193.5,91.9 193.4,91.7 C193.3,91.5 193.3,91.3 193.3,91.1 L193.3,90.7 L195.6,90.7 L195.6,90.7 Z M207.8,85.7 C207.8,85.3 207.7,85.1 207.4,84.9 C207.2,84.7 206.9,84.7 206.7,84.7 C206.3,84.7 206,84.8 205.8,85 C205.6,85.2 205.4,85.5 205.3,85.8 C205.2,86.1 205.1,86.4 205.1,86.8 C205.1,87.1 205.1,87.4 205,87.7 L205.3,87.4 C205.4,87.3 205.6,87.2 205.7,87.1 C205.9,87 206.1,86.9 206.3,86.9 C206.5,86.8 206.8,86.8 207,86.8 C207.4,86.8 207.7,86.9 208.1,87 C208.5,87.1 208.8,87.3 209.1,87.6 C209.4,87.9 209.6,88.2 209.8,88.6 C210,89 210.1,89.5 210.1,90.1 C210.1,90.7 210,91.2 209.8,91.6 C209.6,92 209.3,92.4 208.9,92.8 C208.6,93.1 208.2,93.4 207.7,93.5 C207.3,93.7 206.8,93.7 206.2,93.7 C205.6,93.7 205.1,93.6 204.7,93.4 C204.3,93.2 203.9,93 203.7,92.7 C203.4,92.4 203.2,92.1 203.1,91.7 C203,91.3 202.8,91 202.8,90.6 C202.7,90.2 202.7,89.9 202.7,89.6 L202.7,88.8 C202.7,88.3 202.7,87.8 202.8,87.2 C202.8,86.7 202.9,86.2 203,85.7 C203.1,85.2 203.3,84.8 203.5,84.4 C203.7,84 204,83.7 204.4,83.4 C204.6,83.2 204.9,83.1 205.1,83 C205.3,82.9 205.6,82.8 205.8,82.8 C206,82.7 206.2,82.7 206.4,82.7 L206.8,82.7 C207.2,82.7 207.6,82.8 207.9,82.9 C208.3,83 208.6,83.2 208.9,83.4 C209.2,83.6 209.4,83.9 209.6,84.2 C209.8,84.5 209.9,85 209.9,85.4 L207.8,85.4 L207.8,85.7 Z M206.5,92.1 C206.7,92.1 206.8,92.1 207,92 C207.2,91.9 207.3,91.8 207.5,91.7 C207.6,91.6 207.8,91.4 207.8,91.1 C207.9,90.9 207.9,90.6 207.9,90.2 C207.9,89.6 207.8,89.2 207.5,88.9 C207.2,88.6 206.9,88.4 206.5,88.4 C206.4,88.4 206.3,88.4 206.1,88.5 C205.9,88.5 205.8,88.6 205.6,88.8 C205.4,88.9 205.3,89.1 205.2,89.4 C205.1,89.6 205,90 205,90.4 C205,90.7 205,91 205.1,91.2 L205.4,91.8 C205.5,92 205.7,92.1 205.9,92.1 L206.5,92.1 L206.5,92.1 Z M214.1,91 L214.1,91.3 C214.1,91.4 214.2,91.6 214.3,91.7 C214.4,91.8 214.5,91.9 214.7,92 C214.9,92.1 215.1,92.2 215.3,92.2 C215.5,92.2 215.7,92.2 215.9,92.1 C216.1,92 216.3,91.9 216.4,91.7 C216.5,91.5 216.7,91.3 216.7,91.1 C216.8,90.9 216.8,90.6 216.8,90.2 C216.8,90 216.8,89.7 216.7,89.5 C216.7,89.3 216.6,89.1 216.5,88.9 C216.4,88.7 216.2,88.6 216.1,88.5 C215.9,88.4 215.7,88.3 215.5,88.3 C215.2,88.3 215,88.3 214.9,88.4 C214.7,88.5 214.6,88.6 214.5,88.7 C214.4,88.8 214.3,88.9 214.3,89.1 C214.3,89.2 214.2,89.3 214.2,89.4 L212,89.3 L212.2,83.1 L218.5,83.1 L218.5,84.8 L214.1,84.8 L214,87.4 C214.1,87.3 214.2,87.2 214.3,87.2 C214.4,87.1 214.5,87 214.7,87 C214.9,86.9 215,86.9 215.2,86.8 C215.4,86.8 215.7,86.7 216,86.7 C216.4,86.7 216.8,86.8 217.2,86.9 C217.6,87.1 217.9,87.3 218.2,87.6 C218.5,87.9 218.7,88.2 218.9,88.7 C219.1,89.1 219.1,89.6 219.1,90.1 C219.1,90.5 219,91 218.9,91.4 C218.8,91.9 218.5,92.3 218.2,92.6 C217.9,93 217.5,93.3 217,93.5 C216.5,93.7 216,93.8 215.3,93.8 C214.8,93.8 214.2,93.7 213.7,93.6 C213.2,93.4 212.7,93.1 212.4,92.7 C212.1,92.4 212,92.1 211.9,91.8 C211.8,91.5 211.8,91.3 211.8,91.1 L214.1,91.1 L214.1,91 Z M223.8,83.1 L223.4,86.8 L222.2,86.8 L221.8,83.1 L223.8,83.1 Z M226.6,83.1 L226.2,86.8 L225,86.8 L224.6,83.1 L226.6,83.1 L226.6,83.1 Z M229.7,82.7 L237,82.7 L237,84.5 L232,84.5 L232,87.1 L236.6,87.1 L236.6,88.9 L232,88.9 L232,91.8 L237.1,91.8 L237.1,93.6 L229.7,93.6 L229.7,82.7 L229.7,82.7 Z"/>
    <path fill="#FFFFFF" d="M1.5,100.2 L4.9,100.2 L9,108.7 L9,100.2 L11,100.2 L11,111 L7.8,111 L3.6,102 L3.6,111 L1.5,111 L1.5,100.2 Z M17.9,111.1 C17.9,110.9 17.8,110.7 17.8,110.5 L17.8,110.1 C17.6,110.4 17.4,110.6 17.1,110.8 C16.9,111 16.7,111.1 16.5,111.2 C16.3,111.3 16.1,111.3 15.9,111.3 L15.5,111.3 C14.9,111.3 14.5,111.2 14.3,111.1 C14,111 13.8,110.8 13.7,110.7 C13.5,110.5 13.3,110.2 13.2,109.9 C13.1,109.6 13,109.3 13,109 C13,108.8 13,108.7 13.1,108.5 C13.1,108.3 13.2,108.1 13.3,107.9 C13.4,107.7 13.6,107.5 13.8,107.3 C14,107.1 14.3,106.9 14.6,106.7 C14.8,106.6 15.1,106.5 15.4,106.5 C15.7,106.4 15.9,106.4 16.2,106.4 L17.6,106.4 L17.6,105.8 C17.6,105.7 17.6,105.5 17.5,105.4 C17.5,105.3 17.4,105.2 17.3,105.1 C17.2,105 17.1,105 17,104.9 C16.9,104.9 16.8,104.8 16.7,104.8 L16.5,104.8 C16.3,104.8 16.2,104.8 16,104.9 C15.9,105 15.7,105.1 15.6,105.2 C15.5,105.3 15.5,105.5 15.5,105.6 L15.5,105.9 L13.3,105.9 L13.3,105.5 C13.3,105.4 13.4,105.2 13.4,105 C13.5,104.8 13.5,104.7 13.7,104.5 C13.8,104.3 14,104.2 14.2,104 C14.6,103.8 14.9,103.6 15.3,103.5 C15.7,103.4 16.1,103.4 16.5,103.4 L17.1,103.4 C17.3,103.4 17.6,103.5 17.8,103.5 C18,103.6 18.3,103.7 18.5,103.8 C18.7,103.9 19,104.1 19.2,104.3 C19.3,104.5 19.4,104.6 19.5,104.8 C19.6,105 19.6,105.2 19.7,105.3 C19.7,105.5 19.8,105.6 19.8,105.8 L19.8,110.2 C19.8,110.5 19.9,110.8 19.9,111.2 L17.9,111.2 L17.9,111.1 Z M17.6,107.5 L16.6,107.5 C16.3,107.5 16,107.6 15.8,107.7 C15.6,107.8 15.4,107.9 15.3,108.1 C15.2,108.3 15.1,108.5 15.1,108.7 C15.1,108.8 15.1,109 15.2,109.1 C15.2,109.2 15.3,109.3 15.4,109.4 L15.7,109.7 C15.8,109.8 16,109.8 16.2,109.8 C16.4,109.8 16.6,109.8 16.7,109.7 C16.9,109.6 17,109.5 17.1,109.4 C17.3,109.2 17.4,108.9 17.5,108.6 C17.6,108.3 17.6,107.9 17.6,107.5 L17.6,107.5 Z M16.7,102.3 L15.5,102.3 L16.7,100.1 L18.7,100.1 L16.7,102.3 Z M22,105.4 L22,105 L22,104.5 L22,104 L22,103.6 L24.1,103.6 L24.1,105.1 C24.2,104.9 24.3,104.8 24.4,104.6 C24.5,104.4 24.7,104.3 24.9,104.1 C25.1,104 25.3,103.8 25.6,103.7 C25.9,103.6 26.3,103.6 26.7,103.6 L26.7,105.6 C26.1,105.6 25.7,105.6 25.4,105.7 C25.1,105.8 24.8,105.9 24.7,106.1 C24.5,106.3 24.4,106.5 24.4,106.8 C24.4,107 24.3,107.3 24.3,107.5 L24.3,111.2 L22,111.2 L22,105.4 L22,105.4 Z M27.4,107.4 C27.4,106.9 27.5,106.5 27.6,106 C27.7,105.5 27.9,105.1 28.2,104.7 C28.5,104.3 28.9,104 29.4,103.7 C29.9,103.4 30.5,103.3 31.3,103.3 C32,103.3 32.6,103.4 33.1,103.6 C33.6,103.8 34,104.1 34.3,104.5 C34.6,104.9 34.9,105.3 35,105.8 C35.1,106.3 35.2,106.8 35.2,107.3 C35.2,107.8 35.1,108.3 35,108.8 C34.8,109.3 34.6,109.7 34.3,110.1 C34,110.5 33.6,110.8 33.1,111 C32.6,111.2 32,111.3 31.3,111.3 C30.8,111.3 30.3,111.2 29.8,111.1 C29.3,110.9 28.9,110.7 28.6,110.3 C28.2,110 28,109.5 27.8,109 C27.5,108.6 27.4,108 27.4,107.4 L27.4,107.4 Z M29.7,107.4 C29.7,108.3 29.8,108.9 30.1,109.3 C30.4,109.7 30.8,109.9 31.3,109.9 C31.5,109.9 31.8,109.9 32,109.8 C32.2,109.7 32.4,109.6 32.5,109.4 C32.6,109.2 32.7,108.9 32.8,108.6 C32.9,108.3 32.9,107.8 32.9,107.3 C32.9,107 32.9,106.8 32.8,106.5 C32.8,106.2 32.7,106 32.6,105.7 C32.5,105.5 32.3,105.3 32.1,105.1 C31.9,104.9 31.6,104.9 31.2,104.9 C30.8,104.9 30.5,105 30.3,105.2 C30.1,105.4 29.9,105.6 29.8,105.9 C29.7,106.2 29.6,106.5 29.6,106.7 C29.7,107 29.7,107.2 29.7,107.4 L29.7,107.4 Z M42.2,100.2 L44.4,100.2 L44.4,111 L42.2,111 L42.1,109.9 C42,110 41.9,110.2 41.8,110.3 C41.7,110.4 41.5,110.6 41.3,110.7 C41,110.9 40.7,111 40.5,111 C40.2,111 40,111.1 39.8,111.1 C38.8,111.1 38,110.8 37.4,110.1 C36.8,109.4 36.5,108.5 36.5,107.3 C36.5,106.7 36.6,106.1 36.7,105.6 C36.8,105.1 37.1,104.7 37.4,104.3 C37.7,104 38,103.7 38.5,103.5 C38.9,103.3 39.4,103.2 39.9,103.2 C40.2,103.2 40.5,103.2 40.8,103.3 C41,103.4 41.3,103.5 41.4,103.6 C41.6,103.7 41.7,103.8 41.8,103.9 C41.9,104 42,104.1 42,104.2 L42,100.2 L42.2,100.2 Z M39,107.4 C39,107.7 39,108 39.1,108.3 C39.2,108.6 39.2,108.8 39.4,109.1 C39.5,109.3 39.7,109.5 39.9,109.6 C40.1,109.7 40.3,109.8 40.6,109.8 C40.9,109.8 41.2,109.7 41.5,109.5 C41.8,109.3 41.9,109.1 42.1,108.9 C42.3,108.6 42.4,108.2 42.4,107.9 C42.4,107.6 42.5,107.3 42.5,107.1 C42.5,106.3 42.4,105.8 42.1,105.4 C41.8,105 41.4,104.8 40.9,104.8 C40.5,104.8 40.2,104.9 40,105.1 C39.8,105.3 39.6,105.5 39.5,105.8 C39.4,106.1 39.3,106.4 39.3,106.6 C39,107 39,107.2 39,107.4 Z M46.7,104.9 L46.7,104.7 L46.7,104.4 L46.7,104 L46.7,103.6 L48.8,103.6 L48.9,104.7 C48.9,104.6 49,104.5 49.1,104.3 L49.5,103.9 C49.7,103.8 49.9,103.6 50.2,103.5 C50.5,103.4 50.8,103.3 51.2,103.3 C51.6,103.3 51.9,103.4 52.2,103.5 C52.5,103.6 52.7,103.7 52.9,103.9 C53.1,104 53.2,104.2 53.3,104.4 C53.4,104.6 53.5,104.7 53.5,104.8 C53.5,104.9 53.6,105 53.6,105.2 C53.6,105.3 53.7,105.5 53.7,105.6 L53.7,111.2 L51.4,111.2 L51.4,106.5 L51.4,106.1 C51.4,106 51.4,105.8 51.3,105.7 C51.2,105.5 51.1,105.4 50.9,105.2 C50.7,105.1 50.5,105 50.2,105 C50,105 49.7,105.1 49.5,105.2 C49.3,105.3 49.1,105.4 49,105.6 C48.9,105.7 48.9,105.8 48.8,106 C48.7,106.2 48.7,106.4 48.7,106.7 L48.7,111.1 L46.5,111.1 L46.5,104.9 L46.7,104.9 Z M56.1,103.5 L58.3,103.5 L58.3,111.1 L56.1,111.1 L56.1,103.5 Z M57.4,102.3 L56.2,102.3 L57.4,100.1 L59.4,100.1 L57.4,102.3 Z M69.5,111 C69.1,111.1 68.8,111.2 68.5,111.2 L67.8,111.2 C67.2,111.2 66.8,111.1 66.5,111 C66.2,110.8 66,110.7 65.8,110.4 C65.7,110.2 65.6,110 65.6,109.7 L65.6,105 L64.1,105 L64.1,103.5 L65.6,103.5 L65.6,102 L67.8,101.2 L67.8,103.5 L69.6,103.5 L69.6,105 L67.8,105 L67.8,108.9 C67.8,109 67.9,109.2 67.9,109.3 C68,109.4 68.1,109.5 68.2,109.5 C68.3,109.5 68.5,109.6 68.8,109.6 L69.6,109.6 L69.6,111 L69.5,111 Z M72.7,107.9 L72.7,108.4 C72.7,108.6 72.8,108.9 72.9,109.1 C73,109.3 73.2,109.5 73.4,109.7 C73.6,109.9 73.9,109.9 74.3,109.9 C74.6,109.9 74.8,109.8 75.1,109.7 C75.3,109.6 75.5,109.3 75.6,108.9 L77.6,108.9 L77.6,109.2 C77.6,109.2 77.6,109.5 77.5,109.6 C77.5,109.7 77.4,109.9 77.3,110.1 C77.2,110.3 77.1,110.4 76.9,110.6 C76.6,110.9 76.2,111.1 75.8,111.3 C75.3,111.5 74.8,111.5 74.3,111.5 L73.7,111.5 C73.5,111.5 73.2,111.4 73,111.4 C72.8,111.3 72.5,111.2 72.3,111.1 C72.1,111 71.8,110.8 71.6,110.6 C71.2,110.2 71,109.8 70.8,109.3 C70.6,108.8 70.6,108.2 70.6,107.6 C70.6,107.3 70.6,107 70.7,106.6 C70.7,106.3 70.8,105.9 70.9,105.6 C71,105.3 71.2,105 71.4,104.7 C71.6,104.4 71.9,104.2 72.2,103.9 C72.5,103.7 72.8,103.5 73.2,103.4 C73.6,103.3 73.9,103.2 74.4,103.2 C74.7,103.2 74.9,103.2 75.2,103.3 C75.5,103.4 75.8,103.5 76,103.6 C76.3,103.7 76.5,103.9 76.8,104.2 C77,104.4 77.2,104.7 77.4,105.1 C77.5,105.4 77.6,105.6 77.7,105.9 C77.8,106.2 77.8,106.4 77.8,106.7 L77.8,108 L72.7,108 L72.7,107.9 Z M75.5,106.5 L75.5,106.1 C75.5,105.9 75.4,105.7 75.4,105.5 C75.3,105.3 75.2,105.1 75,105 C74.8,104.9 74.6,104.8 74.2,104.8 C74,104.8 73.8,104.8 73.6,104.9 C73.4,105 73.3,105.1 73.2,105.3 C73.1,105.5 73,105.6 72.9,105.8 C72.8,106 72.8,106.2 72.8,106.4 L75.5,106.4 L75.5,106.5 Z M83.5,106.2 L83.5,105.9 C83.5,105.7 83.4,105.6 83.4,105.4 C83.3,105.2 83.2,105.1 83.1,105 C83,104.9 82.8,104.8 82.6,104.8 C82.3,104.8 82.1,104.9 82,105.1 C81.8,105.3 81.7,105.5 81.6,105.7 C81.5,105.9 81.5,106.2 81.4,106.5 L81.4,107.7 C81.4,107.9 81.4,108.1 81.5,108.3 C81.5,108.5 81.6,108.8 81.7,109 C81.8,109.2 81.9,109.4 82,109.5 C82.1,109.6 82.2,109.7 82.3,109.7 L82.8,109.7 C82.9,109.7 83,109.6 83.1,109.5 C83.2,109.4 83.3,109.3 83.4,109.1 C83.5,108.9 83.5,108.6 83.6,108.3 L85.8,108.3 L85.8,108.8 C85.8,109 85.7,109.2 85.7,109.4 L85.4,110 C85.3,110.2 85.1,110.4 84.9,110.6 C84.6,110.8 84.3,111 84,111.1 C83.7,111.2 83.2,111.3 82.8,111.3 C82.3,111.3 81.8,111.2 81.4,111.1 C81,111 80.6,110.7 80.2,110.3 C79.9,109.9 79.6,109.5 79.5,109 C79.3,108.5 79.3,107.9 79.3,107.3 C79.3,106.4 79.4,105.8 79.7,105.2 C80,104.7 80.3,104.3 80.7,104 C81.1,103.7 81.5,103.5 81.9,103.5 C82.3,103.4 82.6,103.4 82.9,103.4 C83.3,103.4 83.6,103.5 84,103.6 C84.4,103.7 84.7,103.9 85,104.1 C85.3,104.3 85.5,104.6 85.7,105 C85.9,105.4 86,105.8 86,106.3 L83.5,106.3 L83.5,106.2 Z M87.4,100.2 L89.6,100.2 L89.6,104.5 C89.7,104.4 89.7,104.3 89.9,104.2 C90,104.1 90.1,103.9 90.3,103.8 L90.9,103.5 C91.1,103.4 91.4,103.4 91.8,103.4 C92.1,103.4 92.3,103.4 92.6,103.5 C92.8,103.6 93,103.6 93.2,103.7 C93.4,103.8 93.5,103.9 93.7,104 C93.8,104.1 93.9,104.2 94,104.4 C94.1,104.6 94.3,104.9 94.4,105.2 C94.5,105.5 94.5,106 94.5,106.5 L94.5,111.1 L92.3,111.1 L92.3,106.6 L92.3,106.2 C92.3,106 92.2,105.8 92.2,105.7 C92.1,105.5 92,105.4 91.8,105.2 C91.6,105.1 91.4,105 91.1,105 C90.9,105 90.8,105 90.6,105.1 C90.4,105.2 90.3,105.2 90.1,105.4 C90,105.5 89.8,105.7 89.8,105.9 C89.7,106.1 89.7,106.3 89.7,106.6 L89.7,111.2 L87.5,111.2 L87.5,100.2 L87.4,100.2 Z M96.8,104.9 L96.8,104.7 L96.8,104.4 L96.8,104 L96.8,103.6 L98.9,103.6 L99,104.7 C99,104.6 99.1,104.5 99.2,104.3 L99.6,103.9 C99.8,103.8 100,103.6 100.3,103.5 C100.6,103.4 100.9,103.3 101.3,103.3 C101.7,103.3 102,103.4 102.3,103.5 C102.6,103.6 102.8,103.7 103,103.9 C103.2,104 103.3,104.2 103.4,104.4 C103.5,104.6 103.6,104.7 103.6,104.8 C103.6,104.9 103.7,105 103.7,105.2 C103.7,105.3 103.8,105.5 103.8,105.6 L103.8,111.2 L101.5,111.2 L101.5,106.5 L101.5,106.1 C101.5,106 101.5,105.8 101.4,105.7 C101.3,105.5 101.2,105.4 101,105.2 C100.8,105.1 100.6,105 100.3,105 C100.1,105 99.8,105.1 99.6,105.2 C99.4,105.3 99.2,105.4 99.1,105.6 C99,105.7 99,105.8 98.9,106 C98.8,106.2 98.8,106.4 98.8,106.7 L98.8,111.1 L96.6,111.1 L96.6,104.9 L96.8,104.9 Z M106.2,100.2 L108.6,100.2 L108.6,102.1 L106.2,102.1 L106.2,100.2 Z M106.3,103.5 L108.5,103.5 L108.5,111.1 L106.3,111.1 L106.3,103.5 Z M114.7,106.2 L114.7,105.9 C114.7,105.7 114.6,105.6 114.6,105.4 C114.5,105.2 114.4,105.1 114.3,105 C114.2,104.9 114,104.8 113.8,104.8 C113.5,104.8 113.3,104.9 113.2,105.1 C113,105.3 112.9,105.5 112.8,105.7 C112.7,105.9 112.7,106.2 112.6,106.5 L112.6,107.7 C112.6,107.9 112.6,108.1 112.7,108.3 C112.7,108.5 112.8,108.8 112.9,109 C113,109.2 113.1,109.4 113.2,109.5 C113.3,109.6 113.4,109.7 113.5,109.7 L114,109.7 C114.1,109.7 114.2,109.6 114.3,109.5 C114.4,109.4 114.5,109.3 114.6,109.1 C114.7,108.9 114.7,108.6 114.8,108.3 L117,108.3 L117,108.8 C117,109 116.9,109.2 116.9,109.4 L116.6,110 C116.5,110.2 116.3,110.4 116.1,110.6 C115.8,110.8 115.5,111 115.2,111.1 C114.9,111.2 114.4,111.3 114,111.3 C113.5,111.3 113,111.2 112.6,111.1 C112.2,111 111.8,110.7 111.4,110.3 C111.1,109.9 110.8,109.5 110.7,109 C110.5,108.5 110.5,107.9 110.5,107.3 C110.5,106.4 110.6,105.8 110.9,105.2 C111.2,104.7 111.5,104.3 111.9,104 C112.3,103.7 112.7,103.5 113.1,103.5 C113.5,103.4 113.8,103.4 114.1,103.4 C114.5,103.4 114.8,103.5 115.2,103.6 C115.6,103.7 115.9,103.9 116.2,104.1 C116.5,104.3 116.7,104.6 116.9,105 C117.1,105.4 117.2,105.8 117.2,106.3 L114.7,106.3 L114.7,106.2 Z M118.6,100.2 L120.8,100.2 L120.8,106.6 L123.1,103.4 L125.6,103.4 L123,106.7 L125.8,111 L123.2,111 L120.9,106.9 L120.9,111 L118.7,111 L118.7,100.2 L118.6,100.2 Z M131.5,111.1 C131.5,110.9 131.4,110.7 131.4,110.5 L131.4,110.1 C131.2,110.4 131,110.6 130.7,110.8 C130.5,111 130.3,111.1 130.1,111.2 C129.9,111.3 129.7,111.3 129.5,111.3 L129.1,111.3 C128.5,111.3 128.1,111.2 127.9,111.1 C127.6,111 127.4,110.8 127.3,110.7 C127.1,110.5 126.9,110.2 126.8,109.9 C126.7,109.6 126.6,109.3 126.6,109 C126.6,108.8 126.6,108.7 126.7,108.5 C126.7,108.3 126.8,108.1 126.9,107.9 C127,107.7 127.2,107.5 127.4,107.3 C127.6,107.1 127.9,106.9 128.2,106.7 C128.4,106.6 128.7,106.5 129,106.5 C129.3,106.4 129.5,106.4 129.8,106.4 L131.2,106.4 L131.2,105.8 C131.2,105.7 131.2,105.5 131.1,105.4 C131.1,105.3 131,105.2 130.9,105.1 C130.8,105 130.7,105 130.6,104.9 C130.5,104.9 130.4,104.8 130.3,104.8 L130.1,104.8 C129.9,104.8 129.8,104.8 129.6,104.9 C129.5,105 129.3,105.1 129.2,105.2 C129.1,105.3 129.1,105.5 129.1,105.6 L129.1,105.9 L126.9,105.9 L126.9,105.5 C126.9,105.4 127,105.2 127,105 C127.1,104.8 127.1,104.7 127.3,104.5 C127.4,104.3 127.6,104.2 127.8,104 C128.2,103.8 128.5,103.6 128.9,103.5 C129.3,103.4 129.7,103.4 130.1,103.4 L130.7,103.4 C130.9,103.4 131.2,103.5 131.4,103.5 C131.6,103.6 131.9,103.7 132.1,103.8 C132.3,103.9 132.6,104.1 132.8,104.3 C132.9,104.5 133,104.6 133.1,104.8 C133.2,105 133.2,105.2 133.3,105.3 C133.3,105.5 133.4,105.6 133.4,105.8 L133.4,110.2 C133.4,110.5 133.5,110.8 133.5,111.2 L131.5,111.2 L131.5,111.1 Z M131.2,107.5 L130.2,107.5 C129.9,107.5 129.6,107.6 129.4,107.7 C129.2,107.8 129,107.9 128.9,108.1 C128.8,108.3 128.7,108.5 128.7,108.7 C128.7,108.8 128.7,109 128.8,109.1 C128.8,109.2 128.9,109.3 129,109.4 L129.3,109.7 C129.4,109.8 129.6,109.8 129.8,109.8 C130,109.8 130.2,109.8 130.3,109.7 C130.5,109.6 130.6,109.5 130.7,109.4 C130.9,109.2 131,108.9 131.1,108.6 C131.2,108.3 131.2,107.9 131.2,107.5 Z M130.3,102.3 L129.1,102.3 L130.3,100.1 L132.3,100.1 L130.3,102.3 Z M140.1,100.2 L142.3,100.2 L142.3,106.6 L144.6,103.4 L147.1,103.4 L144.5,106.7 L147.3,111 L144.7,111 L142.4,106.9 L142.4,111 L140.2,111 L140.2,100.2 L140.1,100.2 Z M148.7,104.9 L148.7,104.7 L148.7,104.4 L148.7,104 L148.7,103.6 L150.8,103.6 L150.9,104.7 C151,104.6 151,104.5 151.1,104.3 C151.2,104.1 151.4,104 151.5,103.9 C151.7,103.8 151.9,103.6 152.2,103.5 C152.5,103.4 152.8,103.3 153.3,103.3 C153.7,103.3 154,103.4 154.3,103.5 C154.6,103.6 154.8,103.7 155,103.9 C155.2,104 155.3,104.2 155.4,104.4 C155.5,104.6 155.6,104.7 155.6,104.8 C155.6,104.9 155.7,105 155.7,105.2 C155.7,105.3 155.8,105.5 155.8,105.6 L155.8,111.2 L153.5,111.2 L153.5,106.5 L153.5,106.1 C153.5,106 153.5,105.8 153.4,105.7 C153.3,105.5 153.2,105.4 153,105.2 C152.8,105.1 152.6,105 152.3,105 C152.1,105 151.8,105.1 151.6,105.2 C151.4,105.3 151.2,105.4 151.1,105.6 C151,105.7 151,105.8 150.9,106 C150.8,106.2 150.8,106.4 150.8,106.7 L150.8,111.1 L148.6,111.1 L148.6,104.9 L148.7,104.9 Z M158.1,100.2 L160.5,100.2 L160.5,102.1 L158.1,102.1 L158.1,100.2 Z M158.2,103.5 L160.4,103.5 L160.4,111.1 L158.2,111.1 L158.2,103.5 Z M162.7,100.2 L164.9,100.2 L164.9,104.5 C165,104.4 165,104.3 165.2,104.2 C165.3,104.1 165.4,103.9 165.6,103.8 L166.2,103.5 C166.4,103.4 166.7,103.4 167.1,103.4 C167.4,103.4 167.6,103.4 167.9,103.5 C168.1,103.6 168.3,103.6 168.5,103.7 C168.7,103.8 168.8,103.9 169,104 C169.1,104.1 169.2,104.2 169.3,104.4 C169.4,104.6 169.6,104.9 169.7,105.2 C169.8,105.5 169.8,106 169.8,106.5 L169.8,111.1 L167.6,111.1 L167.6,106.6 L167.6,106.2 C167.6,106 167.5,105.8 167.5,105.7 C167.4,105.5 167.3,105.4 167.1,105.2 C166.9,105.1 166.7,105 166.4,105 C166.2,105 166.1,105 165.9,105.1 C165.7,105.2 165.6,105.2 165.4,105.4 C165.3,105.5 165.1,105.7 165.1,105.9 C165,106.1 165,106.3 165,106.6 L165,111.2 L162.8,111.2 L162.8,100.2 L162.7,100.2 Z M171.8,107.4 C171.8,106.9 171.9,106.5 172,106 C172.1,105.5 172.3,105.1 172.6,104.7 C172.9,104.3 173.3,104 173.8,103.7 C174.3,103.4 174.9,103.3 175.7,103.3 C176.4,103.3 177,103.4 177.5,103.6 C178,103.8 178.4,104.1 178.7,104.5 C179,104.9 179.3,105.3 179.4,105.8 C179.6,106.3 179.6,106.8 179.6,107.3 C179.6,107.8 179.5,108.3 179.4,108.8 C179.2,109.3 179,109.7 178.7,110.1 C178.4,110.5 178,110.8 177.5,111 C177,111.2 176.4,111.3 175.7,111.3 C175.2,111.3 174.7,111.2 174.2,111.1 C173.7,110.9 173.3,110.7 173,110.3 C172.7,110 172.4,109.5 172.2,109 C171.9,108.6 171.8,108 171.8,107.4 L171.8,107.4 Z M174,107.4 C174,108.3 174.1,108.9 174.4,109.3 C174.7,109.7 175.1,109.9 175.6,109.9 C175.8,109.9 176.1,109.9 176.3,109.8 C176.5,109.7 176.7,109.6 176.8,109.4 C176.9,109.2 177,108.9 177.1,108.6 C177.2,108.3 177.2,107.8 177.2,107.3 C177.2,107 177.2,106.8 177.1,106.5 C177.1,106.2 177,106 176.9,105.7 C176.8,105.5 176.6,105.3 176.4,105.1 C176.2,104.9 175.9,104.9 175.5,104.9 C175.1,104.9 174.8,105 174.6,105.2 C174.4,105.4 174.2,105.6 174.1,105.9 C174,106.2 173.9,106.5 173.9,106.7 C174,107 174,107.2 174,107.4 L174,107.4 Z M182.8,103.5 L184.5,108.6 L186.2,103.5 L188.3,103.5 L185.6,111.1 L183.1,111.1 L180.3,103.5 L182.8,103.5 L182.8,103.5 Z M189.9,104.9 L189.9,104.7 L189.9,104.4 L189.9,104 L189.9,103.6 L192,103.6 L192.1,104.7 C192.2,104.6 192.2,104.5 192.3,104.3 L192.7,103.9 C192.9,103.8 193.1,103.6 193.4,103.5 C193.7,103.4 194,103.3 194.5,103.3 C194.9,103.3 195.2,103.4 195.5,103.5 C195.8,103.6 196,103.7 196.2,103.9 C196.4,104 196.5,104.2 196.6,104.4 C196.7,104.6 196.8,104.7 196.8,104.8 C196.8,104.9 196.9,105 196.9,105.2 C196.9,105.3 197,105.5 197,105.6 L197,111.2 L194.7,111.2 L194.7,106.5 L194.7,106.1 C194.7,106 194.7,105.8 194.6,105.7 C194.5,105.5 194.4,105.4 194.2,105.2 C194,105.1 193.8,105 193.5,105 C193.3,105 193,105.1 192.8,105.2 C192.6,105.3 192.4,105.4 192.3,105.6 C192.2,105.7 192.2,105.8 192.1,106 C192,106.2 192,106.4 192,106.7 L192,111.1 L189.8,111.1 L189.8,104.9 L189.9,104.9 Z M203.9,111.1 C203.9,110.9 203.8,110.7 203.8,110.5 L203.8,110.1 C203.6,110.4 203.4,110.6 203.1,110.8 C202.9,111 202.7,111.1 202.5,111.2 C202.3,111.3 202.1,111.3 201.9,111.3 L201.5,111.3 C201,111.3 200.5,111.2 200.3,111.1 C200.1,111 199.8,110.8 199.7,110.7 C199.5,110.5 199.3,110.2 199.2,109.9 C199.1,109.6 199,109.3 199,109 C199,108.8 199,108.7 199.1,108.5 C199.1,108.3 199.2,108.1 199.3,107.9 C199.4,107.7 199.6,107.5 199.8,107.3 C200,107.1 200.3,106.9 200.6,106.7 C200.8,106.6 201.1,106.5 201.4,106.5 C201.7,106.4 201.9,106.4 202.2,106.4 L203.6,106.4 L203.6,105.8 C203.6,105.7 203.6,105.5 203.5,105.4 C203.4,105.3 203.4,105.2 203.3,105.1 C203.2,105 203.1,105 203,104.9 C202.9,104.9 202.8,104.8 202.7,104.8 L202.5,104.8 C202.3,104.8 202.2,104.8 202,104.9 C201.8,105 201.7,105.1 201.6,105.2 C201.5,105.3 201.5,105.5 201.5,105.6 L201.5,105.9 L199.3,105.9 L199.3,105.5 C199.3,105.4 199.4,105.2 199.4,105 C199.5,104.8 199.5,104.7 199.7,104.5 C199.8,104.3 200,104.2 200.2,104 C200.5,103.8 200.9,103.6 201.3,103.5 C201.7,103.4 202.1,103.4 202.5,103.4 L203.1,103.4 C203.3,103.4 203.6,103.5 203.8,103.5 C204,103.6 204.3,103.7 204.5,103.8 C204.7,103.9 205,104.1 205.2,104.3 C205.3,104.5 205.4,104.6 205.5,104.8 C205.6,105 205.6,105.2 205.7,105.3 C205.7,105.5 205.8,105.6 205.8,105.8 L205.8,110.2 C205.8,110.5 205.9,110.8 205.9,111.2 L203.9,111.2 L203.9,111.1 Z M203.6,107.5 L202.6,107.5 C202.3,107.5 202,107.6 201.8,107.7 C201.6,107.8 201.4,107.9 201.3,108.1 C201.2,108.3 201.1,108.5 201.1,108.7 C201.1,108.8 201.1,109 201.2,109.1 C201.2,109.2 201.3,109.3 201.4,109.4 L201.7,109.7 C201.8,109.8 202,109.8 202.2,109.8 C202.4,109.8 202.6,109.8 202.7,109.7 C202.9,109.6 203,109.5 203.1,109.4 C203.3,109.2 203.4,108.9 203.5,108.6 C203.6,108.3 203.6,107.9 203.6,107.5 Z M1.5,117.7 L4.9,117.7 L9,126.2 L9,117.7 L11,117.7 L11,128.5 L7.8,128.5 L3.6,119.5 L3.6,128.5 L1.5,128.5 L1.5,117.7 Z M17.9,128.6 C17.9,128.4 17.8,128.2 17.8,128 L17.8,127.6 C17.6,127.9 17.4,128.1 17.1,128.3 C16.9,128.5 16.7,128.6 16.5,128.7 C16.3,128.8 16.1,128.8 15.9,128.8 L15.5,128.8 C14.9,128.8 14.5,128.7 14.3,128.6 C14,128.5 13.8,128.3 13.7,128.2 C13.5,128 13.3,127.7 13.2,127.4 C13.1,127.1 13,126.8 13,126.5 C13,126.3 13,126.2 13.1,126 C13.1,125.8 13.2,125.6 13.3,125.4 C13.4,125.2 13.6,125 13.8,124.8 C14,124.6 14.3,124.4 14.6,124.2 C14.8,124.1 15.1,124 15.4,124 C15.7,123.9 15.9,123.9 16.2,123.9 L17.6,123.9 L17.6,123.3 C17.6,123.2 17.6,123 17.5,122.9 C17.5,122.8 17.4,122.7 17.3,122.6 C17.2,122.5 17.1,122.5 17,122.4 C16.9,122.4 16.8,122.3 16.7,122.3 L16.5,122.3 C16.3,122.3 16.2,122.3 16,122.4 C15.9,122.5 15.7,122.6 15.6,122.7 C15.5,122.8 15.5,123 15.5,123.1 L15.5,123.4 L13.3,123.4 L13.3,123 C13.3,122.9 13.4,122.7 13.4,122.5 C13.5,122.3 13.5,122.2 13.7,122 C13.8,121.8 14,121.7 14.2,121.5 C14.6,121.3 14.9,121.1 15.3,121 C15.7,120.9 16.1,120.9 16.5,120.9 L17.1,120.9 C17.3,120.9 17.6,121 17.8,121 C18,121 18.3,121.2 18.5,121.3 C18.7,121.4 19,121.6 19.2,121.8 C19.3,122 19.4,122.1 19.5,122.3 C19.6,122.5 19.6,122.7 19.7,122.8 C19.7,123 19.8,123.1 19.8,123.3 L19.8,127.7 C19.8,128 19.9,128.3 19.9,128.7 L17.9,128.7 L17.9,128.6 Z M17.6,125 L16.6,125 C16.3,125 16,125.1 15.8,125.2 C15.6,125.3 15.4,125.4 15.3,125.6 C15.2,125.8 15.1,126 15.1,126.2 C15.1,126.3 15.1,126.5 15.2,126.6 C15.2,126.7 15.3,126.8 15.4,126.9 L15.7,127.2 C15.8,127.3 16,127.3 16.2,127.3 C16.4,127.3 16.6,127.3 16.7,127.2 C16.9,127.1 17,127 17.1,126.9 C17.3,126.7 17.4,126.4 17.5,126.1 C17.6,125.8 17.6,125.4 17.6,125 L17.6,125 Z M26.4,128.5 C26,128.6 25.7,128.7 25.4,128.7 L24.7,128.7 C24.1,128.7 23.7,128.6 23.4,128.5 C23.1,128.3 22.9,128.2 22.7,127.9 C22.6,127.7 22.5,127.5 22.5,127.2 L22.5,122.4 L21,122.4 L21,121 L22.5,121 L22.5,119.5 L24.7,118.7 L24.7,121 L26.5,121 L26.5,122.5 L24.7,122.5 L24.7,126.4 C24.7,126.5 24.8,126.7 24.8,126.8 C24.9,126.9 25,127 25.1,127 C25.2,127 25.4,127.1 25.7,127.1 L26.5,127.1 L26.5,128.5 L26.4,128.5 Z M28,117.7 L30.4,117.7 L30.4,119.6 L28,119.6 L28,117.7 Z M28.1,121 L30.3,121 L30.3,128.6 L28.1,128.6 L28.1,121 Z M32.2,124.9 C32.2,124.4 32.3,124 32.4,123.5 C32.5,123 32.7,122.6 33,122.2 C33.3,121.8 33.7,121.5 34.2,121.2 C34.7,120.9 35.3,120.8 36.1,120.8 C36.8,120.8 37.4,120.9 37.9,121.1 C38.4,121.3 38.8,121.6 39.1,122 C39.4,122.4 39.7,122.8 39.8,123.3 C39.9,123.8 40,124.3 40,124.8 C40,125.3 39.9,125.8 39.8,126.3 C39.6,126.8 39.4,127.2 39.1,127.6 C38.8,128 38.4,128.3 37.9,128.5 C37.4,128.7 36.8,128.8 36.1,128.8 C35.6,128.8 35.1,128.7 34.6,128.6 C34.1,128.4 33.7,128.2 33.4,127.8 C33,127.5 32.8,127 32.6,126.5 C32.3,126.1 32.2,125.5 32.2,124.9 L32.2,124.9 Z M34.5,124.9 C34.5,125.8 34.6,126.4 34.9,126.8 C35.2,127.2 35.6,127.4 36.1,127.4 C36.3,127.4 36.6,127.4 36.8,127.3 C37,127.2 37.2,127.1 37.3,126.9 C37.4,126.7 37.5,126.4 37.6,126.1 C37.7,125.8 37.7,125.3 37.7,124.8 C37.7,124.6 37.7,124.3 37.6,124 C37.6,123.7 37.5,123.5 37.4,123.2 C37.3,123 37.1,122.8 36.9,122.6 C36.7,122.4 36.4,122.4 36,122.4 C35.6,122.4 35.3,122.5 35.1,122.7 C34.9,122.9 34.7,123.1 34.6,123.4 C34.5,123.7 34.4,124 34.4,124.2 C34.5,124.5 34.5,124.7 34.5,124.9 L34.5,124.9 Z M42.1,122.4 L42.1,122.2 L42.1,121.9 L42.1,121.5 L42.1,121.1 L44.2,121.1 L44.3,122.2 C44.3,122.1 44.4,122 44.5,121.8 L44.9,121.4 C45.1,121.3 45.3,121.1 45.6,121 C45.9,120.9 46.2,120.8 46.6,120.8 C47,120.8 47.3,120.9 47.6,121 C47.9,121.1 48.1,121.2 48.3,121.4 C48.5,121.5 48.6,121.7 48.7,121.9 C48.8,122.1 48.9,122.2 48.9,122.3 C48.9,122.4 49,122.5 49,122.7 C49,122.8 49.1,123 49.1,123.1 L49.1,128.7 L46.8,128.7 L46.8,124 L46.8,123.6 C46.8,123.5 46.8,123.3 46.7,123.2 C46.6,123 46.5,122.9 46.3,122.7 C46.1,122.6 45.9,122.5 45.6,122.5 C45.4,122.5 45.1,122.6 44.9,122.7 C44.7,122.8 44.5,122.9 44.4,123.1 C44.3,123.2 44.3,123.3 44.2,123.5 C44.1,123.7 44.1,123.9 44.1,124.2 L44.1,128.6 L41.9,128.6 L41.9,122.4 L42.1,122.4 Z M56,128.6 C56,128.4 55.9,128.2 55.9,128 L55.9,127.6 C55.7,127.9 55.5,128.1 55.2,128.3 C55,128.5 54.8,128.6 54.6,128.7 C54.4,128.8 54.2,128.8 54,128.8 L53.6,128.8 C53,128.8 52.6,128.7 52.4,128.6 C52.1,128.5 51.9,128.3 51.8,128.2 C51.6,128 51.4,127.7 51.3,127.4 C51.2,127.1 51.1,126.8 51.1,126.5 C51.1,126.3 51.1,126.2 51.2,126 C51.2,125.8 51.3,125.6 51.4,125.4 C51.5,125.2 51.7,125 51.9,124.8 C52.1,124.6 52.4,124.4 52.7,124.2 C52.9,124.1 53.2,124 53.5,124 C53.8,123.9 54,123.9 54.3,123.9 L55.7,123.9 L55.7,123.3 C55.7,123.2 55.7,123 55.6,122.9 C55.6,122.8 55.5,122.7 55.4,122.6 C55.3,122.5 55.2,122.5 55.1,122.4 C55,122.4 54.9,122.3 54.8,122.3 L54.6,122.3 C54.4,122.3 54.3,122.3 54.1,122.4 C54,122.5 53.8,122.6 53.7,122.7 C53.6,122.8 53.6,123 53.6,123.1 L53.6,123.4 L51.4,123.4 L51.4,123 C51.4,122.9 51.5,122.7 51.5,122.5 C51.6,122.3 51.6,122.2 51.8,122 C51.9,121.8 52.1,121.7 52.3,121.5 C52.7,121.3 53,121.1 53.4,121 C53.8,120.9 54.2,120.9 54.6,120.9 L55.2,120.9 C55.4,120.9 55.7,121 55.9,121 C56.1,121 56.4,121.2 56.6,121.3 C56.8,121.4 57.1,121.6 57.3,121.8 C57.4,122 57.5,122.1 57.6,122.3 C57.7,122.5 57.7,122.7 57.8,122.8 C57.8,123 57.9,123.1 57.9,123.3 L57.9,127.7 C57.9,128 58,128.3 58,128.7 L56,128.7 L56,128.6 Z M55.8,125 L54.8,125 C54.5,125 54.2,125.1 54,125.2 C53.8,125.3 53.6,125.4 53.5,125.6 C53.4,125.8 53.3,126 53.3,126.2 C53.3,126.3 53.3,126.5 53.4,126.6 C53.4,126.7 53.5,126.8 53.6,126.9 L53.9,127.2 C54,127.3 54.2,127.3 54.4,127.3 C54.6,127.3 54.8,127.3 54.9,127.2 C55.1,127.1 55.2,127 55.3,126.9 C55.5,126.7 55.6,126.4 55.7,126.1 C55.7,125.8 55.8,125.4 55.8,125 Z M60.1,117.7 L62.3,117.7 L62.3,128.5 L60.1,128.5 L60.1,117.7 Z M69.1,117.7 L71.5,117.7 L71.5,126.7 L76.2,126.7 L76.2,128.5 L69.2,128.5 L69.2,117.7 L69.1,117.7 Z M77.6,117.7 L80,117.7 L80,119.6 L77.6,119.6 L77.6,117.7 Z M77.7,121 L79.9,121 L79.9,128.6 L77.7,128.6 L77.7,121 Z M82.1,117.7 L84.3,117.7 L84.3,121.9 L84.9,121.3 L85.5,121 C85.7,120.9 85.9,120.9 86,120.9 L86.4,120.9 C86.9,120.9 87.3,121 87.7,121.2 C88.1,121.4 88.5,121.6 88.7,122 C89,122.3 89.2,122.8 89.4,123.3 C89.6,123.8 89.7,124.4 89.7,125 C89.7,125.7 89.6,126.3 89.4,126.8 C89.2,127.3 89,127.7 88.7,128 C88.4,128.3 88.1,128.5 87.7,128.7 C87.3,128.8 86.9,128.9 86.6,128.9 L86.2,128.9 C86,128.9 85.8,128.8 85.6,128.8 C85.4,128.7 85.2,128.6 84.9,128.4 C84.7,128.2 84.5,128 84.3,127.7 L84.3,128.8 L82.2,128.8 L82.2,117.7 L82.1,117.7 Z M87.5,125 L87.5,124.3 C87.5,124 87.4,123.7 87.3,123.4 C87.2,123.1 87,122.9 86.8,122.6 C86.6,122.4 86.3,122.3 85.9,122.3 C85.5,122.3 85.2,122.4 85,122.6 C84.8,122.8 84.6,123 84.5,123.3 C84.4,123.6 84.3,123.8 84.3,124.1 L84.3,124.7 C84.3,125.6 84.5,126.2 84.8,126.6 C85.1,127 85.5,127.2 86.1,127.2 C86.5,127.2 86.8,127.1 87,126.9 C87.2,126.7 87.4,126.5 87.5,126.2 C87.6,125.9 87.7,125.7 87.7,125.4 C87.5,125.2 87.5,125.1 87.5,125 L87.5,125 Z M91.7,122.9 L91.7,122.5 L91.7,122 L91.7,121.5 L91.7,121.1 L93.8,121.1 L93.8,122.6 C93.9,122.4 94,122.3 94.1,122.1 C94.2,121.9 94.4,121.8 94.6,121.6 C94.8,121.5 95,121.3 95.3,121.2 C95.6,121.1 96,121.1 96.4,121.1 L96.4,123.1 C95.8,123.1 95.4,123.1 95.1,123.2 C94.8,123.3 94.5,123.4 94.4,123.6 C94.2,123.8 94.1,124 94.1,124.3 C94.1,124.5 94,124.8 94,125 L94,128.7 L91.8,128.7 L91.8,122.9 L91.7,122.9 Z M102,128.6 C102,128.4 101.9,128.2 101.9,128 L101.9,127.6 C101.7,127.9 101.5,128.1 101.2,128.3 C101,128.5 100.8,128.6 100.6,128.7 C100.4,128.8 100.2,128.8 100,128.8 L99.6,128.8 C99,128.8 98.6,128.7 98.4,128.6 C98.1,128.5 97.9,128.3 97.8,128.2 C97.6,128 97.4,127.7 97.3,127.4 C97.2,127.1 97.1,126.8 97.1,126.5 C97.1,126.3 97.1,126.2 97.2,126 C97.2,125.8 97.3,125.6 97.4,125.4 C97.5,125.2 97.7,125 97.9,124.8 C98.1,124.6 98.4,124.4 98.7,124.2 C98.9,124.1 99.2,124 99.5,124 C99.8,123.9 100,123.9 100.3,123.9 L101.7,123.9 L101.7,123.3 C101.7,123.2 101.7,123 101.6,122.9 C101.6,122.8 101.5,122.7 101.4,122.6 C101.3,122.5 101.2,122.5 101.1,122.4 C101,122.4 100.9,122.3 100.8,122.3 L100.6,122.3 C100.4,122.3 100.3,122.3 100.1,122.4 C100,122.5 99.8,122.6 99.7,122.7 C99.6,122.8 99.6,123 99.6,123.1 L99.6,123.4 L97.4,123.4 L97.4,123 C97.4,122.9 97.5,122.7 97.5,122.5 C97.6,122.3 97.6,122.2 97.8,122 C97.9,121.8 98.1,121.7 98.3,121.5 C98.7,121.3 99,121.1 99.4,121 C99.8,120.9 100.2,120.9 100.6,120.9 L101.2,120.9 C101.4,120.9 101.7,121 101.9,121 C102.1,121 102.4,121.2 102.6,121.3 C102.8,121.4 103.1,121.6 103.3,121.8 C103.4,122 103.5,122.1 103.6,122.3 C103.7,122.5 103.7,122.7 103.8,122.8 C103.8,123 103.9,123.1 103.9,123.3 L103.9,127.7 C103.9,128 104,128.3 104,128.7 L102,128.7 L102,128.6 Z M101.7,125 L100.7,125 C100.4,125 100.1,125.1 99.9,125.2 C99.7,125.3 99.5,125.4 99.4,125.6 C99.3,125.8 99.2,126 99.2,126.2 C99.2,126.3 99.2,126.5 99.3,126.6 C99.4,126.7 99.4,126.8 99.5,126.9 L99.8,127.2 C99.9,127.3 100.1,127.3 100.3,127.3 C100.5,127.3 100.7,127.3 100.8,127.2 C101,127.1 101.1,127 101.2,126.9 C101.4,126.7 101.5,126.4 101.6,126.1 C101.7,125.8 101.7,125.4 101.7,125 Z M106.1,122.9 L106.1,122.5 L106.1,122 L106.1,121.5 L106.1,121.1 L108.2,121.1 L108.2,122.6 C108.3,122.4 108.4,122.3 108.5,122.1 C108.6,121.9 108.8,121.8 109,121.6 C109.2,121.5 109.4,121.3 109.7,121.2 C110,121.1 110.4,121.1 110.8,121.1 L110.8,123.1 C110.2,123.1 109.8,123.1 109.5,123.2 C109.2,123.3 108.9,123.4 108.8,123.6 C108.6,123.8 108.5,124 108.5,124.3 C108.5,124.5 108.4,124.8 108.4,125 L108.4,128.7 L106.2,128.7 L106.2,122.9 L106.1,122.9 Z M113.9,121 L115.6,126.2 L117.3,121 L119.5,121 L116.6,128.4 L115.7,131.4 L113.5,131.4 L114.5,128.6 L111.6,121 L113.9,121 L113.9,121 Z M125,124.9 C125,124.4 125.1,124 125.2,123.5 C125.3,123 125.5,122.6 125.8,122.2 C126.1,121.8 126.5,121.5 127,121.2 C127.5,120.9 128.1,120.8 128.9,120.8 C129.6,120.8 130.2,120.9 130.7,121.1 C131.2,121.3 131.6,121.6 131.9,122 C132.2,122.4 132.5,122.8 132.6,123.3 C132.8,123.8 132.8,124.3 132.8,124.8 C132.8,125.3 132.7,125.8 132.6,126.3 C132.4,126.8 132.2,127.2 131.9,127.6 C131.6,128 131.2,128.3 130.7,128.5 C130.2,128.7 129.6,128.8 128.9,128.8 C128.4,128.8 127.9,128.7 127.4,128.6 C126.9,128.4 126.5,128.2 126.2,127.8 C125.8,127.5 125.6,127 125.4,126.5 C125.1,126.1 125,125.5 125,124.9 L125,124.9 Z M127.3,124.9 C127.3,125.8 127.4,126.4 127.7,126.8 C128,127.2 128.4,127.4 128.9,127.4 C129.1,127.4 129.4,127.4 129.6,127.3 C129.8,127.2 130,127.1 130.1,126.9 C130.2,126.7 130.3,126.4 130.4,126.1 C130.5,125.8 130.5,125.3 130.5,124.8 C130.5,124.6 130.5,124.3 130.4,124 C130.4,123.7 130.3,123.5 130.2,123.2 C130.1,123 129.9,122.8 129.7,122.6 C129.5,122.4 129.2,122.4 128.8,122.4 C128.4,122.4 128.1,122.5 127.9,122.7 C127.7,122.9 127.5,123.1 127.4,123.4 C127.3,123.7 127.2,124 127.2,124.2 C127.3,124.5 127.3,124.7 127.3,124.9 L127.3,124.9 Z M135,122.6 L133.9,122.6 L133.9,121 L135,121 L135,120 C135,119.7 135,119.4 135.1,119.1 C135.2,118.8 135.3,118.5 135.5,118.3 C135.7,118.1 136,117.9 136.3,117.8 C136.6,117.7 137.1,117.6 137.6,117.6 L138,117.6 C138.2,117.6 138.5,117.6 138.8,117.7 L138.8,119.2 L138.4,119.2 C138.1,119.2 137.9,119.2 137.7,119.3 C137.5,119.4 137.4,119.4 137.4,119.5 C137.3,119.6 137.3,119.7 137.3,119.8 L137.3,121 L138.7,121 L138.7,122.6 L137.3,122.6 L137.3,128.6 L135,128.6 L135,122.6 L135,122.6 Z M147.1,119.5 L143.9,119.5 L143.9,117.7 L152.7,117.7 L152.7,119.5 L149.5,119.5 L149.5,128.6 L147.2,128.6 L147.2,119.5 L147.1,119.5 Z M153.6,125.4 L153.6,125.9 C153.6,126.1 153.7,126.4 153.8,126.6 C153.9,126.8 154.1,127 154.3,127.2 C154.5,127.4 154.8,127.4 155.2,127.4 C155.5,127.4 155.7,127.3 156,127.2 C156.2,127.1 156.4,126.8 156.5,126.4 L158.5,126.4 L158.5,126.7 C158.5,126.8 158.5,127 158.4,127.1 C158.3,127.2 158.3,127.4 158.2,127.6 C158.1,127.8 158,127.9 157.8,128.1 C157.5,128.4 157.1,128.6 156.7,128.8 C156.2,129 155.7,129 155.2,129 L154.6,129 C154.4,129 154.1,128.9 153.9,128.9 C153.7,128.8 153.4,128.7 153.2,128.6 C153,128.5 152.7,128.3 152.5,128.1 C152.1,127.7 151.9,127.3 151.7,126.8 C151.5,126.3 151.5,125.7 151.5,125.1 C151.5,124.8 151.5,124.5 151.6,124.1 C151.6,123.8 151.7,123.4 151.8,123.1 C151.9,122.8 152.1,122.5 152.3,122.2 C152.5,121.9 152.8,121.7 153.1,121.4 C153.4,121.2 153.7,121 154.1,120.9 C154.5,120.8 154.8,120.7 155.3,120.7 C155.6,120.7 155.9,120.7 156.1,120.8 C156.4,120.9 156.7,121 156.9,121.1 C157.2,121.2 157.4,121.4 157.7,121.7 C157.9,121.9 158.1,122.2 158.3,122.6 C158.4,122.9 158.5,123.1 158.6,123.4 C158.7,123.7 158.7,123.9 158.7,124.2 L158.7,125.5 L153.6,125.5 L153.6,125.4 Z M156.4,124 L156.4,123.6 C156.4,123.4 156.3,123.2 156.3,123 C156.2,122.8 156.1,122.6 155.9,122.5 C155.7,122.4 155.5,122.3 155.1,122.3 C154.9,122.3 154.7,122.3 154.5,122.4 C154.3,122.5 154.2,122.6 154.1,122.8 C154,123 153.9,123.1 153.8,123.3 C153.7,123.5 153.7,123.7 153.7,123.9 L156.4,123.9 L156.4,124 Z M164.5,123.7 L164.5,123.4 C164.5,123.2 164.4,123.1 164.4,122.9 C164.3,122.7 164.2,122.6 164.1,122.5 C164,122.4 163.8,122.3 163.6,122.3 C163.3,122.3 163.1,122.4 163,122.6 C162.8,122.8 162.7,123 162.6,123.2 C162.5,123.4 162.5,123.7 162.4,124 L162.4,125.2 C162.4,125.4 162.4,125.6 162.5,125.8 C162.5,126 162.6,126.3 162.7,126.5 C162.8,126.7 162.9,126.9 163,127 C163.1,127.1 163.2,127.2 163.3,127.2 L163.8,127.2 C163.9,127.2 164,127.1 164.1,127 C164.2,126.9 164.3,126.8 164.4,126.6 C164.5,126.4 164.5,126.1 164.6,125.8 L166.8,125.8 L166.8,126.3 C166.8,126.5 166.7,126.7 166.7,126.9 L166.4,127.5 C166.3,127.7 166.1,127.9 165.9,128.1 C165.6,128.3 165.3,128.5 165,128.6 C164.7,128.7 164.2,128.8 163.8,128.8 C163.3,128.8 162.8,128.7 162.4,128.6 C162,128.5 161.6,128.2 161.2,127.8 C160.9,127.4 160.6,127 160.5,126.5 C160.3,126 160.3,125.4 160.3,124.8 C160.3,123.9 160.4,123.3 160.7,122.7 C161,122.2 161.3,121.8 161.7,121.5 C162.1,121.2 162.5,121 162.9,121 C163.3,120.9 163.6,120.9 163.9,120.9 C164.2,120.9 164.6,121 165,121.1 C165.4,121.2 165.7,121.4 166,121.6 C166.3,121.8 166.5,122.1 166.7,122.5 C166.9,122.9 167,123.3 167,123.8 L164.5,123.8 L164.5,123.7 Z M168.3,117.7 L170.5,117.7 L170.5,122 C170.6,121.9 170.6,121.8 170.8,121.7 C170.9,121.6 171,121.4 171.2,121.3 L171.8,121 C172,120.9 172.3,120.9 172.7,120.9 C173,120.9 173.2,120.9 173.5,121 C173.7,121.1 173.9,121.1 174.1,121.2 C174.3,121.3 174.4,121.4 174.6,121.5 C174.7,121.6 174.8,121.7 174.9,121.9 C175,122.1 175.2,122.4 175.3,122.7 C175.4,123 175.4,123.5 175.4,124 L175.4,128.6 L173.2,128.6 L173.2,124 L173.2,123.6 C173.2,123.4 173.1,123.2 173.1,123.1 C173,122.9 172.9,122.8 172.7,122.6 C172.5,122.5 172.3,122.4 172,122.4 C171.8,122.4 171.7,122.4 171.5,122.5 C171.3,122.6 171.2,122.6 171,122.8 C170.9,122.9 170.7,123.1 170.7,123.3 C170.6,123.5 170.6,123.7 170.6,124 L170.6,128.6 L168.4,128.6 L168.4,117.7 L168.3,117.7 Z M177.8,122.4 L177.8,122.2 L177.8,121.9 L177.8,121.5 L177.8,121.1 L179.9,121.1 L180,122.2 C180,122.1 180.1,122 180.2,121.8 C180.3,121.7 180.5,121.5 180.7,121.4 C180.9,121.3 181.1,121.1 181.4,121 C181.7,120.9 182,120.8 182.5,120.8 C182.9,120.8 183.2,120.9 183.5,121 C183.8,121.1 184,121.2 184.2,121.4 C184.4,121.5 184.5,121.7 184.6,121.9 C184.7,122.1 184.8,122.2 184.8,122.3 C184.8,122.4 184.9,122.5 184.9,122.7 C184.9,122.8 185,123 185,123.1 L185,128.7 L182.7,128.7 L182.7,124 L182.7,123.6 C182.7,123.5 182.7,123.3 182.6,123.2 C182.5,123 182.4,122.9 182.2,122.7 C182,122.6 181.8,122.5 181.5,122.5 C181.3,122.5 181,122.6 180.8,122.7 C180.6,122.8 180.4,122.9 180.3,123.1 C180.2,123.2 180.2,123.3 180.1,123.5 C180,123.7 180,123.9 180,124.2 L180,128.6 L177.8,128.6 L177.8,122.4 L177.8,122.4 Z M186.8,124.9 C186.8,124.4 186.9,124 187,123.5 C187.1,123 187.3,122.6 187.6,122.2 C187.9,121.8 188.3,121.5 188.8,121.2 C189.3,120.9 189.9,120.8 190.7,120.8 C191.4,120.8 192,120.9 192.5,121.1 C193,121.3 193.4,121.6 193.7,122 C194,122.4 194.3,122.8 194.4,123.3 C194.6,123.8 194.6,124.3 194.6,124.8 C194.6,125.3 194.5,125.8 194.4,126.3 C194.2,126.8 194,127.2 193.7,127.6 C193.4,128 193,128.3 192.5,128.5 C192,128.7 191.4,128.8 190.7,128.8 C190.2,128.8 189.7,128.7 189.2,128.6 C188.7,128.4 188.3,128.2 188,127.8 C187.7,127.5 187.4,127 187.2,126.5 C186.9,126.1 186.8,125.5 186.8,124.9 L186.8,124.9 Z M189.1,124.9 C189.1,125.8 189.2,126.4 189.5,126.8 C189.8,127.2 190.2,127.4 190.7,127.4 C190.9,127.4 191.2,127.4 191.4,127.3 C191.6,127.2 191.8,127.1 191.9,126.9 C192,126.7 192.1,126.4 192.2,126.1 C192.3,125.8 192.3,125.3 192.3,124.8 C192.3,124.6 192.3,124.3 192.2,124 C192.2,123.7 192.1,123.5 192,123.2 C191.9,123 191.7,122.8 191.5,122.6 C191.3,122.4 191,122.4 190.6,122.4 C190.2,122.4 189.9,122.5 189.7,122.7 C189.5,122.9 189.3,123.1 189.2,123.4 C189.1,123.7 189,124 189,124.2 C189.1,124.5 189.1,124.7 189.1,124.9 L189.1,124.9 Z M196.7,117.7 L198.9,117.7 L198.9,128.5 L196.7,128.5 L196.7,117.7 Z M200.8,124.9 C200.8,124.4 200.9,124 201,123.5 C201.1,123 201.3,122.6 201.6,122.2 C201.9,121.8 202.3,121.5 202.8,121.2 C203.3,120.9 203.9,120.8 204.7,120.8 C205.4,120.8 206,120.9 206.5,121.1 C207,121.3 207.4,121.6 207.7,122 C208,122.4 208.3,122.8 208.4,123.3 C208.6,123.8 208.6,124.3 208.6,124.8 C208.6,125.3 208.5,125.8 208.4,126.3 C208.2,126.8 208,127.2 207.7,127.6 C207.4,128 207,128.3 206.5,128.5 C206,128.7 205.4,128.8 204.7,128.8 C204.2,128.8 203.7,128.7 203.2,128.6 C202.7,128.4 202.3,128.2 202,127.8 C201.7,127.5 201.4,127 201.2,126.5 C200.9,126.1 200.8,125.5 200.8,124.9 L200.8,124.9 Z M203.1,124.9 C203.1,125.8 203.2,126.4 203.5,126.8 C203.8,127.2 204.2,127.4 204.7,127.4 C204.9,127.4 205.2,127.4 205.4,127.3 C205.6,127.2 205.8,127.1 205.9,126.9 C206,126.7 206.1,126.4 206.2,126.1 C206.3,125.8 206.3,125.3 206.3,124.8 C206.3,124.6 206.3,124.3 206.2,124 C206.2,123.7 206.1,123.5 206,123.2 C205.9,123 205.7,122.8 205.5,122.6 C205.3,122.4 205,122.4 204.6,122.4 C204.2,122.4 203.9,122.5 203.7,122.7 C203.5,122.9 203.3,123.1 203.2,123.4 C203.1,123.7 203,124 203,124.2 C203.1,124.5 203.1,124.7 203.1,124.9 L203.1,124.9 Z M217.8,121 C217.8,121.3 217.7,121.6 217.7,121.9 L217.7,128.5 C217.7,129.2 217.6,129.8 217.3,130.2 C217,130.6 216.7,130.9 216.3,131.1 C215.9,131.3 215.5,131.4 215.1,131.5 C214.7,131.6 214.3,131.6 213.9,131.6 C213.6,131.6 213.3,131.6 212.9,131.5 C212.5,131.5 212.2,131.4 211.8,131.2 C211.5,131 211.2,130.8 210.9,130.5 C210.7,130.2 210.5,129.7 210.5,129.2 L212.6,129.2 C212.6,129.3 212.6,129.3 212.7,129.5 C212.7,129.6 212.8,129.7 212.9,129.8 C213,129.9 213.1,130 213.3,130.1 C213.5,130.2 213.7,130.2 214,130.2 C214.3,130.2 214.6,130.1 214.9,130 C215.2,129.8 215.3,129.6 215.4,129.2 C215.4,129.1 215.4,129 215.5,128.9 L215.5,128.6 L215.5,128.1 L215.5,127.4 C215.3,127.6 215.1,127.8 215,128 C214.8,128.1 214.6,128.2 214.5,128.3 C214.3,128.4 214.1,128.4 214,128.4 L213.6,128.4 C213.1,128.4 212.6,128.3 212.2,128.1 C211.8,127.9 211.5,127.6 211.2,127.3 C210.9,127 210.7,126.6 210.6,126.1 C210.5,125.7 210.4,125.2 210.4,124.7 C210.4,124.2 210.5,123.8 210.6,123.3 C210.7,122.8 210.9,122.4 211.2,122.1 C211.5,121.8 211.8,121.5 212.2,121.3 C212.6,121.1 213.1,121 213.6,121 C213.9,121 214.2,121 214.5,121.1 L215.1,121.4 C215.3,121.5 215.4,121.6 215.5,121.8 C215.6,122 215.7,122 215.7,122.1 L215.8,121.1 L217.8,121.1 L217.8,121 Z M212.5,124.7 L212.5,125.2 C212.5,125.4 212.6,125.7 212.7,125.9 C212.8,126.1 212.9,126.4 213.1,126.6 C213.3,126.8 213.6,126.9 214,126.9 C214.4,126.9 214.7,126.8 214.9,126.6 C215.1,126.4 215.3,126.2 215.4,125.9 C215.5,125.7 215.6,125.4 215.6,125.2 L215.6,124.7 L215.6,124 C215.6,123.7 215.5,123.5 215.4,123.2 C215.3,123 215.1,122.8 214.9,122.6 C214.7,122.4 214.4,122.4 214.1,122.4 C213.7,122.4 213.3,122.6 213,122.9 C212.6,123.3 212.5,123.9 212.5,124.7 L212.5,124.7 Z M221.4,121 L223.1,126.2 L224.8,121 L227,121 L224.1,128.4 L223.2,131.4 L221,131.4 L222,128.6 L219,121 L221.4,121 Z"/>
  </g>
</svg>
