<?xml version="1.0" encoding="utf-8"?>
<!-- Generator: Adobe Illustrator 19.2.0, SVG Export Plug-In . SVG Version: 6.00 Build 0)  -->
<svg version="1.1" id="Vrstva_1" xmlns="http://www.w3.org/2000/svg" xmlns:xlink="http://www.w3.org/1999/xlink" x="0px" y="0px"
	 viewBox="0 0 197.8 90.5" style="enable-background:new 0 0 197.8 90.5;" xml:space="preserve">
<style type="text/css">
	.st0{fill:#FFFFFF;}
	.st1{clip-path:url(#SVGID_2_);fill:#FFFFFF;}
	.st2{clip-path:url(#SVGID_4_);fill:#EC443B;}
</style>
<polygon class="st0" points="57.4,80.6 57.4,11.7 72.2,11.7 72.2,69.1 102,69.1 102,80.6 "/>
<rect x="113.3" y="11.7" class="st0" width="14.8" height="68.9"/>
<g>
	<defs>
		<rect id="SVGID_1_" y="0" width="197.8" height="82"/>
	</defs>
	<clipPath id="SVGID_2_">
		<use xlink:href="#SVGID_1_"  style="overflow:visible;"/>
	</clipPath>
	<path class="st1" d="M144,80.6V11.7h25.9c12.3-0.8,24.9,4.4,24.9,17.9c0,7.5-5.2,12.8-12.1,15.1v0.2c8.7,1.8,15.2,7.8,15.2,17.9
		c0,13.7-17.2,18.6-27.8,17.9H144z M170.3,39.3c6.2,0,9.6-2.6,9.6-8.1c0-5.5-3.4-8.1-9.6-8.1h-11.6v16.2H170.3z M170.3,69.1
		c7,0,11.7-1.2,11.7-9.2c0-7.9-4.8-9.2-11.7-9.2h-11.6v18.3H170.3z"/>
	<path class="st1" d="M7.1,3.9c0-1.2-0.7-2.2-2.2-2.2C3.2,1.8,2.7,4.4,2.7,6c0,1.6,0.4,4.2,2.2,4.2c1.5,0,2.2-1,2.2-2.2h2.6
		c-0.1,2.9-2.2,3.9-4.8,3.9c-3.3,0-4.8-2.6-4.8-6c0-3.3,1.5-6,4.8-6c2.6,0,4.7,1.1,4.8,3.9H7.1z"/>
	<polygon class="st1" points="12.4,9.8 18,2.1 12.7,2.1 12.7,0.2 21,0.2 21,2.1 15.3,9.8 21.1,9.8 21.1,11.7 12.4,11.7 	"/>
	<polygon class="st1" points="24.2,0.2 31.9,0.2 31.9,2.1 26.7,2.1 26.7,4.8 31.6,4.8 31.6,6.7 26.7,6.7 26.7,9.8 32.1,9.8 
		32.1,11.7 24.2,11.7 	"/>
	<path class="st1" d="M42.3,3.9c0-1.2-0.7-2.2-2.2-2.2c-1.7,0-2.2,2.6-2.2,4.2c0,1.6,0.4,4.2,2.2,4.2c1.5,0,2.2-1,2.2-2.2h2.6
		c-0.1,2.9-2.2,3.9-4.8,3.9c-3.3,0-4.8-2.6-4.8-6c0-3.3,1.5-6,4.8-6c2.6,0,4.7,1.1,4.8,3.9H42.3z"/>
	<polygon class="st1" points="48.1,11.7 48.1,0.2 50.6,0.2 50.6,4.8 54.9,4.8 54.9,0.2 57.4,0.2 57.4,11.7 55,11.7 55,6.7 50.6,6.7 
		50.6,11.7 	"/>
</g>
<g>
	<defs>
		<path id="SVGID_3_" d="M23,40.8c7,0,8.4,4.9,8.4,10.1H14.8C15,45.6,16.4,40.8,23,40.8 M0,56.5V57c0.1,15.8,6.7,25,23,25
			c11.2,0,20.4-3.9,21.7-15.8H31.8c-1.3,4.4-3.8,6.2-8.8,6.2c-7.4,0-8.2-5.8-8.2-12h31.4c0-3.1,0-6.2-0.4-9.2
			c-0.4-3.1-1-5.9-2.4-8.6C39.4,34.3,32,31.2,23,31.2C8.5,31.2,0.1,42.2,0,56.5"/>
	</defs>
	<clipPath id="SVGID_4_">
		<use xlink:href="#SVGID_3_"  style="overflow:visible;"/>
	</clipPath>
	<path class="st2" d="M4.8,90.5H3.9V22.7h0.8V90.5z M0.8,90.5H0V22.7h0.8V90.5z"/>
	<path class="st2" d="M12.7,90.5H9.9V22.7h2.8V90.5z M8.7,90.5H5.9V22.7h2.8V90.5z"/>
	<rect x="13.8" y="22.7" class="st2" width="0.8" height="67.8"/>
	<rect x="15.8" y="22.7" class="st2" width="2.8" height="67.8"/>
	<rect x="19.7" y="22.7" class="st2" width="0.8" height="67.8"/>
	<rect x="21.7" y="22.7" class="st2" width="2.8" height="67.8"/>
	<path class="st2" d="M36.3,90.5h-0.8V22.7h0.8V90.5z M32.4,90.5h-0.8V22.7h0.8V90.5z M30.4,90.5h-0.8V22.7h0.8V90.5z M28.4,90.5
		h-0.8V22.7h0.8V90.5z"/>
	<path class="st2" d="M44.2,90.5h-2.8V22.7h2.8V90.5z M40.3,90.5h-2.8V22.7h2.8V90.5z"/>
	<rect x="45.4" y="22.7" class="st2" width="0.8" height="67.8"/>
</g>
</svg>
