<svg xmlns="http://www.w3.org/2000/svg" width="198" height="92" viewBox="0 0 198 92">
  <g fill="none">
    <polygon fill="#FFFFFF" points="57.4 81.6 57.4 12.7 72.2 12.7 72.2 70.1 102 70.1 102 81.6"/>
    <rect width="14.8" height="68.9" x="113.3" y="12.7" fill="#FFFFFF"/>
    <g fill="#FFFFFF">
      <path d="M144 81.6L144 12.7 169.9 12.7C182.2 11.9 194.8 17.1 194.8 30.6 194.8 38.1 189.6 43.4 182.7 45.7L182.7 45.9C191.4 47.7 197.9 53.7 197.9 63.8 197.9 77.5 180.7 82.4 170.1 81.7L144 81.7 144 81.6zM170.3 40.3C176.5 40.3 179.9 37.7 179.9 32.2 179.9 26.7 176.5 24.1 170.3 24.1L158.7 24.1 158.7 40.3 170.3 40.3zM170.3 70.1C177.3 70.1 182 68.9 182 60.9 182 53 177.2 51.7 170.3 51.7L158.7 51.7 158.7 70 170.3 70 170.3 70.1zM7.1 4.9C7.1 3.7 6.4 2.7 4.9 2.7 3.2 2.8 2.7 5.4 2.7 7 2.7 8.6 3.1 11.2 4.9 11.2 6.4 11.2 7.1 10.2 7.1 9L9.7 9C9.6 11.9 7.5 12.9 4.9 12.9 1.6 12.9.1 10.3.1 6.9.1 3.6 1.6.9 4.9.9 7.5.9 9.6 2 9.7 4.8L7.1 4.8 7.1 4.9z"/>
      <polygon points="12.4 10.8 18 3.1 12.7 3.1 12.7 1.2 21 1.2 21 3.1 15.3 10.8 21.1 10.8 21.1 12.7 12.4 12.7"/>
      <polygon points="24.2 1.2 31.9 1.2 31.9 3.1 26.7 3.1 26.7 5.8 31.6 5.8 31.6 7.7 26.7 7.7 26.7 10.8 32.1 10.8 32.1 12.7 24.2 12.7"/>
      <path d="M42.3,4.9 C42.3,3.7 41.6,2.7 40.1,2.7 C38.4,2.7 37.9,5.3 37.9,6.9 C37.9,8.5 38.3,11.1 40.1,11.1 C41.6,11.1 42.3,10.1 42.3,8.9 L44.9,8.9 C44.8,11.8 42.7,12.8 40.1,12.8 C36.8,12.8 35.3,10.2 35.3,6.8 C35.3,3.5 36.8,0.8 40.1,0.8 C42.7,0.8 44.8,1.9 44.9,4.7 L42.3,4.7 L42.3,4.9 Z"/>
      <polygon points="48.1 12.7 48.1 1.2 50.6 1.2 50.6 5.8 54.9 5.8 54.9 1.2 57.4 1.2 57.4 12.7 55 12.7 55 7.7 50.6 7.7 50.6 12.7"/>
    </g>
    <g fill="#EC443B" transform="translate(0 23)">
      <path d="M4.8 68.5L3.9 68.5 3.9.7 4.7.7 4.7 68.5 4.8 68.5zM.8 68.5L0 68.5 0 .7.8.7.8 68.5zM12.7 68.5L9.9 68.5 9.9.7 12.7.7 12.7 68.5zM8.7 68.5L5.9 68.5 5.9.7 8.7.7 8.7 68.5z"/>
      <rect width="1" height="67.8" x="13.8" y=".7"/>
      <rect width="2.8" height="67.8" x="15.8" y=".7"/>
      <rect width="1" height="67.8" x="19.7" y=".7"/>
      <rect width="2.8" height="67.8" x="21.7" y=".7"/>
      <path d="M36.3 68.5L35.5 68.5 35.5.7 36.3.7 36.3 68.5zM32.4 68.5L31.6 68.5 31.6.7 32.4.7 32.4 68.5zM30.4 68.5L29.6 68.5 29.6.7 30.4.7 30.4 68.5zM28.4 68.5L27.6 68.5 27.6.7 28.4.7 28.4 68.5zM44.2 68.5L41.4 68.5 41.4.7 44.2.7 44.2 68.5zM40.3 68.5L37.5 68.5 37.5.7 40.3.7 40.3 68.5z"/>
      <rect width="1" height="67.8" x="45.4" y=".7"/>
    </g>
  </g>
</svg>
