<svg xmlns="http://www.w3.org/2000/svg" width="39.156" height="39" viewBox="0 0 39.156 39">
  <defs>
    <style>
      .cls-1 {
        fill: silver;
        fill-rule: evenodd;
      }
    </style>
  </defs>
  <path id="social-linkedin.svg" class="cls-1" d="M572.419,3318a19.5,19.5,0,1,1-19.581,19.5A19.541,19.541,0,0,1,572.419,3318Zm-6.31,9.58a2.275,2.275,0,1,1-2.282,2.27A2.278,2.278,0,0,1,566.109,3327.58Zm-1.917,6.19v12.28h3.834v-12.28h-3.834Zm6.208,0v12.28h3.834v-6.19s-0.03-2.88,1.735-3,2.556,0.61,2.556,2.28v6.91h3.835v-6.91s0.3-3.93-1.644-5.01c-1.129-.62-4.777-1.49-6.573,1.28v-1.64H570.4Z" transform="translate(-552.844 -3318)"/>
</svg>
